<?xml version="1.0" standalone="no"?>
<!DOCTYPE svg PUBLIC "-//W3C//DTD SVG 1.1//EN" "http://www.w3.org/Graphics/SVG/1.1/DTD/svg11.dtd" >
<svg xmlns="http://www.w3.org/2000/svg" xmlns:xlink="http://www.w3.org/1999/xlink" version="1.1">
<metadata>
Created by FontForge 20150102 at Sat Mar  7 20:55:19 2015
 By uniteet7
Copyright (c) 2010-13 by Vernon Adams
</metadata>
<defs>
<font id="Oswald-Light" horiz-adv-x="816" >
  <font-face 
    font-family="Oswald"
    font-weight="300"
    font-stretch="normal"
    units-per-em="2048"
    panose-1="2 0 3 3 0 0 0 0 0 0"
    ascent="1638"
    descent="-410"
    x-height="1184"
    cap-height="1658"
    bbox="-196 -548 4009 2198"
    underline-thickness="14"
    underline-position="-46"
    unicode-range="U+0020-FB04"
  />
<missing-glyph horiz-adv-x="748" 
d="M136 68h408v1229h-408v-1229zM68 0v1365h544v-1365h-544z" />
    <glyph glyph-name=".notdef" horiz-adv-x="748" 
d="M136 68h408v1229h-408v-1229zM68 0v1365h544v-1365h-544z" />
    <glyph glyph-name=".null" horiz-adv-x="0" 
 />
    <glyph glyph-name="nonmarkingreturn" horiz-adv-x="682" 
 />
    <glyph glyph-name="space" unicode=" " horiz-adv-x="418" 
 />
    <glyph glyph-name="exclam" unicode="!" horiz-adv-x="412" 
d="M125 0v179h160v-179h-160zM179 356l-52 1302h160l-55 -1302h-53z" />
    <glyph glyph-name="quotedbl" unicode="&#x22;" horiz-adv-x="729" 
d="M167 1174v484h144l-62 -484h-82zM450 1174v484h144l-62 -484h-82z" />
    <glyph glyph-name="numbersign" unicode="#" horiz-adv-x="953" 
d="M108 0l91 597h-115v111h132l46 290h-152v111h169l85 549h146l-85 -549h203l85 549h146l-85 -549h104v-111h-120l-47 -290h142v-111h-158l-92 -597h-147l92 597h-202l-92 -597h-146zM362 708h203l46 290h-202z" />
    <glyph glyph-name="dollar" unicode="$" horiz-adv-x="954" 
d="M487 -179v159q-192 4 -290.5 122t-113.5 328l139 40q7 -66 17.5 -116.5t31 -99t50 -79.5t75 -50t104.5 -19q234 0 234 240q0 53 -13.5 99.5t-43 91t-62 80.5t-84.5 87l-294 282q-150 144 -150 334q0 163 94 255.5t257 99.5v173h65v-173q165 -9 252.5 -109t102.5 -311
l-132 -34q-14 168 -72 252q-56 80 -180 80h-12q-109 -3 -171.5 -57t-62.5 -163q0 -68 26.5 -123.5t90.5 -117.5l292 -277q113 -108 178 -218.5t65 -239.5q0 -167 -89.5 -263.5t-240.5 -111.5v-161h-63z" />
    <glyph glyph-name="percent" unicode="%" horiz-adv-x="1499" 
d="M333 942q64 0 89.5 51.5t25.5 145.5v244q0 91 -25 140.5t-90 49.5t-89.5 -50t-24.5 -142v-243q0 -93 25.5 -144.5t88.5 -51.5zM333 827q-251 0 -251 318v230q0 152 59 233t192 81t192 -79t59 -229v-239q0 -315 -251 -315zM1166 103q64 0 89 52t25 146v243q0 92 -25 141.5
t-89 49.5q-65 0 -89.5 -50t-24.5 -142v-243q0 -94 25 -145.5t89 -51.5zM1166 -12q-251 0 -251 319v230q0 152 59 233t192 81q132 0 191.5 -79t59.5 -229v-240q0 -315 -251 -315zM422 0l525 1673h133l-524 -1673h-134z" />
    <glyph glyph-name="ampersand" unicode="&#x26;" horiz-adv-x="1236" 
d="M499 -21q-182 0 -282 107t-100 271q0 127 63.5 243.5t201.5 250.5q-7 11 -20 33q-94 159 -134 250.5t-40 191.5q0 164 94.5 257t256.5 93q155 0 247.5 -79.5t92.5 -216.5q0 -129 -91.5 -261t-254.5 -280l319 -504q52 74 88 190.5t42 210.5h144q0 -113 -52.5 -255.5
t-132.5 -240.5q83 -106 189 -106v-148q-20 0 -39 3q-119 8 -239 153q-62 -72 -152.5 -117.5t-200.5 -45.5zM500 105q142 0 266 135l-323 503q-93 -102 -134 -195.5t-41 -190.5q0 -48 12 -91t38 -80t72.5 -59t109.5 -22zM478 926q253 251 253 457q0 80 -52 124.5t-142 44.5
q-99 0 -149.5 -63.5t-50.5 -160.5q0 -89 33.5 -178.5t107.5 -223.5z" />
    <glyph glyph-name="quotesingle" unicode="'" horiz-adv-x="586" 
d="M167 1174v484h144l-62 -484h-82z" />
    <glyph glyph-name="parenleft" unicode="(" horiz-adv-x="569" 
d="M507 -338q-63 4 -112.5 25.5t-85 67t-61.5 92t-41.5 127.5t-25.5 144.5t-14 171t-5 180t-1 196.5q0 125 1 198t5 181.5t14 172.5t25.5 145t41.5 128t61.5 92t85 65.5t112.5 22.5v-105q-49 -5 -84.5 -36.5t-56.5 -102t-34 -133t-18 -184t-6 -197t-1 -227.5v-20v-27
q0 -152 1 -227t6 -196t18 -182.5t34 -131t56.5 -100.5t84.5 -36v-104z" />
    <glyph glyph-name="parenright" unicode=")" horiz-adv-x="526" 
d="M62 -338v104q49 5 84.5 36.5t57 102t34.5 133.5t18 185t6 197.5t1 227.5v20v7v6.5v6.5q0 153 -1 228.5t-6 197t-18 183.5t-34.5 132.5t-57 101.5t-84.5 36v104q63 -2 113 -22.5t85.5 -65.5t61.5 -91.5t41.5 -127.5t25.5 -145t14 -172.5t5 -181t1 -197.5q0 -143 -1 -224.5
t-8 -201.5t-20 -189t-38.5 -151.5t-61.5 -126.5t-91.5 -76.5t-126.5 -36.5z" />
    <glyph glyph-name="asterisk" unicode="*" horiz-adv-x="762" 
d="M241 990l-91 57l178 239l-256 102l38 96l247 -123l-17 296h116l-19 -296l245 123l37 -96l-255 -102l179 -241l-92 -55l-155 260z" />
    <glyph glyph-name="plus" unicode="+" horiz-adv-x="785" 
d="M332 471v324h-284v113h284v321h115v-321h290v-113h-290v-324h-115z" />
    <glyph glyph-name="comma" unicode="," horiz-adv-x="370" 
d="M132 -239l-31 66q53 30 75.5 70t22.5 103h-90v223h168v-207q0 -100 -33 -157.5t-112 -97.5z" />
    <glyph glyph-name="hyphen" unicode="-" horiz-adv-x="610" 
d="M87 609v118h436v-118h-436z" />
    <glyph glyph-name="period" unicode="." horiz-adv-x="372" 
d="M122 0v225h159v-225h-159z" />
    <glyph glyph-name="slash" unicode="/" horiz-adv-x="705" 
d="M50 0l472 1658h132l-472 -1658h-132z" />
    <glyph glyph-name="zero" unicode="0" horiz-adv-x="1008" 
d="M504 100q243 0 243 356v745q0 80 -11.5 141t-38 111.5t-75.5 77t-118 26.5t-117.5 -26.5t-75.5 -76.5t-38.5 -111.5t-11.5 -141.5v-745q0 -356 243 -356zM504 -21q-395 0 -395 490v720q0 487 395 487q396 0 396 -487v-720q0 -490 -396 -490z" />
    <glyph glyph-name="one" unicode="1" horiz-adv-x="875" 
d="M438 0v1459q-32 -47 -258 -109v121q72 19 154.5 68.5t132.5 118.5h121v-1658h-150z" />
    <glyph glyph-name="two" unicode="2" horiz-adv-x="993" 
d="M101 0v110l446 685q7 12 32 49t33 49.5t28 46t28 50t22.5 47t20.5 53t14 53t10.5 60.5t2.5 62q0 135 -56 210.5t-165 75.5q-75 0 -126.5 -26t-78.5 -75.5t-38.5 -108t-11.5 -136.5v-38h-149v42q0 233 95.5 350t301.5 117q185 0 281.5 -110t96.5 -311q0 -59 -12 -117
t-27 -101t-46.5 -100.5t-51.5 -89t-61 -92.5l-414 -628h576v-127h-751z" />
    <glyph glyph-name="three" unicode="3" horiz-adv-x="980" 
d="M488 -21q-187 0 -278.5 106.5t-91.5 297.5v40h146v-33q2 -141 53.5 -214t170.5 -73q120 0 180.5 82t60.5 266q0 344 -247 352q-2 0 -21 0.5t-21 0.5v141h40q134 2 191.5 76t57.5 241q0 139 -51.5 215.5t-174.5 76.5q-125 0 -181 -69.5t-58 -218.5v-28h-146v38
q0 191 93 295.5t292 104.5q188 0 283.5 -112t95.5 -303q0 -168 -64.5 -265.5t-172.5 -122.5q102 -28 169.5 -132t67.5 -288q0 -222 -95.5 -348t-298.5 -126z" />
    <glyph glyph-name="four" unicode="4" horiz-adv-x="1008" 
d="M602 0v482h-499v157l468 1020h182v-1036h188v-141h-188v-482h-151zM257 623h345v833z" />
    <glyph glyph-name="five" unicode="5" horiz-adv-x="991" 
d="M509 -19q-195 0 -282.5 112t-87.5 335h150q0 -161 51 -244t174 -83q134 0 182.5 101t48.5 322q0 228 -51 321t-177 93q-133 0 -215 -139h-126v859h646l-3 -140h-510l-8 -575q88 110 254 110q178 0 258 -130.5t80 -380.5q0 -279 -90 -420t-294 -141z" />
    <glyph glyph-name="six" unicode="6" horiz-adv-x="1006" 
d="M518 -21q-383 0 -383 520v662q0 515 383 515q186 0 278 -96t94 -289q0 -1 0.5 -16t0.5 -16h-148q0 158 -50.5 225.5t-170.5 67.5q-237 0 -237 -357v-313q43 40 114.5 69t153.5 29q199 0 278.5 -115t79.5 -380q0 -506 -393 -506zM518 105q124 0 182 83t58 268
q0 75 -3 125.5t-11.5 100.5t-24.5 80.5t-42.5 55t-65.5 35t-93 10.5q-66 0 -131.5 -30t-101.5 -65v-287q0 -198 56 -287t177 -89z" />
    <glyph glyph-name="seven" unicode="7" horiz-adv-x="887" 
d="M297 0l323 1538h-502v120h654v-73l-329 -1585h-146z" />
    <glyph glyph-name="eight" unicode="8" horiz-adv-x="993" 
d="M497 -21q-390 0 -390 466q0 83 15 150t36 108.5t56 76.5t62.5 53t68.5 38q-221 91 -221 389q0 193 89.5 304.5t283.5 111.5q193 0 283 -113t90 -307q0 -294 -222 -385q41 -21 68.5 -38.5t63 -53t56.5 -77t36 -108t15 -149.5q0 -466 -390 -466zM497 100q123 0 183 84.5
t60 260.5q0 335 -243 355q-244 -20 -244 -355q0 -177 60.5 -261t183.5 -84zM497 938q225 10 225 323q0 294 -225 294t-225 -294q0 -313 225 -323z" />
    <glyph glyph-name="nine" unicode="9" horiz-adv-x="1006" 
d="M511 -21q-374 0 -379 388v30h148q0 -160 51.5 -226.5t181.5 -66.5q111 0 167.5 82t56.5 276v312q-35 -40 -103.5 -68.5t-163.5 -28.5q-200 0 -279 115t-79 379q0 505 395 505q381 0 381 -519v-662q0 -516 -377 -516zM505 793q145 0 232 96v286q0 199 -54.5 287.5
t-175.5 88.5q-123 0 -182.5 -86t-59.5 -265q0 -75 3 -125.5t11.5 -100.5t24.5 -80.5t42.5 -55t65.5 -35t93 -10.5z" />
    <glyph glyph-name="colon" unicode=":" horiz-adv-x="396" 
d="M142 171v219h159v-219h-159zM142 867v219h159v-219h-159z" />
    <glyph glyph-name="semicolon" unicode=";" horiz-adv-x="426" 
d="M162 -57l-31 66q57 24 77.5 57t20.5 96h-88v211h166v-195q0 -104 -32 -158t-113 -77zM141 903v224h158v-224h-158z" />
    <glyph glyph-name="less" unicode="&#x3c;" horiz-adv-x="744" 
d="M627 126l-568 418v148l568 430v-156l-452 -348l452 -338v-154z" />
    <glyph glyph-name="equal" unicode="=" horiz-adv-x="820" 
d="M104 584v119h612v-119h-612zM104 927v120h612v-120h-612z" />
    <glyph glyph-name="greater" unicode="&#x3e;" horiz-adv-x="744" 
d="M118 126v155l452 349l-452 337v155l568 -419v-148z" />
    <glyph glyph-name="question" unicode="?" horiz-adv-x="971" 
d="M355 412v253q190 137 282 277t92 308q0 142 -71 220t-177 78q-117 0 -177 -66q-43 -47 -43 -118q0 -29 7 -61l14 -73l-137 -29l-16 73q-12 54 -12 102q0 118 74 195q104 108 291 108q176 0 284 -111.5t108 -320.5q0 -99 -26 -184t-80 -161t-119 -139t-161 -139v-212h-133
zM349 1v177h149v-177h-149z" />
    <glyph glyph-name="at" unicode="@" horiz-adv-x="1726" 
d="M928 -230q-137 0 -254 27.5t-220.5 91.5t-176.5 163t-115 249t-42 341q0 204 42 371.5t116.5 285.5t179 199t227.5 119.5t264 39.5h6q177 -1 311 -57q136 -58 220 -166q83 -108 122 -260q34 -131 34 -294q0 -25 -1 -50q-4 -122 -32 -222.5t-70.5 -167t-97.5 -112
t-112.5 -65.5t-115.5 -20q-75 0 -129 51q-50 47 -50 127v12q-29 -83 -85.5 -138t-139.5 -58h-17q-120 0 -192 91q-78 98 -78 268q0 172 65.5 321t174.5 235.5t233 86.5q77 0 143 -52l19 39h111l-103 -711q-6 -63 -6 -96q0 -37 17 -58q18 -23 58 -23q38 0 75.5 16.5t75 53.5
t67 91.5t49.5 137t23 182.5q1 33 1 65q-1 318 -137 480q-149 176 -439 176h-7q-148 -2 -273 -62.5t-216.5 -173t-142.5 -281.5t-51 -377q0 -177 39 -313t102 -219t154 -135.5t184 -72t202 -19.5q182 0 376 53l32 -110q-240 -60 -420 -60zM832 353q66 4 120.5 63t85.5 165
l74 517q-44 27 -96 27q-65 0 -128 -39t-112.5 -106.5t-80 -168.5t-30.5 -217q0 -128 47 -189q41 -53 102 -53q9 0 18 1z" />
    <glyph glyph-name="A" unicode="A" horiz-adv-x="977" 
d="M56 0l350 1658h164l352 -1658h-153l-82 443h-396l-84 -443h-151zM313 557h353l-177 894z" />
    <glyph glyph-name="B" unicode="B" horiz-adv-x="1027" 
d="M144 0v1658h356q217 0 312 -107t95 -306q0 -86 -18 -155.5t-67 -124.5t-126 -71q70 -19 120.5 -61t78 -99.5t39.5 -119.5t12 -134q0 -84 -10.5 -152t-37.5 -130.5t-70.5 -105t-112.5 -67.5t-160 -25h-411zM301 117h225q155 0 212 84t57 278q0 344 -267 344h-227v-706z
M301 944h226q133 0 186 77t53 224q0 157 -67.5 225t-248.5 68h-149v-594z" />
    <glyph glyph-name="C" unicode="C" horiz-adv-x="1021" 
d="M531 -21q-98 0 -172.5 27t-121 72t-75.5 113t-40 142t-11 166v659q0 96 11.5 171.5t41 142t76.5 110.5t120.5 69t170.5 25q109 0 186 -32.5t122 -95.5t65 -147t20 -196v-102h-148v97q0 88 -9 147t-34.5 108.5t-75 73t-125.5 23.5q-82 0 -135.5 -26t-80.5 -79t-37 -115.5
t-10 -153.5v-704q0 -193 57.5 -281t205.5 -88q61 0 105 17.5t70.5 46.5t42 76.5t21 98t5.5 120.5v108h148v-97q0 -91 -11 -163.5t-38.5 -136.5t-71.5 -106t-112.5 -66t-159.5 -24z" />
    <glyph glyph-name="D" unicode="D" horiz-adv-x="1067" 
d="M301 117h209q77 0 130.5 21.5t84 55t47.5 91.5t21.5 113.5t4.5 137.5v619q0 80 -6.5 136t-25 105.5t-51 79t-85 46t-125.5 16.5h-204v-1421zM144 0v1658h363q101 0 178.5 -23t128.5 -64t83 -103t45.5 -134t13.5 -163v-659q0 -121 -22 -212t-72 -160t-135.5 -104.5
t-207.5 -35.5h-375z" />
    <glyph glyph-name="E" unicode="E" 
d="M144 0v1658h599v-120h-442v-621h362v-116h-362v-684h447v-117h-604z" />
    <glyph glyph-name="F" unicode="F" horiz-adv-x="790" 
d="M144 0v1658h598v-117h-441v-623h367v-116h-367v-802h-157z" />
    <glyph glyph-name="G" unicode="G" horiz-adv-x="1064" 
d="M520 -22q-115 0 -196 37t-127 108.5t-66 164.5t-20 217v648q0 126 19.5 217.5t65.5 162.5t129.5 107t204.5 36q215 0 308 -119.5t93 -357.5v-59h-147v59q0 186 -53 269.5t-199 83.5q-67 0 -115 -19.5t-76.5 -51t-45 -83t-22 -104.5t-5.5 -126v-681q0 -96 11.5 -162.5
t40.5 -118t82.5 -76.5t132.5 -25q146 0 202.5 95t56.5 291v196h-244v115h388v-802h-100l-19 188q-69 -210 -299 -210z" />
    <glyph glyph-name="H" unicode="H" horiz-adv-x="1124" 
d="M144 0v1658h157v-735h522v735h157v-1658h-157v808h-522v-808h-157z" />
    <glyph glyph-name="I" unicode="I" horiz-adv-x="454" 
d="M151 0v1658h154v-1658h-154z" />
    <glyph glyph-name="J" unicode="J" horiz-adv-x="571" 
d="M16 -73v118q59 0 97.5 4t68.5 17.5t46 31.5t26 53.5t12.5 76t2.5 106.5v1324h157v-1334q0 -87 -8 -146t-28.5 -110t-57.5 -80t-96 -45t-143 -16h-77z" />
    <glyph glyph-name="K" unicode="K" horiz-adv-x="969" 
d="M144 0v1658h157v-874l443 874h150l-343 -712l416 -946h-155l-377 864l-134 -248v-616h-157z" />
    <glyph glyph-name="L" unicode="L" horiz-adv-x="783" 
d="M144 0v1658h157v-1541h472v-117h-629z" />
    <glyph glyph-name="M" unicode="M" horiz-adv-x="1316" 
d="M130 0l43 1658h153l330 -1439l332 1439h157l41 -1658h-130l-32 1322l-317 -1322h-100l-313 1319l-32 -1319h-132z" />
    <glyph glyph-name="N" unicode="N" horiz-adv-x="1065" 
d="M144 0v1658h115l528 -1287v1287h134v-1658h-110l-532 1302v-1302h-135z" />
    <glyph glyph-name="O" unicode="O" horiz-adv-x="1074" 
d="M537 105q80 0 134 24.5t82.5 73.5t40 109t11.5 144v750q0 84 -11.5 143.5t-40 107.5t-82.5 71.5t-134 23.5t-134 -23.5t-82.5 -71.5t-40 -107.5t-11.5 -143.5v-750q0 -84 11.5 -144t40 -109t82.5 -73.5t134 -24.5zM537 -21q-120 0 -204.5 36.5t-132 107t-68.5 160
t-21 207.5v688q0 117 21.5 205t70 155.5t132.5 102.5t202 35t202 -35t132.5 -103t70 -156t21.5 -204v-690q0 -93 -12.5 -168t-43 -140t-78.5 -108.5t-122 -68t-170 -24.5z" />
    <glyph glyph-name="P" unicode="P" horiz-adv-x="990" 
d="M144 0v1658h398q109 0 187 -31t123 -90.5t65 -137.5t20 -180q0 -92 -21.5 -168.5t-67 -137t-123 -94.5t-181.5 -34h-243v-785h-157zM301 901h199q153 0 218.5 70.5t65.5 246.5q0 191 -58 257.5t-224 66.5h-201v-641z" />
    <glyph glyph-name="Q" unicode="Q" horiz-adv-x="1085" 
d="M884 -325q-114 55 -290 307q-26 -3 -52 -3q-120 0 -205.5 36.5t-134 107t-70 160t-21.5 207.5v688q0 116 22.5 205t72 156t134 102t202.5 35t202.5 -35t134 -102.5t72 -156t22.5 -204.5v-690q0 -93 -13.5 -168t-43 -138.5t-81 -108t-122.5 -67.5q44 -57 99 -117t92 -84z
M542 105q80 0 134.5 24.5t84.5 73t42 109t12 144.5v750q0 84 -12 143.5t-42 107.5t-84.5 71.5t-134.5 23.5t-134.5 -23.5t-84.5 -71.5t-42 -107.5t-12 -143.5v-750q0 -84 12 -144.5t42 -109t84.5 -73t134.5 -24.5z" />
    <glyph glyph-name="R" unicode="R" horiz-adv-x="1049" 
d="M144 0v1658h377q221 0 316 -106.5t95 -312.5q0 -343 -231 -391l257 -848h-154l-243 815h-260v-815h-157zM301 930h211q150 0 209 73.5t59 235.5q0 160 -56 231t-207 71h-216v-611z" />
    <glyph glyph-name="S" unicode="S" horiz-adv-x="942" 
d="M499 -20q-197 0 -298.5 118.5t-117.5 331.5l139 40q7 -66 17.5 -116.5t31 -99t50 -79.5t75 -50t104.5 -19q234 0 234 240q0 53 -13.5 99.5t-43 91t-62 80.5t-84.5 87l-294 282q-150 144 -150 334q0 169 100.5 262t272.5 94h7q181 0 277 -98q98 -100 114 -323l-132 -34
q-14 168 -72 252q-56 80 -180 80h-12q-109 -3 -171.5 -57t-62.5 -163q0 -68 26.5 -123.5t90.5 -117.5l292 -277q113 -108 178 -218.5t65 -239.5q0 -181 -104.5 -279t-276.5 -98z" />
    <glyph glyph-name="T" unicode="T" horiz-adv-x="795" 
d="M323 0v1538h-333v120h815v-120h-325v-1538h-157z" />
    <glyph glyph-name="U" unicode="U" horiz-adv-x="1100" 
d="M551 -21q-99 0 -174 23t-122 63.5t-76 101.5t-40.5 129.5t-11.5 156.5v1205h151v-1210q0 -62 7 -111t25 -93.5t48 -74t79 -47t114 -17.5q78 0 132.5 25.5t84 74t42.5 107.5t13 136v1210h150v-1205q0 -87 -12 -156t-42 -130t-77.5 -101.5t-121 -63.5t-169.5 -23z" />
    <glyph glyph-name="V" unicode="V" horiz-adv-x="1003" 
d="M438 0l-388 1658h149l313 -1372l295 1372h147l-374 -1658h-142z" />
    <glyph glyph-name="W" unicode="W" horiz-adv-x="1464" 
d="M353 0l-282 1657l134 1l218 -1346l251 1321h129l255 -1323l203 1348h132l-268 -1658h-122l-263 1369l-261 -1369h-126z" />
    <glyph glyph-name="X" unicode="X" horiz-adv-x="949" 
d="M29 0l358 864l-354 795h144l298 -662l285 662h150l-368 -814l378 -845h-148l-314 700l-279 -700h-150z" />
    <glyph glyph-name="Y" unicode="Y" horiz-adv-x="961" 
d="M409 0v551l-374 1107h153l298 -921l287 921h153l-365 -1107v-551h-152z" />
    <glyph glyph-name="Y" unicode="&#x4ae;" horiz-adv-x="961" 
d="M409 0v551l-374 1107h153l298 -921l287 921h153l-365 -1107v-551h-152z" />
    <glyph glyph-name="Z" unicode="Z" horiz-adv-x="834" 
d="M69 0v118l556 1423h-511v117h678v-81l-569 -1460h571v-117h-725z" />
    <glyph glyph-name="bracketleft" unicode="[" horiz-adv-x="619" 
d="M144 -327v1985h357v-83h-206v-1818h206v-84h-357z" />
    <glyph glyph-name="backslash" unicode="\" horiz-adv-x="705" 
d="M522 0l-472 1658h132l472 -1658h-132z" />
    <glyph glyph-name="bracketright" unicode="]" horiz-adv-x="584" 
d="M83 -326v83h206v1817h-206v84h357v-1984h-357z" />
    <glyph glyph-name="asciicircum" unicode="^" horiz-adv-x="808" 
d="M59 1047l267 611h157l266 -611h-135l-210 507l-209 -507h-136z" />
    <glyph glyph-name="underscore" unicode="_" horiz-adv-x="681" 
d="M0 -218v118h681v-118h-681z" />
    <glyph glyph-name="grave" unicode="`" horiz-adv-x="482" 
d="M296 1258l-188 400h151l114 -400h-77z" />
    <glyph glyph-name="a" unicode="a" horiz-adv-x="813" 
d="M319 -19q-104 0 -171 76.5t-67 189.5q0 59 10 105.5t37.5 87.5t60 72.5t92.5 67t120 65.5t157 73v85q0 163 -31 224.5t-116 61.5q-164 0 -164 -203v-43l-148 5q0 29 1 36q7 167 87 242.5t232 75.5q157 0 223 -93t66 -298v-576q0 -143 11 -235h-133l-22 164
q-27 -78 -91.5 -130.5t-153.5 -52.5zM368 110q60 0 110.5 41.5t79.5 98.5v369q-6 -3 -19 -10q-49 -26 -75 -40t-62.5 -35t-54.5 -35t-41.5 -34t-34 -37.5t-21.5 -40.5t-15 -48.5t-4 -56.5q0 -87 39 -129.5t98 -42.5z" />
    <glyph glyph-name="b" unicode="b" horiz-adv-x="852" 
d="M477 -19q-117 0 -211 113v-94h-150v1658h150v-572q94 116 226 116q66 0 115.5 -27t78 -70t46 -107t23 -126.5t5.5 -141.5v-250q0 -94 -8 -168t-28 -137.5t-52 -105t-81 -65t-114 -23.5zM452 100q95 0 126.5 88.5t31.5 289.5v252q0 190 -31.5 272t-128.5 82
q-91 0 -184 -91v-807q82 -86 186 -86z" />
    <glyph glyph-name="c" unicode="c" horiz-adv-x="796" 
d="M409 -19q-81 0 -139 24t-92 62.5t-53.5 101.5t-26 127.5t-6.5 152.5v276q0 129 14 214.5t49.5 146.5t97 88.5t155.5 27.5q74 0 128 -18t87.5 -49.5t53 -80.5t27 -103.5t7.5 -127.5v-56h-139v56q0 152 -36 209.5t-126 57.5q-102 0 -135 -72.5t-33 -267.5v-332
q0 -182 35.5 -253t133.5 -71q42 0 71 12t46.5 33t27.5 58t13 78.5t3 104.5v65h139v-58q0 -78 -6.5 -135t-26 -110.5t-52 -87t-87.5 -53.5t-130 -20z" />
    <glyph glyph-name="d" unicode="d" horiz-adv-x="845" 
d="M378 -19q-153 0 -219.5 115t-66.5 382v219q0 98 7 172t26 139t50 106t80 64.5t116 23.5q117 -1 209 -103v559h150v-1658h-150v84q-90 -102 -202 -103zM408 100q87 0 172 78v822q-90 84 -176 84q-95 0 -128.5 -79.5t-33.5 -259.5v-279q0 -194 34 -280t132 -86z" />
    <glyph glyph-name="e" unicode="e" horiz-adv-x="809" 
d="M412 -19q-170 0 -245 105t-75 359v299q0 173 35.5 274.5t104 142.5t181.5 41q75 0 128 -19.5t88 -55.5t55.5 -97.5t28.5 -136t8 -179.5l-1 -107h-478v-177q0 -184 35.5 -260t133.5 -76q78 0 120 49.5t42 179.5v82h147v-66q0 -172 -72 -265t-236 -93zM242 693h331v98
q0 62 -3 103t-12.5 81.5t-26.5 63.5t-47 37t-72 14q-95 0 -132.5 -66t-37.5 -251v-80z" />
    <glyph glyph-name="f" unicode="f" horiz-adv-x="549" 
d="M190 0v1075h-154v109h154v123q0 49 2.5 84t10 72t22 61t38 44.5t59.5 30t84 9.5q54 0 121 -13v-113q-71 11 -84 11q-64 0 -84 -38.5t-20 -131.5v-139h192v-109h-192v-1075h-149z" />
    <glyph glyph-name="g" unicode="g" horiz-adv-x="883" 
d="M439 -389q-94 0 -165.5 10t-126.5 33t-84 62.5t-29 94.5q0 86 57 157.5t139 114.5q-54 15 -93 43.5t-39 61.5q0 94 141 239q-148 108 -148 362q0 86 20 159.5t59.5 131t103.5 90t147 32.5q179 0 255 -147q19 33 64 71.5t96 60.5l31 13l40 -105q-49 -12 -109.5 -43
t-85.5 -60q15 -36 26.5 -100t11.5 -107q0 -191 -78.5 -302.5t-248.5 -111.5q-27 0 -66 6.5t-54 12.5q-3 -5 -22.5 -34t-29 -44.5t-19.5 -38t-10 -37.5q0 -29 99 -45q21 -6 100 -17.5t90 -14.5q146 -26 221 -91t75 -182q0 -141 -99 -208t-269 -67zM437 -269q116 0 183.5 37.5
t67.5 113.5q0 65 -46 101t-177 60l-152 20q-150 -93 -150 -203q0 -68 64 -98.5t210 -30.5zM423 479q50 0 87 19t57 48t32 72.5t15.5 82t3.5 88.5q0 306 -194 306q-47 0 -83.5 -19.5t-58 -49.5t-35 -72t-18 -81.5t-4.5 -83.5q0 -310 198 -310z" />
    <glyph glyph-name="h" unicode="h" horiz-adv-x="844" 
d="M117 0v1658h150v-599q133 143 287 143q89 0 136 -65.5t47 -186.5v-950h-151v918q0 90 -27 128t-85 38q-97 0 -207 -110v-974h-150z" />
    <glyph glyph-name="i" unicode="i" horiz-adv-x="418" 
d="M131 0v1184h150v-1184h-150zM131 1347v204h151v-204h-151z" />
    <glyph glyph-name="j" unicode="j" horiz-adv-x="436" 
d="M-34 -303v114q10 -3 51 -3q36 0 62.5 9t41 23.5t23 37t11 44t2.5 50.5v1212h150v-1225q0 -137 -68 -203t-193 -66q-63 0 -80 7zM157 1347v204h151v-204h-151z" />
    <glyph glyph-name="k" unicode="k" horiz-adv-x="820" 
d="M116 2v1658h150v-1054l395 578h160l-299 -457l284 -727h-150l-249 644l-141 -196v-446h-150z" />
    <glyph glyph-name="l" unicode="l" horiz-adv-x="414" 
d="M135 0v1658h151v-1658h-151z" />
    <glyph glyph-name="m" unicode="m" horiz-adv-x="1319" 
d="M114 0v1184h141v-120q119 141 279 141q148 0 186 -156q124 156 292 156q88 0 144.5 -63.5t56.5 -207.5v-934h-142v930q0 97 -30 135t-86 38q-113 -2 -223 -123q2 -30 2 -46v-934h-140v930q0 97 -31 135t-87 38q-113 -2 -221 -123v-980h-141z" />
    <glyph glyph-name="n" unicode="n" horiz-adv-x="838" 
d="M114 0v1184h150v-123q131 141 285 141q88 0 135 -65.5t47 -186.5v-950h-150v918q0 90 -27.5 128t-85.5 38q-97 0 -204 -109v-975h-150z" />
    <glyph glyph-name="o" unicode="o" 
d="M408 94q45 0 76 16.5t48.5 41.5t26.5 71t11.5 88t2.5 109v344q0 67 -2.5 109t-11.5 88t-26.5 71t-48.5 41.5t-76 16.5q-38 0 -66 -10t-46 -32.5t-29 -48t-16.5 -66.5t-7 -77.5t-1.5 -91.5v-344q0 -55 1.5 -91.5t7 -77.5t16.5 -66.5t29 -48t46 -32.5t66 -10zM408 -19
q-91 0 -153 29t-97.5 88t-50.5 138.5t-15 191.5v328q0 226 70 336t246 110q177 0 246.5 -109.5t69.5 -336.5v-328q0 -112 -15 -191.5t-50.5 -138.5t-97.5 -88t-153 -29z" />
    <glyph glyph-name="p" unicode="p" horiz-adv-x="855" 
d="M115 -390v1574h150v-99q95 117 227 117q66 0 115.5 -27t78 -70t46 -107t23 -126.5t5.5 -141.5v-250q0 -94 -8 -168t-28 -137.5t-52.5 -105t-81.5 -65t-114 -23.5q-115 0 -211 113v-484h-150zM452 100q40 0 68 16.5t45.5 45t27.5 77.5t13.5 104.5t3.5 134.5v252
q0 190 -32 272t-129 82q-91 0 -184 -91v-807q82 -86 187 -86z" />
    <glyph glyph-name="q" unicode="q" horiz-adv-x="848" 
d="M584 -390v475q-89 -103 -202 -104q-153 0 -219.5 115t-66.5 382v219q0 98 7 172t26 139t50 106t80 64.5t116 23.5q120 -1 209 -104v86h150v-1574h-150zM412 100q89 0 172 79v821q-91 84 -176 84q-95 0 -128.5 -79.5t-33.5 -259.5v-279q0 -194 34 -280t132 -86z" />
    <glyph glyph-name="r" unicode="r" horiz-adv-x="610" 
d="M126 0v1184h150v-163q54 90 126.5 133t146.5 43q18 0 26 -1v-162q-32 13 -72 13q-144 0 -227 -138v-909h-150z" />
    <glyph glyph-name="s" unicode="s" horiz-adv-x="743" 
d="M385 -19q-141 0 -225.5 91t-96.5 246l126 38q12 -135 62 -198.5t140 -63.5q78 0 123 46q43 44 43 118v7q-3 118 -144 236l-161 137q-85 71 -124 139q-38 66 -38 154q0 130 78 201q76 70 205 70q131 0 201.5 -84t78.5 -227l-106 -35q-7 119 -48.5 176.5t-119.5 57.5
q-70 0 -112 -39q-41 -38 -41 -102q0 -58 21 -99.5t77 -89.5l167 -150q45 -39 73.5 -68.5t60.5 -73t47.5 -94t16.5 -108.5q0 -136 -82 -210.5t-222 -74.5z" />
    <glyph glyph-name="t" unicode="t" horiz-adv-x="573" 
d="M395 -15q-121 0 -167 66.5t-47 194.5v838h-143v100h143v366h150v-366h197v-100h-197v-824q0 -90 21 -123.5t85 -33.5q41 0 84 8v-113q-67 -13 -126 -13z" />
    <glyph glyph-name="u" unicode="u" horiz-adv-x="843" 
d="M288 -18q-89 0 -136 66t-47 187v949h151v-918q0 -90 27 -128t85 -38q101 0 210 116v968h150v-1184h-150v131q-132 -149 -290 -149z" />
    <glyph glyph-name="v" unicode="v" horiz-adv-x="753" 
d="M294 0l-258 1184h152l193 -1011l190 1011h146l-246 -1184h-177z" />
    <glyph glyph-name="w" unicode="w" horiz-adv-x="1177" 
d="M257 0l-193 1184h128l148 -989l186 989h129l188 -985l143 985h127l-191 -1184h-141l-188 963l-185 -963h-151z" />
    <glyph glyph-name="x" unicode="x" horiz-adv-x="778" 
d="M33 0l280 619l-267 565h149l203 -434l194 434h151l-277 -582l282 -602h-143l-221 466l-206 -466h-145z" />
    <glyph glyph-name="y" unicode="y" horiz-adv-x="780" 
d="M82 -295v117q108 0 162 17t68 48q9 20 10 52q0 17 -3 38q-5 37 -35 164q-24 99 -131 559t-113 484h150l206 -1007l198 1007h151l-287 -1269q-26 -113 -105.5 -161.5t-231.5 -48.5h-39z" />
    <glyph glyph-name="z" unicode="z" horiz-adv-x="683" 
d="M66 0v105l403 965h-361v114h519v-89l-401 -981h393v-114h-553z" />
    <glyph glyph-name="braceleft" unicode="{" horiz-adv-x="528" 
d="M488 -338q-55 0 -92.5 2t-70 12t-52 20t-35 36.5t-23 51t-12 74t-5.5 95t-1 123.5v264q0 88 -4.5 138t-18 82.5t-35.5 43.5t-61 11v116q39 0 61 11t35.5 43.5t18 82.5t4.5 138v255q0 78 1 123t5.5 94.5t12 74t23 51t35 36.5t52 20t70 12t92.5 2v-112q-101 0 -119 -43
t-18 -258v-287q0 -102 -13.5 -164.5t-39 -93.5t-68.5 -43q43 -12 68.5 -43t39 -93.5t13.5 -164.5v-296q0 -216 18 -258.5t119 -42.5v-113z" />
    <glyph glyph-name="bar" unicode="|" horiz-adv-x="445" 
d="M152 -295l1 1954l140 -1l-1 -1953h-140z" />
    <glyph glyph-name="braceright" unicode="}" horiz-adv-x="552" 
d="M64 -338v113q101 0 119 42.5t18 258.5v296q0 102 13.5 164.5t39 93.5t68.5 43q-43 12 -68.5 43t-39 93.5t-13.5 164.5v287q0 215 -18 258t-119 43v112q44 0 75.5 -1.5t61 -7t48.5 -11.5t36.5 -21t27.5 -28.5t18.5 -41t12.5 -52t6.5 -68t3 -82t0.5 -100.5v-255
q0 -88 4.5 -138t18 -82.5t35.5 -43.5t61 -11v-116q-39 0 -61 -11t-35.5 -43.5t-18 -82.5t-4.5 -138v-264q0 -62 -0.5 -101t-3 -82.5t-6.5 -68t-12.5 -52t-18.5 -41t-27.5 -28.5t-36.5 -21t-48.5 -11.5t-61 -7t-75.5 -1.5z" />
    <glyph glyph-name="asciitilde" unicode="~" horiz-adv-x="833" 
d="M557 767q-46 0 -147 57t-136 57q-50 0 -141 -82l-54 70q50 55 106 92t99 37q44 0 144.5 -56t134.5 -56q19 0 41.5 10.5t40.5 23.5t55 42l54 -69q-120 -126 -197 -126z" />
    <glyph glyph-name="uni00A0" unicode="&#xa0;" horiz-adv-x="442" 
 />
    <glyph glyph-name="exclamdown" unicode="&#xa1;" horiz-adv-x="412" 
d="M125 -396l55 1302h53l53 -1302h-161zM127 1083v179h160v-179h-160z" />
    <glyph glyph-name="cent" unicode="&#xa2;" horiz-adv-x="783" 
d="M355 -204v188q-67 7 -115 34.5t-76.5 67t-44.5 100t-21.5 121t-5.5 142.5v276q0 242 58 352t213 123v185h62v-184q69 -2 120 -21.5t82.5 -50.5t50.5 -79.5t26 -102t7 -124.5v-56h-139v56q0 152 -36 209.5t-126 57.5q-102 0 -135 -72.5t-33 -267.5v-332q0 -182 35.5 -253
t133.5 -71q42 0 71 12t46.5 33t27.5 58t13 78.5t3 104.5v65h139v-58q0 -76 -6.5 -133t-25.5 -110t-51 -86.5t-85 -54t-126 -21.5v-186h-62z" />
    <glyph glyph-name="sterling" unicode="&#xa3;" horiz-adv-x="769" 
d="M22 0v76l124 35v663h-124v112h124v234q0 76 2.5 132.5t10.5 117.5t22 104t38 83.5t57 65t80.5 39t107.5 14.5q77 0 129.5 -25t81 -73t40.5 -105.5t13 -135.5v-51h-113q0 141 -30 206t-122 65q-38 0 -66.5 -11.5t-46 -36.5t-29 -52.5t-16.5 -73t-7 -83.5t-2 -97v-317h272
v-112h-272v-663h429v-111h-703z" />
    <glyph glyph-name="currency" unicode="&#xa4;" horiz-adv-x="1078" 
d="M86 381l-30 30l163 162q-111 124 -111 293t111 293l-163 162l30 30l162 -162q122 115 290 115h2.5h3.5q168 0 290 -115l162 162l30 -30l-162 -162q110 -125 110 -293q0 -169 -111 -293l163 -162l-30 -30l-162 162q-122 -115 -290 -115h-2.5h-3.5q-168 0 -290 115z
M541 498q151 0 254 107.5t103 260.5t-103 261t-254 108t-254 -108t-103 -261t103.5 -260.5t253.5 -107.5z" />
    <glyph glyph-name="yen" unicode="&#xa5;" horiz-adv-x="889" 
d="M384 0v225h-204v100h204v185h-204v98h184l-354 1050h153l298 -921l287 921h153l-346 -1050h182v-98h-201v-185h201v-100h-201v-225h-152z" />
    <glyph glyph-name="brokenbar" unicode="&#xa6;" horiz-adv-x="414" 
d="M144 -348v850h126v-850h-126zM144 808v850h126v-850h-126z" />
    <glyph glyph-name="section" unicode="&#xa7;" horiz-adv-x="820" 
d="M415 -18q-132 0 -212.5 89t-113.5 227l114 38q26 -98 80 -165.5t134 -67.5q75 0 121.5 41t48.5 112v10q-1 48 -25 94q-28 52 -120 141l-229 188q-134 105 -134 236q0 91 50.5 153.5t130.5 91.5q-150 124 -150 246q0 116 82 187.5t220 71.5q225 0 310 -296l-117 -38
q-14 41 -27.5 71t-37 66t-57 55.5t-74.5 19.5q-67 0 -109 -39.5t-42 -110.5q0 -80 114 -179l230 -175q152 -121 152 -283v-18q-7 -153 -160 -234q41 -42 63.5 -69.5t45 -76t22.5 -102.5q0 -132 -84 -208q-85 -76 -226 -76zM498 597q47 20 83.5 59.5t40.5 91.5q1 10 1 19
q0 99 -111 191l-159 132q-56 -20 -91.5 -62.5t-35.5 -101.5q0 -71 68 -134z" />
    <glyph glyph-name="dieresis" unicode="&#xa8;" horiz-adv-x="784" 
d="M140 1477v181h154v-181h-154zM476 1477v181h154v-181h-154z" />
    <glyph glyph-name="copyright" unicode="&#xa9;" horiz-adv-x="1765" 
d="M867 249q-89 0 -153 24.5t-102 64.5t-59.5 106t-28.5 134t-7 163v233q0 139 15.5 229.5t55 154.5t107 91.5t172.5 27.5q82 0 141.5 -18t96 -49t57.5 -82t28.5 -107.5t7.5 -134.5v-56h-146v55q0 112 -19.5 171.5t-57 81t-106.5 21.5q-115 0 -153.5 -75.5t-38.5 -283.5
v-291q0 -194 41 -268t152 -74q59 0 94.5 15t55 52.5t26 88t6.5 135.5v59h146v-52q0 -84 -7 -142.5t-27.5 -113.5t-56.5 -88t-96 -52.5t-144 -19.5zM886 50q150 0 274 44.5t209 120t144 178t86 216t27 236.5t-27 236t-86 215t-144 177t-209 119t-274 44t-274 -44t-209.5 -119
t-144 -177t-85.5 -215t-27 -236t27 -236.5t85.5 -216t144 -178t209.5 -120t274 -44.5zM883 -22q-122 0 -229.5 26t-190 72.5t-150 111t-114 140.5t-78.5 162t-46.5 174t-14.5 179q0 129 29 250.5t93 234t158 196.5t233.5 134t309.5 50q142 0 263.5 -35t210 -97t156.5 -144
t109.5 -179.5t62 -200t20.5 -209.5q0 -91 -14.5 -179.5t-46 -174.5t-78 -161.5t-114 -140t-150 -111t-189.5 -72.5t-230 -26z" />
    <glyph glyph-name="ordfeminine" unicode="&#xaa;" horiz-adv-x="842" 
d="M358 696q-93 0 -150.5 58.5t-57.5 152.5q0 31 5 57.5t13 48.5t25.5 43t33.5 37t46.5 34.5t55.5 32t68.5 32.5t78 33t91.5 36v89q0 122 -26.5 174t-93.5 52q-66 0 -104.5 -44.5t-38.5 -138.5l-124 2q3 138 72 212t196 74q143 0 197 -85t54 -274v-612h-117l-6 123
q-28 -61 -87 -99t-131 -38zM398 806q55 0 98.5 33t70.5 86v269q-56 -26 -80 -38t-63 -32.5t-54.5 -32.5t-37.5 -31.5t-29.5 -37t-14 -40.5t-6.5 -51q0 -63 33.5 -94t82.5 -31z" />
    <glyph glyph-name="guillemotleft" unicode="&#xab;" horiz-adv-x="873" 
d="M417 176l-341 442v67l341 441v-191l-216 -281l216 -287v-191zM752 176l-342 442v67l342 441v-191l-217 -283l217 -285v-191z" />
    <glyph glyph-name="logicalnot" unicode="&#xac;" horiz-adv-x="745" 
d="M595 561v229h-511v119h602v-348h-91z" />
    <glyph glyph-name="uni00AD" unicode="&#xad;" horiz-adv-x="684" 
d="M118 758v116h457v-116h-457z" />
    <glyph glyph-name="registered" unicode="&#xae;" horiz-adv-x="1795" 
d="M612 252v1185h336q305 0 305 -315q0 -111 -47 -186.5t-145 -99.5l206 -584h-138l-191 560h-193v-560h-133zM745 893h168q120 0 162 55t42 177q0 110 -40.5 164t-140.5 54h-191v-450zM898 55q146 0 268 43.5t205 118t141 175t84.5 212.5t26.5 232q0 121 -26.5 233
t-84.5 212t-141 174t-205 117t-268 43q-148 0 -270 -43t-205.5 -117t-141 -174t-84 -212t-26.5 -233t26.5 -232.5t84 -212t141 -175t205.5 -118t270 -43.5zM898 -25q-169 0 -308 50t-232.5 133.5t-157.5 195.5t-92.5 233t-28.5 249t28.5 249t92.5 233t157.5 195t232.5 133
t308 50t307.5 -50t232 -133t157.5 -195t92.5 -233t28.5 -249t-28.5 -249t-92.5 -233t-157 -195.5t-232 -133.5t-308 -50z" />
    <glyph glyph-name="macron" unicode="&#xaf;" horiz-adv-x="704" 
d="M178 1562v96h367v-96h-367z" />
    <glyph glyph-name="degree" unicode="&#xb0;" horiz-adv-x="846" 
d="M423 1176q80 0 132 51.5t52 147.5q0 97 -52 148.5t-133 51.5q-80 0 -131 -51.5t-51 -148.5q0 -96 51.5 -147.5t131.5 -51.5zM423 1074q-131 0 -216 78t-85 224t85 223t216 77q130 0 215.5 -77.5t85.5 -222.5q0 -146 -85.5 -224t-215.5 -78z" />
    <glyph glyph-name="plusminus" unicode="&#xb1;" horiz-adv-x="695" 
d="M291 369v184h-185v124h185v184h126v-184h185v-124h-185v-184h-126zM106 0v124h496v-124h-496z" />
    <glyph glyph-name="uni00B2" unicode="&#xb2;" horiz-adv-x="848" 
d="M169 687v90l288 444q9 14 31 47t30.5 46.5t23.5 41.5t21 48.5t11 49.5t5 61q0 184 -133 184q-41 0 -73 -26.5t-48.5 -66.5t-24.5 -78t-8 -69h-115v29q0 154 63.5 232.5t200.5 78.5q126 0 193 -72.5t67 -207.5q0 -64 -18.5 -124.5t-41 -99.5t-67.5 -107l-265 -398h360
v-103h-500z" />
    <glyph glyph-name="uni00B3" unicode="&#xb3;" horiz-adv-x="850" 
d="M439 675q-140 0 -203.5 75t-63.5 217v45h133v-50q0 -174 134 -174q70 0 109.5 48t39.5 143q0 97 -38 157t-105 60h-83v105h80q70 0 106 57.5t36 163.5q0 83 -35 126t-101 43q-140 0 -140 -160v-60h-133v56q0 126 68 199t202 73q131 0 197.5 -74.5t66.5 -209.5
q0 -106 -42.5 -175t-99.5 -83q146 -56 146 -265q0 -146 -69.5 -231.5t-204.5 -85.5z" />
    <glyph glyph-name="acute" unicode="&#xb4;" horiz-adv-x="477" 
d="M97 1258l128 400h151l-201 -400h-78z" />
    <glyph glyph-name="mu" unicode="&#xb5;" horiz-adv-x="861" 
d="M106 -355l-1 1539h151v-918q0 -90 27 -128t85 -38q101 0 210 116v968h150v-1184h-150v131q-107 -127 -244 -143h-8q-43 0 -69 20l1 -363h-152z" />
    <glyph glyph-name="paragraph" unicode="&#xb6;" horiz-adv-x="993" 
d="M410 -194v1279h-4q-158 0 -252 73q-94 74 -95 211q0 138 91 213.5t271 75.5h427v-1852h-110v1768h-218v-1768h-110z" />
    <glyph glyph-name="periodcentered" unicode="&#xb7;" horiz-adv-x="385" 
d="M132 683v180h152v-180h-152z" />
    <glyph glyph-name="cedilla" unicode="&#xb8;" horiz-adv-x="462" 
d="M56 -409v77q41 -5 73 -5q123 0 128 72v9q-1 44 -37 70q-40 28 -115 42v144h79v-104q83 -12 135.5 -57.5t51.5 -107.5q0 -91 -86 -127q-52 -22 -125 -23q-47 0 -104 10z" />
    <glyph glyph-name="uni00B9" unicode="&#xb9;" horiz-adv-x="825" 
d="M404 686l-1 942q-24 -34 -192 -75v91q148 45 214 137h96l1 -1095h-118z" />
    <glyph glyph-name="ordmasculine" unicode="&#xba;" horiz-adv-x="842" 
d="M421 694q-82 0 -139.5 23t-89.5 68.5t-45.5 103.5t-13.5 136v327q0 160 65.5 244.5t222.5 84.5q288 0 288 -329v-327q0 -76 -14.5 -134t-46.5 -103.5t-89 -69.5t-138 -24zM419 798q50 0 83.5 17.5t50.5 52t23 73.5t6 94v307q0 55 -6 94t-23 73t-50.5 51.5t-83.5 17.5
q-49 0 -82.5 -17.5t-50.5 -51.5t-24 -73.5t-7 -93.5v-307q0 -55 6.5 -94t23.5 -73.5t50.5 -52t83.5 -17.5z" />
    <glyph glyph-name="guillemotright" unicode="&#xbb;" horiz-adv-x="901" 
d="M111 176v191l227 284l-227 284v191l352 -442v-67zM446 176v191l226 282l-226 286v191l351 -442v-67z" />
    <glyph glyph-name="onequarter" unicode="&#xbc;" horiz-adv-x="1583" 
d="M1247 -9v279h-311v86l317 649l115 1v-648h126v-88h-126v-279h-121zM255 668v808l-141 -52v92q55 27 114.5 68.5t86.5 73.5h58v-990h-118zM397 0l572 1658h130l-571 -1658h-131zM1038 358h209v469z" />
    <glyph glyph-name="onehalf" unicode="&#xbd;" horiz-adv-x="1583" 
d="M1012 0v88l226 324q6 9 32.5 45t34.5 50t23.5 44.5t21 58.5t5.5 60q0 76 -24 116t-84 40q-67 0 -92 -42.5t-25 -127.5h-117v15q5 244 234 244q109 0 170 -63t61 -179q0 -82 -38.5 -156t-113.5 -171q-12 -14 -98.5 -134.5t-88.5 -122.5h322v-89h-449zM264 668v808
l-142 -52v92q56 27 115 68.5t86 73.5h59v-990h-118zM402 0l572 1658h130l-572 -1658h-130z" />
    <glyph glyph-name="threequarters" unicode="&#xbe;" horiz-adv-x="1583" 
d="M301 748q-109 0 -165.5 61t-56.5 169l123 -2q0 -66 22 -103t80 -37q112 0 112 167q0 169 -131 169v90q67 0 97 38.5t30 130.5q0 149 -99 149q-61 0 -85 -35.5t-24 -103.5l-123 -2q0 108 58 169t173 61q109 0 165.5 -65t56.5 -173q0 -99 -43 -152.5t-112 -60.5
q159 -26 159 -214q0 -118 -61.5 -187t-175.5 -69zM1279 -9v279h-312v86l317 649h114v-647h126v-88h-126v-279h-119zM437 0l572 1658h130l-571 -1658h-131zM1070 358h209v469z" />
    <glyph glyph-name="questiondown" unicode="&#xbf;" horiz-adv-x="944" 
d="M453 -426q-175 0 -283.5 112t-108.5 321q0 99 26 184t80.5 161t119.5 139t161 139v212h132v-253q-189 -137 -281 -277t-92 -308q0 -143 70.5 -221t176.5 -78q117 -1 177 65q43 47 43 121q0 28 -6 59l-14 74l136 29l17 -73q11 -52 11 -98q0 -40 -8 -76
q-18 -76 -68.5 -127.5t-124.5 -78t-164 -26.5zM437 1076v177h149v-177h-149z" />
    <glyph glyph-name="Agrave" unicode="&#xc0;" horiz-adv-x="977" 
d="M450 1798l-189 400h152l114 -400h-77zM56 0l350 1658h164l352 -1658h-153l-82 443h-396l-84 -443h-151zM313 557h353l-177 894z" />
    <glyph glyph-name="Aacute" unicode="&#xc1;" horiz-adv-x="977" 
d="M451 1798l128 400h150l-201 -400h-77zM56 0l350 1658h164l352 -1658h-153l-82 443h-396l-84 -443h-151zM313 557h353l-177 894z" />
    <glyph glyph-name="Acircumflex" unicode="&#xc2;" horiz-adv-x="977" 
d="M229 1798l177 363h168l174 -363h-109l-150 289l-149 -289h-111zM56 0l350 1658h164l352 -1658h-153l-82 443h-396l-84 -443h-151zM313 557h353l-177 894z" />
    <glyph glyph-name="Atilde" unicode="&#xc3;" horiz-adv-x="977" 
d="M595 1799q-44 2 -117 48t-95 48q-31 5 -49 -15.5t-18 -65.5h-94q0 30 7 60t23 60q18 32 52 48q26 13 60 12q10 0 22 -1q33 -3 76 -25.5t80 -45t56 -24.5q34 -4 50 17t17 71h91q0 -34 -6 -63.5t-22 -61t-50 -49.5q-28 -14 -65 -14q-9 0 -18 1zM56 0l350 1658h164
l352 -1658h-153l-82 443h-396l-84 -443h-151zM313 557h353l-177 894z" />
    <glyph glyph-name="Adieresis" unicode="&#xc4;" horiz-adv-x="977" 
d="M244 1798v181h154v-181h-154zM580 1798v181h154v-181h-154zM56 0l350 1658h164l352 -1658h-153l-82 443h-396l-84 -443h-151zM313 557h353l-177 894z" />
    <glyph glyph-name="Aring" unicode="&#xc5;" horiz-adv-x="977" 
d="M489 1663q-83 0 -139 51t-56 144t56 143.5t139 50.5t139.5 -51t56.5 -143q0 -93 -56.5 -144t-139.5 -51zM490 1744q49 0 80 29t31 85q0 57 -31.5 85.5t-80.5 28.5t-80 -29t-31 -85t31.5 -85t80.5 -29zM56 0l350 1658h164l352 -1658h-153l-82 443h-396l-84 -443h-151z
M313 557h353l-177 894z" />
    <glyph glyph-name="AE" unicode="&#xc6;" horiz-adv-x="1338" 
d="M-17 0l665 1658h622v-123h-444v-612h317v-118h-317v-682h444v-123h-600v444h-349l-173 -444h-165zM365 562h304v834z" />
    <glyph glyph-name="Ccedilla" unicode="&#xc7;" horiz-adv-x="1021" 
d="M416 -409v77q41 -5 73 -5q123 0 128 72v9q-1 44 -37 70q-40 28 -115 42v144h79v-104q83 -12 135.5 -57.5t51.5 -107.5q0 -91 -86 -127q-52 -22 -125 -23q-47 0 -104 10zM531 -21q-98 0 -172.5 27t-121 72t-75.5 113t-40 142t-11 166v659q0 96 11.5 171.5t41 142
t76.5 110.5t120.5 69t170.5 25q109 0 186 -32.5t122 -95.5t65 -147t20 -196v-102h-148v97q0 88 -9 147t-34.5 108.5t-75 73t-125.5 23.5q-82 0 -135.5 -26t-80.5 -79t-37 -115.5t-10 -153.5v-704q0 -193 57.5 -281t205.5 -88q61 0 105 17.5t70.5 46.5t42 76.5t21 98
t5.5 120.5v108h148v-97q0 -91 -11 -163.5t-38.5 -136.5t-71.5 -106t-112.5 -66t-159.5 -24z" />
    <glyph glyph-name="Egrave" unicode="&#xc8;" 
d="M408 1798l-189 400h152l114 -400h-77zM144 0v1658h599v-120h-442v-621h362v-116h-362v-684h447v-117h-604z" />
    <glyph glyph-name="Eacute" unicode="&#xc9;" 
d="M407 1798l128 400h150l-201 -400h-77zM144 0v1658h599v-120h-442v-621h362v-116h-362v-684h447v-117h-604z" />
    <glyph glyph-name="Ecircumflex" unicode="&#xca;" 
d="M187 1798l177 363h168l174 -363h-109l-150 289l-149 -289h-111zM144 0v1658h599v-120h-442v-621h362v-116h-362v-684h447v-117h-604z" />
    <glyph glyph-name="Edieresis" unicode="&#xcb;" 
d="M201 1798v181h154v-181h-154zM537 1798v181h154v-181h-154zM144 0v1658h599v-120h-442v-621h362v-116h-362v-684h447v-117h-604z" />
    <glyph glyph-name="Igrave" unicode="&#xcc;" horiz-adv-x="454" 
d="M190 1798l-189 400h152l114 -400h-77zM151 0v1658h154v-1658h-154z" />
    <glyph glyph-name="Iacute" unicode="&#xcd;" horiz-adv-x="454" 
d="M189 1798l128 400h150l-201 -400h-77zM151 0v1658h154v-1658h-154z" />
    <glyph glyph-name="Icircumflex" unicode="&#xce;" horiz-adv-x="454" 
d="M-31 1798l177 363h168l174 -363h-109l-150 289l-149 -289h-111zM151 0v1658h154v-1658h-154z" />
    <glyph glyph-name="Idieresis" unicode="&#xcf;" horiz-adv-x="454" 
d="M-17 1798v181h154v-181h-154zM319 1798v181h154v-181h-154zM151 0v1658h154v-1658h-154z" />
    <glyph glyph-name="Eth" unicode="&#xd0;" horiz-adv-x="1078" 
d="M312 117h209q77 0 130.5 21.5t84 55t47.5 91.5t21.5 113.5t4.5 137.5v619q0 80 -6.5 136t-25 105.5t-51 79t-85 46t-125.5 16.5h-204v-621h166v-96h-166v-704zM155 0v821h-121v96h121v741h363q101 0 178.5 -23t128.5 -64t83 -103t45.5 -134t13.5 -163v-659
q0 -121 -22 -212t-72 -160t-135.5 -104.5t-207.5 -35.5h-375z" />
    <glyph glyph-name="Ntilde" unicode="&#xd1;" horiz-adv-x="1065" 
d="M639 1799q-44 2 -117 48t-95 48q-31 5 -49 -15.5t-18 -65.5h-94q0 30 7 60t23 60q18 32 52 48q26 13 60 12q10 0 22 -1q33 -3 76 -25.5t80 -45t56 -24.5q34 -4 50 17t17 71h91q0 -34 -6 -63.5t-22 -61t-50 -49.5q-28 -14 -65 -14q-9 0 -18 1zM144 0v1658h115l528 -1287
v1287h134v-1658h-110l-532 1302v-1302h-135z" />
    <glyph glyph-name="Ograve" unicode="&#xd2;" horiz-adv-x="1074" 
d="M498 1798l-189 400h152l114 -400h-77zM537 105q80 0 134 24.5t82.5 73.5t40 109t11.5 144v750q0 84 -11.5 143.5t-40 107.5t-82.5 71.5t-134 23.5t-134 -23.5t-82.5 -71.5t-40 -107.5t-11.5 -143.5v-750q0 -84 11.5 -144t40 -109t82.5 -73.5t134 -24.5zM537 -21
q-120 0 -204.5 36.5t-132 107t-68.5 160t-21 207.5v688q0 117 21.5 205t70 155.5t132.5 102.5t202 35t202 -35t132.5 -103t70 -156t21.5 -204v-690q0 -93 -12.5 -168t-43 -140t-78.5 -108.5t-122 -68t-170 -24.5z" />
    <glyph glyph-name="Oacute" unicode="&#xd3;" horiz-adv-x="1074" 
d="M499 1798l128 400h150l-201 -400h-77zM537 105q80 0 134 24.5t82.5 73.5t40 109t11.5 144v750q0 84 -11.5 143.5t-40 107.5t-82.5 71.5t-134 23.5t-134 -23.5t-82.5 -71.5t-40 -107.5t-11.5 -143.5v-750q0 -84 11.5 -144t40 -109t82.5 -73.5t134 -24.5zM537 -21
q-120 0 -204.5 36.5t-132 107t-68.5 160t-21 207.5v688q0 117 21.5 205t70 155.5t132.5 102.5t202 35t202 -35t132.5 -103t70 -156t21.5 -204v-690q0 -93 -12.5 -168t-43 -140t-78.5 -108.5t-122 -68t-170 -24.5z" />
    <glyph glyph-name="Ocircumflex" unicode="&#xd4;" horiz-adv-x="1074" 
d="M277 1798l177 363h168l174 -363h-109l-150 289l-149 -289h-111zM537 105q80 0 134 24.5t82.5 73.5t40 109t11.5 144v750q0 84 -11.5 143.5t-40 107.5t-82.5 71.5t-134 23.5t-134 -23.5t-82.5 -71.5t-40 -107.5t-11.5 -143.5v-750q0 -84 11.5 -144t40 -109t82.5 -73.5
t134 -24.5zM537 -21q-120 0 -204.5 36.5t-132 107t-68.5 160t-21 207.5v688q0 117 21.5 205t70 155.5t132.5 102.5t202 35t202 -35t132.5 -103t70 -156t21.5 -204v-690q0 -93 -12.5 -168t-43 -140t-78.5 -108.5t-122 -68t-170 -24.5z" />
    <glyph glyph-name="Otilde" unicode="&#xd5;" horiz-adv-x="1074" 
d="M643 1799q-44 2 -117 48t-95 48q-31 5 -49 -15.5t-18 -65.5h-94q0 30 7 60t23 60q18 32 52 48q26 13 60 12q10 0 22 -1q33 -3 76 -25.5t80 -45t56 -24.5q34 -4 50 17t17 71h91q0 -34 -6 -63.5t-22 -61t-50 -49.5q-28 -14 -65 -14q-9 0 -18 1zM537 105q80 0 134 24.5
t82.5 73.5t40 109t11.5 144v750q0 84 -11.5 143.5t-40 107.5t-82.5 71.5t-134 23.5t-134 -23.5t-82.5 -71.5t-40 -107.5t-11.5 -143.5v-750q0 -84 11.5 -144t40 -109t82.5 -73.5t134 -24.5zM537 -21q-120 0 -204.5 36.5t-132 107t-68.5 160t-21 207.5v688q0 117 21.5 205
t70 155.5t132.5 102.5t202 35t202 -35t132.5 -103t70 -156t21.5 -204v-690q0 -93 -12.5 -168t-43 -140t-78.5 -108.5t-122 -68t-170 -24.5z" />
    <glyph glyph-name="Odieresis" unicode="&#xd6;" horiz-adv-x="1074" 
d="M292 1798v181h154v-181h-154zM628 1798v181h154v-181h-154zM537 105q80 0 134 24.5t82.5 73.5t40 109t11.5 144v750q0 84 -11.5 143.5t-40 107.5t-82.5 71.5t-134 23.5t-134 -23.5t-82.5 -71.5t-40 -107.5t-11.5 -143.5v-750q0 -84 11.5 -144t40 -109t82.5 -73.5
t134 -24.5zM537 -21q-120 0 -204.5 36.5t-132 107t-68.5 160t-21 207.5v688q0 117 21.5 205t70 155.5t132.5 102.5t202 35t202 -35t132.5 -103t70 -156t21.5 -204v-690q0 -93 -12.5 -168t-43 -140t-78.5 -108.5t-122 -68t-170 -24.5z" />
    <glyph glyph-name="multiply" unicode="&#xd7;" horiz-adv-x="724" 
d="M161 524l-78 77l201 202l-201 201l78 77l201 -201l201 201l78 -77l-202 -201l202 -202l-78 -77l-201 201z" />
    <glyph glyph-name="Oslash" unicode="&#xd8;" horiz-adv-x="1084" 
d="M537 105q80 0 134 24.5t82.5 73.5t40 109t11.5 144v750q0 84 -11.5 143.5t-39.5 107.5q-2 3 -5 7l-371 -1321q12 -7 25 -13q54 -24 134 -25zM288 -178l-62 19l57 201q-51 32 -83 80q-48 70 -68.5 160t-20.5 208v688q0 117 21.5 205t70 155.5t132.5 102.5t202 35
q114 0 196 -32l50 179l63 -16l-54 -193q48 -31 80 -76q48 -68 69.5 -156t21.5 -204v-690q0 -93 -12.5 -168t-43 -140t-78.5 -108.5t-122 -68t-170 -24.5q-114 0 -196 33zM696 1515q-12 7 -25 13q-54 24 -134 24t-134 -23.5t-82.5 -71.5t-40 -107.5t-11.5 -143.5v-750
q0 -84 11.5 -144t39.5 -109q2 -4 5 -8z" />
    <glyph glyph-name="Ugrave" unicode="&#xd9;" horiz-adv-x="1100" 
d="M512 1798l-189 400h152l114 -400h-77zM551 -21q-99 0 -174 23t-122 63.5t-76 101.5t-40.5 129.5t-11.5 156.5v1205h151v-1210q0 -62 7 -111t25 -93.5t48 -74t79 -47t114 -17.5q78 0 132.5 25.5t84 74t42.5 107.5t13 136v1210h150v-1205q0 -87 -12 -156t-42 -130
t-77.5 -101.5t-121 -63.5t-169.5 -23z" />
    <glyph glyph-name="Uacute" unicode="&#xda;" horiz-adv-x="1100" 
d="M511 1798l128 400h150l-201 -400h-77zM551 -21q-99 0 -174 23t-122 63.5t-76 101.5t-40.5 129.5t-11.5 156.5v1205h151v-1210q0 -62 7 -111t25 -93.5t48 -74t79 -47t114 -17.5q78 0 132.5 25.5t84 74t42.5 107.5t13 136v1210h150v-1205q0 -87 -12 -156t-42 -130
t-77.5 -101.5t-121 -63.5t-169.5 -23z" />
    <glyph glyph-name="Ucircumflex" unicode="&#xdb;" horiz-adv-x="1100" 
d="M291 1798l177 363h168l174 -363h-109l-150 289l-149 -289h-111zM551 -21q-99 0 -174 23t-122 63.5t-76 101.5t-40.5 129.5t-11.5 156.5v1205h151v-1210q0 -62 7 -111t25 -93.5t48 -74t79 -47t114 -17.5q78 0 132.5 25.5t84 74t42.5 107.5t13 136v1210h150v-1205
q0 -87 -12 -156t-42 -130t-77.5 -101.5t-121 -63.5t-169.5 -23z" />
    <glyph glyph-name="Udieresis" unicode="&#xdc;" horiz-adv-x="1100" 
d="M305 1798v181h154v-181h-154zM641 1798v181h154v-181h-154zM551 -21q-99 0 -174 23t-122 63.5t-76 101.5t-40.5 129.5t-11.5 156.5v1205h151v-1210q0 -62 7 -111t25 -93.5t48 -74t79 -47t114 -17.5q78 0 132.5 25.5t84 74t42.5 107.5t13 136v1210h150v-1205
q0 -87 -12 -156t-42 -130t-77.5 -101.5t-121 -63.5t-169.5 -23z" />
    <glyph glyph-name="Yacute" unicode="&#xdd;" horiz-adv-x="961" 
d="M442 1798l128 400h150l-201 -400h-77zM409 0v551l-374 1107h153l298 -921l287 921h153l-365 -1107v-551h-152z" />
    <glyph glyph-name="Thorn" unicode="&#xde;" horiz-adv-x="1033" 
d="M144 0v1658h157v-214h284q105 0 182 -35.5t122 -99.5t66.5 -145.5t21.5 -182.5q0 -79 -12.5 -147.5t-42.5 -131t-76 -106.5t-118 -70t-164 -26h-263v-500h-157zM301 630h231q150 0 219.5 81t69.5 268q0 177 -68 255t-205 78h-247v-682z" />
    <glyph glyph-name="germandbls" unicode="&#xdf;" horiz-adv-x="978" 
d="M379 -21v126q92 0 160.5 21t109 55t64.5 85t32.5 101.5t8.5 114.5q0 74 -15.5 136t-49 113t-92.5 79.5t-140 28.5l3 125q61 0 105 25.5t68 71.5t35 100t11 120q0 142 -48.5 215.5t-159.5 73.5q-72 0 -115.5 -27.5t-66.5 -97.5t-23 -191v-1254h-150v1251q0 233 85 336.5
t258 103.5q176 0 271 -104.5t95 -305.5q0 -290 -200 -369q141 -33 209 -148.5t68 -277.5q0 -507 -523 -507z" />
    <glyph glyph-name="agrave" unicode="&#xe0;" horiz-adv-x="813" 
d="M362 1324l-189 400h152l114 -400h-77zM319 -19q-104 0 -171 76.5t-67 189.5q0 59 10 105.5t37.5 87.5t60 72.5t92.5 67t120 65.5t157 73v85q0 163 -31 224.5t-116 61.5q-164 0 -164 -203v-43l-148 5q0 29 1 36q7 167 87 242.5t232 75.5q157 0 223 -93t66 -298v-576
q0 -143 11 -235h-133l-22 164q-27 -78 -91.5 -130.5t-153.5 -52.5zM368 110q60 0 110.5 41.5t79.5 98.5v369q-6 -3 -19 -10q-49 -26 -75 -40t-62.5 -35t-54.5 -35t-41.5 -34t-34 -37.5t-21.5 -40.5t-15 -48.5t-4 -56.5q0 -87 39 -129.5t98 -42.5z" />
    <glyph glyph-name="aacute" unicode="&#xe1;" horiz-adv-x="813" 
d="M361 1324l128 400h150l-201 -400h-77zM319 -19q-104 0 -171 76.5t-67 189.5q0 59 10 105.5t37.5 87.5t60 72.5t92.5 67t120 65.5t157 73v85q0 163 -31 224.5t-116 61.5q-164 0 -164 -203v-43l-148 5q0 29 1 36q7 167 87 242.5t232 75.5q157 0 223 -93t66 -298v-576
q0 -143 11 -235h-133l-22 164q-27 -78 -91.5 -130.5t-153.5 -52.5zM368 110q60 0 110.5 41.5t79.5 98.5v369q-6 -3 -19 -10q-49 -26 -75 -40t-62.5 -35t-54.5 -35t-41.5 -34t-34 -37.5t-21.5 -40.5t-15 -48.5t-4 -56.5q0 -87 39 -129.5t98 -42.5z" />
    <glyph glyph-name="acircumflex" unicode="&#xe2;" horiz-adv-x="813" 
d="M141 1324l177 363h168l174 -363h-109l-150 289l-149 -289h-111zM319 -19q-104 0 -171 76.5t-67 189.5q0 59 10 105.5t37.5 87.5t60 72.5t92.5 67t120 65.5t157 73v85q0 163 -31 224.5t-116 61.5q-164 0 -164 -203v-43l-148 5q0 29 1 36q7 167 87 242.5t232 75.5
q157 0 223 -93t66 -298v-576q0 -143 11 -235h-133l-22 164q-27 -78 -91.5 -130.5t-153.5 -52.5zM368 110q60 0 110.5 41.5t79.5 98.5v369q-6 -3 -19 -10q-49 -26 -75 -40t-62.5 -35t-54.5 -35t-41.5 -34t-34 -37.5t-21.5 -40.5t-15 -48.5t-4 -56.5q0 -87 39 -129.5t98 -42.5
z" />
    <glyph glyph-name="atilde" unicode="&#xe3;" horiz-adv-x="813" 
d="M506 1325q-44 2 -117 48t-95 48q-31 5 -49 -15.5t-18 -65.5h-94q0 30 7 60t23 60q18 32 52 48q26 13 60 12q10 0 22 -1q33 -3 76 -25.5t80 -45t56 -24.5q34 -4 50 17t17 71h91q0 -34 -6 -63.5t-22 -61t-50 -49.5q-28 -14 -65 -14q-9 0 -18 1zM319 -19q-104 0 -171 76.5
t-67 189.5q0 59 10 105.5t37.5 87.5t60 72.5t92.5 67t120 65.5t157 73v85q0 163 -31 224.5t-116 61.5q-164 0 -164 -203v-43l-148 5q0 29 1 36q7 167 87 242.5t232 75.5q157 0 223 -93t66 -298v-576q0 -143 11 -235h-133l-22 164q-27 -78 -91.5 -130.5t-153.5 -52.5z
M368 110q60 0 110.5 41.5t79.5 98.5v369q-6 -3 -19 -10q-49 -26 -75 -40t-62.5 -35t-54.5 -35t-41.5 -34t-34 -37.5t-21.5 -40.5t-15 -48.5t-4 -56.5q0 -87 39 -129.5t98 -42.5z" />
    <glyph glyph-name="adieresis" unicode="&#xe4;" horiz-adv-x="813" 
d="M155 1324v181h154v-181h-154zM491 1324v181h154v-181h-154zM319 -19q-104 0 -171 76.5t-67 189.5q0 59 10 105.5t37.5 87.5t60 72.5t92.5 67t120 65.5t157 73v85q0 163 -31 224.5t-116 61.5q-164 0 -164 -203v-43l-148 5q0 29 1 36q7 167 87 242.5t232 75.5
q157 0 223 -93t66 -298v-576q0 -143 11 -235h-133l-22 164q-27 -78 -91.5 -130.5t-153.5 -52.5zM368 110q60 0 110.5 41.5t79.5 98.5v369q-6 -3 -19 -10q-49 -26 -75 -40t-62.5 -35t-54.5 -35t-41.5 -34t-34 -37.5t-21.5 -40.5t-15 -48.5t-4 -56.5q0 -87 39 -129.5t98 -42.5
z" />
    <glyph glyph-name="aring" unicode="&#xe5;" horiz-adv-x="813" 
d="M399 1324q-83 0 -139 51t-56 144t56 143.5t139 50.5t139.5 -51t56.5 -143q0 -93 -56.5 -144t-139.5 -51zM400 1405q49 0 80 29t31 85q0 57 -31.5 85.5t-80.5 28.5t-80 -29t-31 -85t31.5 -85t80.5 -29zM319 -19q-104 0 -171 76.5t-67 189.5q0 59 10 105.5t37.5 87.5
t60 72.5t92.5 67t120 65.5t157 73v85q0 163 -31 224.5t-116 61.5q-164 0 -164 -203v-43l-148 5q0 29 1 36q7 167 87 242.5t232 75.5q157 0 223 -93t66 -298v-576q0 -143 11 -235h-133l-22 164q-27 -78 -91.5 -130.5t-153.5 -52.5zM368 110q60 0 110.5 41.5t79.5 98.5v369
q-6 -3 -19 -10q-49 -26 -75 -40t-62.5 -35t-54.5 -35t-41.5 -34t-34 -37.5t-21.5 -40.5t-15 -48.5t-4 -56.5q0 -87 39 -129.5t98 -42.5z" />
    <glyph glyph-name="ae" unicode="&#xe6;" horiz-adv-x="1274" 
d="M318 -19q-105 4 -171 79t-66 187q0 134 67.5 219.5t242.5 143.5l171 55v138q0 156 -34 219.5t-117 63.5q-78 0 -123.5 -52t-45.5 -165l-146 2q1 160 83.5 245.5t232.5 85.5q89 0 149.5 -45.5t75.5 -130.5q26 89 92 132.5t154 43.5q142 0 218 -83t76 -221q0 -96 -69 -149
t-198 -88l-197 -60v-119q0 -193 36 -287t132 -94q73 0 114.5 52t41.5 182v70h149v-69q0 -170 -71.5 -262.5t-234.5 -92.5q-103 0 -174 60t-87 181q-37 -122 -119 -184q-76 -57 -167 -57h-15zM368 99q81 0 137.5 82.5t56.5 258.5v132q-8 -2 -67 -25t-62 -24
q-122 -49 -163 -105q-40 -54 -40 -143t42 -133q40 -43 96 -43zM713 691l173 55q86 25 119.5 60t33.5 104q0 74 -37.5 122.5t-118.5 48.5q-90 0 -130 -65t-40 -219v-106z" />
    <glyph glyph-name="ccedilla" unicode="&#xe7;" horiz-adv-x="796" 
d="M316 -409v77q41 -5 73 -5q123 0 128 72v9q-1 44 -37 70q-40 28 -115 42v144h79v-104q83 -12 135.5 -57.5t51.5 -107.5q0 -91 -86 -127q-52 -22 -125 -23q-47 0 -104 10zM409 -19q-81 0 -139 24t-92 62.5t-53.5 101.5t-26 127.5t-6.5 152.5v276q0 129 14 214.5t49.5 146.5
t97 88.5t155.5 27.5q74 0 128 -18t87.5 -49.5t53 -80.5t27 -103.5t7.5 -127.5v-56h-139v56q0 152 -36 209.5t-126 57.5q-102 0 -135 -72.5t-33 -267.5v-332q0 -182 35.5 -253t133.5 -71q42 0 71 12t46.5 33t27.5 58t13 78.5t3 104.5v65h139v-58q0 -78 -6.5 -135t-26 -110.5
t-52 -87t-87.5 -53.5t-130 -20z" />
    <glyph glyph-name="egrave" unicode="&#xe8;" horiz-adv-x="809" 
d="M368 1324l-189 400h152l114 -400h-77zM412 -19q-170 0 -245 105t-75 359v299q0 173 35.5 274.5t104 142.5t181.5 41q75 0 128 -19.5t88 -55.5t55.5 -97.5t28.5 -136t8 -179.5l-1 -107h-478v-177q0 -184 35.5 -260t133.5 -76q78 0 120 49.5t42 179.5v82h147v-66
q0 -172 -72 -265t-236 -93zM242 693h331v98q0 62 -3 103t-12.5 81.5t-26.5 63.5t-47 37t-72 14q-95 0 -132.5 -66t-37.5 -251v-80z" />
    <glyph glyph-name="eacute" unicode="&#xe9;" horiz-adv-x="809" 
d="M368 1324l128 400h150l-201 -400h-77zM412 -19q-170 0 -245 105t-75 359v299q0 173 35.5 274.5t104 142.5t181.5 41q75 0 128 -19.5t88 -55.5t55.5 -97.5t28.5 -136t8 -179.5l-1 -107h-478v-177q0 -184 35.5 -260t133.5 -76q78 0 120 49.5t42 179.5v82h147v-66
q0 -172 -72 -265t-236 -93zM242 693h331v98q0 62 -3 103t-12.5 81.5t-26.5 63.5t-47 37t-72 14q-95 0 -132.5 -66t-37.5 -251v-80z" />
    <glyph glyph-name="ecircumflex" unicode="&#xea;" horiz-adv-x="809" 
d="M147 1324l177 363h168l174 -363h-109l-150 289l-149 -289h-111zM412 -19q-170 0 -245 105t-75 359v299q0 173 35.5 274.5t104 142.5t181.5 41q75 0 128 -19.5t88 -55.5t55.5 -97.5t28.5 -136t8 -179.5l-1 -107h-478v-177q0 -184 35.5 -260t133.5 -76q78 0 120 49.5
t42 179.5v82h147v-66q0 -172 -72 -265t-236 -93zM242 693h331v98q0 62 -3 103t-12.5 81.5t-26.5 63.5t-47 37t-72 14q-95 0 -132.5 -66t-37.5 -251v-80z" />
    <glyph glyph-name="edieresis" unicode="&#xeb;" horiz-adv-x="809" 
d="M162 1324v181h154v-181h-154zM498 1324v181h154v-181h-154zM412 -19q-170 0 -245 105t-75 359v299q0 173 35.5 274.5t104 142.5t181.5 41q75 0 128 -19.5t88 -55.5t55.5 -97.5t28.5 -136t8 -179.5l-1 -107h-478v-177q0 -184 35.5 -260t133.5 -76q78 0 120 49.5t42 179.5
v82h147v-66q0 -172 -72 -265t-236 -93zM242 693h331v98q0 62 -3 103t-12.5 81.5t-26.5 63.5t-47 37t-72 14q-95 0 -132.5 -66t-37.5 -251v-80z" />
    <glyph glyph-name="igrave" unicode="&#xec;" horiz-adv-x="405" 
d="M166 1324l-189 400h152l114 -400h-77zM130 0v1184h150v-1184h-150z" />
    <glyph glyph-name="iacute" unicode="&#xed;" horiz-adv-x="405" 
d="M167 1324l128 400h150l-201 -400h-77zM130 0v1184h150v-1184h-150z" />
    <glyph glyph-name="icircumflex" unicode="&#xee;" horiz-adv-x="405" 
d="M-55 1324l177 363h168l174 -363h-109l-150 289l-149 -289h-111zM130 0v1184h150v-1184h-150z" />
    <glyph glyph-name="idieresis" unicode="&#xef;" horiz-adv-x="405" 
d="M-40 1324v181h154v-181h-154zM296 1324v181h154v-181h-154zM130 0v1184h150v-1184h-150z" />
    <glyph glyph-name="eth" unicode="&#xf0;" horiz-adv-x="912" 
d="M793 500q0 -262 -77 -391.5t-266 -129.5q-97 0 -164.5 32.5t-105 97.5t-53.5 149t-16 200v153q0 261 75 395t240 134q103 0 201 -63q-23 193 -72 278l-222 -64v85l181 49q-43 76 -127 115t-224 48l8 100q175 -5 287 -57t175 -167l193 54v-85l-154 -41q43 -95 82 -283.5
t39 -393.5v-215zM259 548q0 -89 4.5 -153.5t17 -123t34 -94.5t56.5 -56.5t83 -20.5q50 0 84.5 17t55.5 47.5t32 86.5t15 119t4 161q0 51 -6 235t-8 194q-3 2 -25.5 14t-32.5 16.5t-30.5 12.5t-40 11.5t-40.5 3.5q-106 0 -154.5 -108.5t-48.5 -361.5z" />
    <glyph glyph-name="ntilde" unicode="&#xf1;" horiz-adv-x="838" 
d="M529 1325q-44 2 -117 48t-95 48q-31 5 -49 -15.5t-18 -65.5h-94q0 30 7 60t23 60q18 32 52 48q26 13 60 12q10 0 22 -1q33 -3 76 -25.5t80 -45t56 -24.5q34 -4 50 17t17 71h91q0 -34 -6 -63.5t-22 -61t-50 -49.5q-28 -14 -65 -14q-9 0 -18 1zM114 0v1184h150v-123
q131 141 285 141q88 0 135 -65.5t47 -186.5v-950h-150v918q0 90 -27.5 128t-85.5 38q-97 0 -204 -109v-975h-150z" />
    <glyph glyph-name="ograve" unicode="&#xf2;" 
d="M370 1324l-189 400h152l114 -400h-77zM408 94q45 0 76 16.5t48.5 41.5t26.5 71t11.5 88t2.5 109v344q0 67 -2.5 109t-11.5 88t-26.5 71t-48.5 41.5t-76 16.5q-38 0 -66 -10t-46 -32.5t-29 -48t-16.5 -66.5t-7 -77.5t-1.5 -91.5v-344q0 -55 1.5 -91.5t7 -77.5t16.5 -66.5
t29 -48t46 -32.5t66 -10zM408 -19q-91 0 -153 29t-97.5 88t-50.5 138.5t-15 191.5v328q0 226 70 336t246 110q177 0 246.5 -109.5t69.5 -336.5v-328q0 -112 -15 -191.5t-50.5 -138.5t-97.5 -88t-153 -29z" />
    <glyph glyph-name="oacute" unicode="&#xf3;" 
d="M369 1324l128 400h150l-201 -400h-77zM408 94q45 0 76 16.5t48.5 41.5t26.5 71t11.5 88t2.5 109v344q0 67 -2.5 109t-11.5 88t-26.5 71t-48.5 41.5t-76 16.5q-38 0 -66 -10t-46 -32.5t-29 -48t-16.5 -66.5t-7 -77.5t-1.5 -91.5v-344q0 -55 1.5 -91.5t7 -77.5t16.5 -66.5
t29 -48t46 -32.5t66 -10zM408 -19q-91 0 -153 29t-97.5 88t-50.5 138.5t-15 191.5v328q0 226 70 336t246 110q177 0 246.5 -109.5t69.5 -336.5v-328q0 -112 -15 -191.5t-50.5 -138.5t-97.5 -88t-153 -29z" />
    <glyph glyph-name="ocircumflex" unicode="&#xf4;" 
d="M149 1324l177 363h168l174 -363h-109l-150 289l-149 -289h-111zM408 94q45 0 76 16.5t48.5 41.5t26.5 71t11.5 88t2.5 109v344q0 67 -2.5 109t-11.5 88t-26.5 71t-48.5 41.5t-76 16.5q-38 0 -66 -10t-46 -32.5t-29 -48t-16.5 -66.5t-7 -77.5t-1.5 -91.5v-344
q0 -55 1.5 -91.5t7 -77.5t16.5 -66.5t29 -48t46 -32.5t66 -10zM408 -19q-91 0 -153 29t-97.5 88t-50.5 138.5t-15 191.5v328q0 226 70 336t246 110q177 0 246.5 -109.5t69.5 -336.5v-328q0 -112 -15 -191.5t-50.5 -138.5t-97.5 -88t-153 -29z" />
    <glyph glyph-name="otilde" unicode="&#xf5;" 
d="M514 1325q-44 2 -117 48t-95 48q-31 5 -49 -15.5t-18 -65.5h-94q0 30 7 60t23 60q18 32 52 48q26 13 60 12q10 0 22 -1q33 -3 76 -25.5t80 -45t56 -24.5q34 -4 50 17t17 71h91q0 -34 -6 -63.5t-22 -61t-50 -49.5q-28 -14 -65 -14q-9 0 -18 1zM408 94q45 0 76 16.5
t48.5 41.5t26.5 71t11.5 88t2.5 109v344q0 67 -2.5 109t-11.5 88t-26.5 71t-48.5 41.5t-76 16.5q-38 0 -66 -10t-46 -32.5t-29 -48t-16.5 -66.5t-7 -77.5t-1.5 -91.5v-344q0 -55 1.5 -91.5t7 -77.5t16.5 -66.5t29 -48t46 -32.5t66 -10zM408 -19q-91 0 -153 29t-97.5 88
t-50.5 138.5t-15 191.5v328q0 226 70 336t246 110q177 0 246.5 -109.5t69.5 -336.5v-328q0 -112 -15 -191.5t-50.5 -138.5t-97.5 -88t-153 -29z" />
    <glyph glyph-name="odieresis" unicode="&#xf6;" 
d="M163 1324v181h154v-181h-154zM499 1324v181h154v-181h-154zM408 94q45 0 76 16.5t48.5 41.5t26.5 71t11.5 88t2.5 109v344q0 67 -2.5 109t-11.5 88t-26.5 71t-48.5 41.5t-76 16.5q-38 0 -66 -10t-46 -32.5t-29 -48t-16.5 -66.5t-7 -77.5t-1.5 -91.5v-344q0 -55 1.5 -91.5
t7 -77.5t16.5 -66.5t29 -48t46 -32.5t66 -10zM408 -19q-91 0 -153 29t-97.5 88t-50.5 138.5t-15 191.5v328q0 226 70 336t246 110q177 0 246.5 -109.5t69.5 -336.5v-328q0 -112 -15 -191.5t-50.5 -138.5t-97.5 -88t-153 -29z" />
    <glyph glyph-name="divide" unicode="&#xf7;" horiz-adv-x="690" 
d="M280 402v185h129v-185h-129zM53 794v114h584v-114h-584zM280 1091v185h129v-185h-129z" />
    <glyph glyph-name="oslash" unicode="&#xf8;" 
d="M408 94q45 0 76 16.5t48.5 41.5t26.5 71t11.5 88t2.5 109v344q-1 67 -3 109q-1 19 -3 38l-280 -762q4 -7 9 -13q18 -22 46 -32t66 -10zM408 -19q-91 0 -153 29l-16 8l-65 -175l-50 18l70 191q-20 20 -36 46q-36 59 -51 138.5t-15 191.5v328q0 226 70 336t246 110
q116 0 186 -47l62 169l56 -19l-71 -193q7 -10 13 -20q70 -110 70 -336v-328q0 -112 -15 -191.5t-50.5 -138.5t-97.5 -88t-153 -29zM543 1013q-5 10 -11 19q-18 25 -48.5 41.5t-75.5 16.5q-38 0 -66 -10t-46 -32.5t-29 -48t-16.5 -66.5t-7 -77.5t-1.5 -91.5v-344q0 -55 2 -92
q0 -36 6 -77q2 -15 5 -29z" />
    <glyph glyph-name="ugrave" unicode="&#xf9;" horiz-adv-x="843" 
d="M378 1324l-189 400h152l114 -400h-77zM288 -18q-89 0 -136 66t-47 187v949h151v-918q0 -90 27 -128t85 -38q101 0 210 116v968h150v-1184h-150v131q-132 -149 -290 -149z" />
    <glyph glyph-name="uacute" unicode="&#xfa;" horiz-adv-x="843" 
d="M378 1324l128 400h150l-201 -400h-77zM288 -18q-89 0 -136 66t-47 187v949h151v-918q0 -90 27 -128t85 -38q101 0 210 116v968h150v-1184h-150v131q-132 -149 -290 -149z" />
    <glyph glyph-name="ucircumflex" unicode="&#xfb;" horiz-adv-x="843" 
d="M157 1324l177 363h168l174 -363h-109l-150 289l-149 -289h-111zM288 -18q-89 0 -136 66t-47 187v949h151v-918q0 -90 27 -128t85 -38q101 0 210 116v968h150v-1184h-150v131q-132 -149 -290 -149z" />
    <glyph glyph-name="udieresis" unicode="&#xfc;" horiz-adv-x="843" 
d="M172 1324v181h154v-181h-154zM508 1324v181h154v-181h-154zM288 -18q-89 0 -136 66t-47 187v949h151v-918q0 -90 27 -128t85 -38q101 0 210 116v968h150v-1184h-150v131q-132 -149 -290 -149z" />
    <glyph glyph-name="yacute" unicode="&#xfd;" horiz-adv-x="780" 
d="M354 1324l128 400h150l-201 -400h-77zM82 -295v117q108 0 162 17t68 48q9 20 10 52q0 17 -3 38q-5 37 -35 164q-24 99 -131 559t-113 484h150l206 -1007l198 1007h151l-287 -1269q-26 -113 -105.5 -161.5t-231.5 -48.5h-39z" />
    <glyph glyph-name="thorn" unicode="&#xfe;" horiz-adv-x="853" 
d="M116 -390v2048h150v-573q95 117 227 117q66 0 115.5 -27t78 -70t46 -107t23 -126.5t5.5 -141.5v-250q0 -94 -8 -168t-28 -137.5t-52.5 -105t-81.5 -65t-114 -23.5q-115 0 -211 113v-484h-150zM453 100q40 0 68 16.5t45.5 45t27.5 77.5t13.5 104.5t3.5 134.5v252
q0 190 -32 272t-129 82q-91 0 -184 -91v-807q82 -86 187 -86z" />
    <glyph glyph-name="ydieresis" unicode="&#xff;" horiz-adv-x="780" 
d="M148 1324v181h154v-181h-154zM484 1324v181h154v-181h-154zM82 -295v117q108 0 162 17t68 48q9 20 10 52q0 17 -3 38q-5 37 -35 164q-24 99 -131 559t-113 484h150l206 -1007l198 1007h151l-287 -1269q-26 -113 -105.5 -161.5t-231.5 -48.5h-39z" />
    <glyph glyph-name="Amacron" unicode="&#x100;" horiz-adv-x="977" 
d="M306 1798v96h367v-96h-367zM56 0l350 1658h164l352 -1658h-153l-82 443h-396l-84 -443h-151zM313 557h353l-177 894z" />
    <glyph glyph-name="amacron" unicode="&#x101;" horiz-adv-x="813" 
d="M216 1324v96h367v-96h-367zM319 -19q-104 0 -171 76.5t-67 189.5q0 59 10 105.5t37.5 87.5t60 72.5t92.5 67t120 65.5t157 73v85q0 163 -31 224.5t-116 61.5q-164 0 -164 -203v-43l-148 5q0 29 1 36q7 167 87 242.5t232 75.5q157 0 223 -93t66 -298v-576q0 -143 11 -235
h-133l-22 164q-27 -78 -91.5 -130.5t-153.5 -52.5zM368 110q60 0 110.5 41.5t79.5 98.5v369q-6 -3 -19 -10q-49 -26 -75 -40t-62.5 -35t-54.5 -35t-41.5 -34t-34 -37.5t-21.5 -40.5t-15 -48.5t-4 -56.5q0 -87 39 -129.5t98 -42.5z" />
    <glyph glyph-name="Abreve" unicode="&#x102;" horiz-adv-x="977" 
d="M487 1798q-123 0 -187.5 66.5t-67.5 189.5h95q4 -166 160 -166t163 166h96q-3 -123 -68.5 -189.5t-190.5 -66.5zM56 0l350 1658h164l352 -1658h-153l-82 443h-396l-84 -443h-151zM313 557h353l-177 894z" />
    <glyph glyph-name="abreve" unicode="&#x103;" horiz-adv-x="813" 
d="M398 1324q-123 0 -187.5 66.5t-67.5 189.5h95q4 -166 160 -166t163 166h96q-3 -123 -68.5 -189.5t-190.5 -66.5zM319 -19q-104 0 -171 76.5t-67 189.5q0 59 10 105.5t37.5 87.5t60 72.5t92.5 67t120 65.5t157 73v85q0 163 -31 224.5t-116 61.5q-164 0 -164 -203v-43
l-148 5q0 29 1 36q7 167 87 242.5t232 75.5q157 0 223 -93t66 -298v-576q0 -143 11 -235h-133l-22 164q-27 -78 -91.5 -130.5t-153.5 -52.5zM368 110q60 0 110.5 41.5t79.5 98.5v369q-6 -3 -19 -10q-49 -26 -75 -40t-62.5 -35t-54.5 -35t-41.5 -34t-34 -37.5t-21.5 -40.5
t-15 -48.5t-4 -56.5q0 -87 39 -129.5t98 -42.5z" />
    <glyph glyph-name="Aogonek" unicode="&#x104;" horiz-adv-x="977" 
d="M890 -429q-146 0 -218.5 37.5t-72.5 130.5q0 80 56 156.5t130 109.5h81q-152 -163 -152 -259q0 -30 17.5 -50.5t50 -29.5t63 -12t71.5 -3zM56 0l350 1658h164l352 -1658h-153l-82 443h-396l-84 -443h-151zM313 557h353l-177 894z" />
    <glyph glyph-name="aogonek" unicode="&#x105;" horiz-adv-x="813" 
d="M691 -429q-146 0 -218.5 37.5t-72.5 130.5q0 80 56 156.5t130 109.5h81q-152 -163 -152 -259q0 -30 17.5 -50.5t50 -29.5t63 -12t71.5 -3zM319 -19q-104 0 -171 76.5t-67 189.5q0 59 10 105.5t37.5 87.5t60 72.5t92.5 67t120 65.5t157 73v85q0 163 -31 224.5t-116 61.5
q-164 0 -164 -203v-43l-148 5q0 29 1 36q7 167 87 242.5t232 75.5q157 0 223 -93t66 -298v-576q0 -143 11 -235h-133l-22 164q-27 -78 -91.5 -130.5t-153.5 -52.5zM368 110q60 0 110.5 41.5t79.5 98.5v369q-6 -3 -19 -10q-49 -26 -75 -40t-62.5 -35t-54.5 -35t-41.5 -34
t-34 -37.5t-21.5 -40.5t-15 -48.5t-4 -56.5q0 -87 39 -129.5t98 -42.5z" />
    <glyph glyph-name="Cacute" unicode="&#x106;" horiz-adv-x="1021" 
d="M479 1798l128 400h150l-201 -400h-77zM531 -21q-98 0 -172.5 27t-121 72t-75.5 113t-40 142t-11 166v659q0 96 11.5 171.5t41 142t76.5 110.5t120.5 69t170.5 25q109 0 186 -32.5t122 -95.5t65 -147t20 -196v-102h-148v97q0 88 -9 147t-34.5 108.5t-75 73t-125.5 23.5
q-82 0 -135.5 -26t-80.5 -79t-37 -115.5t-10 -153.5v-704q0 -193 57.5 -281t205.5 -88q61 0 105 17.5t70.5 46.5t42 76.5t21 98t5.5 120.5v108h148v-97q0 -91 -11 -163.5t-38.5 -136.5t-71.5 -106t-112.5 -66t-159.5 -24z" />
    <glyph glyph-name="cacute" unicode="&#x107;" horiz-adv-x="796" 
d="M363 1324l128 400h150l-201 -400h-77zM409 -19q-81 0 -139 24t-92 62.5t-53.5 101.5t-26 127.5t-6.5 152.5v276q0 129 14 214.5t49.5 146.5t97 88.5t155.5 27.5q74 0 128 -18t87.5 -49.5t53 -80.5t27 -103.5t7.5 -127.5v-56h-139v56q0 152 -36 209.5t-126 57.5
q-102 0 -135 -72.5t-33 -267.5v-332q0 -182 35.5 -253t133.5 -71q42 0 71 12t46.5 33t27.5 58t13 78.5t3 104.5v65h139v-58q0 -78 -6.5 -135t-26 -110.5t-52 -87t-87.5 -53.5t-130 -20z" />
    <glyph glyph-name="Ccircumflex" unicode="&#x108;" horiz-adv-x="1021" 
d="M258 1798l177 363h168l174 -363h-109l-150 289l-149 -289h-111zM531 -21q-98 0 -172.5 27t-121 72t-75.5 113t-40 142t-11 166v659q0 96 11.5 171.5t41 142t76.5 110.5t120.5 69t170.5 25q109 0 186 -32.5t122 -95.5t65 -147t20 -196v-102h-148v97q0 88 -9 147
t-34.5 108.5t-75 73t-125.5 23.5q-82 0 -135.5 -26t-80.5 -79t-37 -115.5t-10 -153.5v-704q0 -193 57.5 -281t205.5 -88q61 0 105 17.5t70.5 46.5t42 76.5t21 98t5.5 120.5v108h148v-97q0 -91 -11 -163.5t-38.5 -136.5t-71.5 -106t-112.5 -66t-159.5 -24z" />
    <glyph glyph-name="ccircumflex" unicode="&#x109;" horiz-adv-x="796" 
d="M142 1324l177 363h168l174 -363h-109l-150 289l-149 -289h-111zM409 -19q-81 0 -139 24t-92 62.5t-53.5 101.5t-26 127.5t-6.5 152.5v276q0 129 14 214.5t49.5 146.5t97 88.5t155.5 27.5q74 0 128 -18t87.5 -49.5t53 -80.5t27 -103.5t7.5 -127.5v-56h-139v56
q0 152 -36 209.5t-126 57.5q-102 0 -135 -72.5t-33 -267.5v-332q0 -182 35.5 -253t133.5 -71q42 0 71 12t46.5 33t27.5 58t13 78.5t3 104.5v65h139v-58q0 -78 -6.5 -135t-26 -110.5t-52 -87t-87.5 -53.5t-130 -20z" />
    <glyph glyph-name="Cdotaccent" unicode="&#x10a;" horiz-adv-x="1021" 
d="M438 1798v224h159v-224h-159zM531 -21q-98 0 -172.5 27t-121 72t-75.5 113t-40 142t-11 166v659q0 96 11.5 171.5t41 142t76.5 110.5t120.5 69t170.5 25q109 0 186 -32.5t122 -95.5t65 -147t20 -196v-102h-148v97q0 88 -9 147t-34.5 108.5t-75 73t-125.5 23.5
q-82 0 -135.5 -26t-80.5 -79t-37 -115.5t-10 -153.5v-704q0 -193 57.5 -281t205.5 -88q61 0 105 17.5t70.5 46.5t42 76.5t21 98t5.5 120.5v108h148v-97q0 -91 -11 -163.5t-38.5 -136.5t-71.5 -106t-112.5 -66t-159.5 -24z" />
    <glyph glyph-name="cdotaccent" unicode="&#x10b;" horiz-adv-x="796" 
d="M322 1324v224h159v-224h-159zM409 -19q-81 0 -139 24t-92 62.5t-53.5 101.5t-26 127.5t-6.5 152.5v276q0 129 14 214.5t49.5 146.5t97 88.5t155.5 27.5q74 0 128 -18t87.5 -49.5t53 -80.5t27 -103.5t7.5 -127.5v-56h-139v56q0 152 -36 209.5t-126 57.5q-102 0 -135 -72.5
t-33 -267.5v-332q0 -182 35.5 -253t133.5 -71q42 0 71 12t46.5 33t27.5 58t13 78.5t3 104.5v65h139v-58q0 -78 -6.5 -135t-26 -110.5t-52 -87t-87.5 -53.5t-130 -20z" />
    <glyph glyph-name="Ccaron" unicode="&#x10c;" horiz-adv-x="1021" 
d="M450 1798l-174 339h120l122 -245l121 245h120l-176 -339h-133zM531 -21q-98 0 -172.5 27t-121 72t-75.5 113t-40 142t-11 166v659q0 96 11.5 171.5t41 142t76.5 110.5t120.5 69t170.5 25q109 0 186 -32.5t122 -95.5t65 -147t20 -196v-102h-148v97q0 88 -9 147
t-34.5 108.5t-75 73t-125.5 23.5q-82 0 -135.5 -26t-80.5 -79t-37 -115.5t-10 -153.5v-704q0 -193 57.5 -281t205.5 -88q61 0 105 17.5t70.5 46.5t42 76.5t21 98t5.5 120.5v108h148v-97q0 -91 -11 -163.5t-38.5 -136.5t-71.5 -106t-112.5 -66t-159.5 -24z" />
    <glyph glyph-name="ccaron" unicode="&#x10d;" horiz-adv-x="796" 
d="M334 1324l-174 339h120l122 -245l121 245h120l-176 -339h-133zM409 -19q-81 0 -139 24t-92 62.5t-53.5 101.5t-26 127.5t-6.5 152.5v276q0 129 14 214.5t49.5 146.5t97 88.5t155.5 27.5q74 0 128 -18t87.5 -49.5t53 -80.5t27 -103.5t7.5 -127.5v-56h-139v56
q0 152 -36 209.5t-126 57.5q-102 0 -135 -72.5t-33 -267.5v-332q0 -182 35.5 -253t133.5 -71q42 0 71 12t46.5 33t27.5 58t13 78.5t3 104.5v65h139v-58q0 -78 -6.5 -135t-26 -110.5t-52 -87t-87.5 -53.5t-130 -20z" />
    <glyph glyph-name="Dcaron" unicode="&#x10e;" horiz-adv-x="1067" 
d="M482 1798l-174 339h120l122 -245l121 245h120l-176 -339h-133zM301 117h209q77 0 130.5 21.5t84 55t47.5 91.5t21.5 113.5t4.5 137.5v619q0 80 -6.5 136t-25 105.5t-51 79t-85 46t-125.5 16.5h-204v-1421zM144 0v1658h363q101 0 178.5 -23t128.5 -64t83 -103t45.5 -134
t13.5 -163v-659q0 -121 -22 -212t-72 -160t-135.5 -104.5t-207.5 -35.5h-375z" />
    <glyph glyph-name="dcaron" unicode="&#x10f;" horiz-adv-x="918" 
d="M913 1174v484h144l-62 -484h-82zM378 -19q-153 0 -219.5 115t-66.5 382v219q0 98 7 172t26 139t50 106t80 64.5t116 23.5q117 -1 209 -103v559h150v-1658h-150v84q-90 -102 -202 -103zM408 100q87 0 172 78v822q-90 84 -176 84q-95 0 -128.5 -79.5t-33.5 -259.5v-279
q0 -194 34 -280t132 -86z" />
    <glyph glyph-name="Dcroat" unicode="&#x110;" horiz-adv-x="1069" 
d="M304 117h208q77 0 130.5 21.5t84 55t47.5 91.5t21.5 113.5t4.5 137.5v619q0 80 -6.5 136t-25 105.5t-51 79t-84.5 46t-126 16.5h-203v-621h166v-96h-166v-704zM147 0v821h-122v96h122v741h363q126 0 214.5 -34t139 -100.5t72.5 -152.5t22 -200v-659q0 -121 -22 -212
t-71.5 -160t-135.5 -104.5t-207 -35.5h-375z" />
    <glyph glyph-name="dcroat" unicode="&#x111;" horiz-adv-x="873" 
d="M378 -19q-153 0 -219.5 115t-66.5 382v219q0 98 7 172t26 139t50 106t80 64.5t116 23.5q117 -1 209 -103v307h-195v88h195v164h150v-164h117v-88h-117v-1406h-150v84q-90 -102 -202 -103zM408 100q87 0 172 78v822q-90 84 -176 84q-95 0 -128.5 -79.5t-33.5 -259.5v-279
q0 -194 34 -280t132 -86z" />
    <glyph glyph-name="Emacron" unicode="&#x112;" 
d="M262 1798v96h367v-96h-367zM144 0v1658h599v-120h-442v-621h362v-116h-362v-684h447v-117h-604z" />
    <glyph glyph-name="emacron" unicode="&#x113;" horiz-adv-x="809" 
d="M223 1324v96h367v-96h-367zM412 -19q-170 0 -245 105t-75 359v299q0 173 35.5 274.5t104 142.5t181.5 41q75 0 128 -19.5t88 -55.5t55.5 -97.5t28.5 -136t8 -179.5l-1 -107h-478v-177q0 -184 35.5 -260t133.5 -76q78 0 120 49.5t42 179.5v82h147v-66q0 -172 -72 -265
t-236 -93zM242 693h331v98q0 62 -3 103t-12.5 81.5t-26.5 63.5t-47 37t-72 14q-95 0 -132.5 -66t-37.5 -251v-80z" />
    <glyph glyph-name="Ebreve" unicode="&#x114;" 
d="M444 1798q-123 0 -187.5 66.5t-67.5 189.5h95q4 -166 160 -166t163 166h96q-3 -123 -68.5 -189.5t-190.5 -66.5zM144 0v1658h599v-120h-442v-621h362v-116h-362v-684h447v-117h-604z" />
    <glyph glyph-name="ebreve" unicode="&#x115;" horiz-adv-x="809" 
d="M404 1324q-123 0 -187.5 66.5t-67.5 189.5h95q4 -166 160 -166t163 166h96q-3 -123 -68.5 -189.5t-190.5 -66.5zM412 -19q-170 0 -245 105t-75 359v299q0 173 35.5 274.5t104 142.5t181.5 41q75 0 128 -19.5t88 -55.5t55.5 -97.5t28.5 -136t8 -179.5l-1 -107h-478v-177
q0 -184 35.5 -260t133.5 -76q78 0 120 49.5t42 179.5v82h147v-66q0 -172 -72 -265t-236 -93zM242 693h331v98q0 62 -3 103t-12.5 81.5t-26.5 63.5t-47 37t-72 14q-95 0 -132.5 -66t-37.5 -251v-80z" />
    <glyph glyph-name="Edotaccent" unicode="&#x116;" 
d="M367 1798v224h159v-224h-159zM144 0v1658h599v-120h-442v-621h362v-116h-362v-684h447v-117h-604z" />
    <glyph glyph-name="edotaccent" unicode="&#x117;" horiz-adv-x="809" 
d="M327 1324v224h159v-224h-159zM412 -19q-170 0 -245 105t-75 359v299q0 173 35.5 274.5t104 142.5t181.5 41q75 0 128 -19.5t88 -55.5t55.5 -97.5t28.5 -136t8 -179.5l-1 -107h-478v-177q0 -184 35.5 -260t133.5 -76q78 0 120 49.5t42 179.5v82h147v-66q0 -172 -72 -265
t-236 -93zM242 693h331v98q0 62 -3 103t-12.5 81.5t-26.5 63.5t-47 37t-72 14q-95 0 -132.5 -66t-37.5 -251v-80z" />
    <glyph glyph-name="Eogonek" unicode="&#x118;" 
d="M570 -429q-146 0 -218.5 37.5t-72.5 130.5q0 80 56 156.5t130 109.5h81q-152 -163 -152 -259q0 -30 17.5 -50.5t50 -29.5t63 -12t71.5 -3zM144 0v1658h599v-120h-442v-621h362v-116h-362v-684h447v-117h-604z" />
    <glyph glyph-name="eogonek" unicode="&#x119;" horiz-adv-x="809" 
d="M530 -429q-146 0 -218.5 37.5t-72.5 130.5q0 80 56 156.5t130 109.5h81q-152 -163 -152 -259q0 -30 17.5 -50.5t50 -29.5t63 -12t71.5 -3zM412 -19q-170 0 -245 105t-75 359v299q0 173 35.5 274.5t104 142.5t181.5 41q75 0 128 -19.5t88 -55.5t55.5 -97.5t28.5 -136
t8 -179.5l-1 -107h-478v-177q0 -184 35.5 -260t133.5 -76q78 0 120 49.5t42 179.5v82h147v-66q0 -172 -72 -265t-236 -93zM242 693h331v98q0 62 -3 103t-12.5 81.5t-26.5 63.5t-47 37t-72 14q-95 0 -132.5 -66t-37.5 -251v-80z" />
    <glyph glyph-name="Ecaron" unicode="&#x11a;" 
d="M378 1798l-174 339h120l122 -245l121 245h120l-176 -339h-133zM144 0v1658h599v-120h-442v-621h362v-116h-362v-684h447v-117h-604z" />
    <glyph glyph-name="ecaron" unicode="&#x11b;" horiz-adv-x="809" 
d="M339 1324l-174 339h120l122 -245l121 245h120l-176 -339h-133zM412 -19q-170 0 -245 105t-75 359v299q0 173 35.5 274.5t104 142.5t181.5 41q75 0 128 -19.5t88 -55.5t55.5 -97.5t28.5 -136t8 -179.5l-1 -107h-478v-177q0 -184 35.5 -260t133.5 -76q78 0 120 49.5
t42 179.5v82h147v-66q0 -172 -72 -265t-236 -93zM242 693h331v98q0 62 -3 103t-12.5 81.5t-26.5 63.5t-47 37t-72 14q-95 0 -132.5 -66t-37.5 -251v-80z" />
    <glyph glyph-name="Gcircumflex" unicode="&#x11c;" horiz-adv-x="1064" 
d="M265 1798l177 363h168l174 -363h-109l-150 289l-149 -289h-111zM520 -22q-115 0 -196 37t-127 108.5t-66 164.5t-20 217v648q0 126 19.5 217.5t65.5 162.5t129.5 107t204.5 36q215 0 308 -119.5t93 -357.5v-59h-147v59q0 186 -53 269.5t-199 83.5q-67 0 -115 -19.5
t-76.5 -51t-45 -83t-22 -104.5t-5.5 -126v-681q0 -96 11.5 -162.5t40.5 -118t82.5 -76.5t132.5 -25q146 0 202.5 95t56.5 291v196h-244v115h388v-802h-100l-19 188q-69 -210 -299 -210z" />
    <glyph glyph-name="gcircumflex" unicode="&#x11d;" horiz-adv-x="883" 
d="M211 1324l177 363h168l174 -363h-109l-150 289l-149 -289h-111zM439 -389q-94 0 -165.5 10t-126.5 33t-84 62.5t-29 94.5q0 86 57 157.5t139 114.5q-54 15 -93 43.5t-39 61.5q0 94 141 239q-148 108 -148 362q0 86 20 159.5t59.5 131t103.5 90t147 32.5q179 0 255 -147
q19 33 64 71.5t96 60.5l31 13l40 -105q-49 -12 -109.5 -43t-85.5 -60q15 -36 26.5 -100t11.5 -107q0 -191 -78.5 -302.5t-248.5 -111.5q-27 0 -66 6.5t-54 12.5q-3 -5 -22.5 -34t-29 -44.5t-19.5 -38t-10 -37.5q0 -29 99 -45q21 -6 100 -17.5t90 -14.5q146 -26 221 -91
t75 -182q0 -141 -99 -208t-269 -67zM437 -269q116 0 183.5 37.5t67.5 113.5q0 65 -46 101t-177 60l-152 20q-150 -93 -150 -203q0 -68 64 -98.5t210 -30.5zM423 479q50 0 87 19t57 48t32 72.5t15.5 82t3.5 88.5q0 306 -194 306q-47 0 -83.5 -19.5t-58 -49.5t-35 -72
t-18 -81.5t-4.5 -83.5q0 -310 198 -310z" />
    <glyph glyph-name="Gbreve" unicode="&#x11e;" horiz-adv-x="1064" 
d="M522 1798q-123 0 -187.5 66.5t-67.5 189.5h95q4 -166 160 -166t163 166h96q-3 -123 -68.5 -189.5t-190.5 -66.5zM520 -22q-115 0 -196 37t-127 108.5t-66 164.5t-20 217v648q0 126 19.5 217.5t65.5 162.5t129.5 107t204.5 36q215 0 308 -119.5t93 -357.5v-59h-147v59
q0 186 -53 269.5t-199 83.5q-67 0 -115 -19.5t-76.5 -51t-45 -83t-22 -104.5t-5.5 -126v-681q0 -96 11.5 -162.5t40.5 -118t82.5 -76.5t132.5 -25q146 0 202.5 95t56.5 291v196h-244v115h388v-802h-100l-19 188q-69 -210 -299 -210z" />
    <glyph glyph-name="gbreve" unicode="&#x11f;" horiz-adv-x="883" 
d="M468 1324q-123 0 -187.5 66.5t-67.5 189.5h95q4 -166 160 -166t163 166h96q-3 -123 -68.5 -189.5t-190.5 -66.5zM439 -389q-94 0 -165.5 10t-126.5 33t-84 62.5t-29 94.5q0 86 57 157.5t139 114.5q-54 15 -93 43.5t-39 61.5q0 94 141 239q-148 108 -148 362
q0 86 20 159.5t59.5 131t103.5 90t147 32.5q179 0 255 -147q19 33 64 71.5t96 60.5l31 13l40 -105q-49 -12 -109.5 -43t-85.5 -60q15 -36 26.5 -100t11.5 -107q0 -191 -78.5 -302.5t-248.5 -111.5q-27 0 -66 6.5t-54 12.5q-3 -5 -22.5 -34t-29 -44.5t-19.5 -38t-10 -37.5
q0 -29 99 -45q21 -6 100 -17.5t90 -14.5q146 -26 221 -91t75 -182q0 -141 -99 -208t-269 -67zM437 -269q116 0 183.5 37.5t67.5 113.5q0 65 -46 101t-177 60l-152 20q-150 -93 -150 -203q0 -68 64 -98.5t210 -30.5zM423 479q50 0 87 19t57 48t32 72.5t15.5 82t3.5 88.5
q0 306 -194 306q-47 0 -83.5 -19.5t-58 -49.5t-35 -72t-18 -81.5t-4.5 -83.5q0 -310 198 -310z" />
    <glyph glyph-name="Gdotaccent" unicode="&#x120;" horiz-adv-x="1064" 
d="M445 1798v224h159v-224h-159zM520 -22q-115 0 -196 37t-127 108.5t-66 164.5t-20 217v648q0 126 19.5 217.5t65.5 162.5t129.5 107t204.5 36q215 0 308 -119.5t93 -357.5v-59h-147v59q0 186 -53 269.5t-199 83.5q-67 0 -115 -19.5t-76.5 -51t-45 -83t-22 -104.5
t-5.5 -126v-681q0 -96 11.5 -162.5t40.5 -118t82.5 -76.5t132.5 -25q146 0 202.5 95t56.5 291v196h-244v115h388v-802h-100l-19 188q-69 -210 -299 -210z" />
    <glyph glyph-name="gdotaccent" unicode="&#x121;" horiz-adv-x="883" 
d="M391 1324v224h159v-224h-159zM439 -389q-94 0 -165.5 10t-126.5 33t-84 62.5t-29 94.5q0 86 57 157.5t139 114.5q-54 15 -93 43.5t-39 61.5q0 94 141 239q-148 108 -148 362q0 86 20 159.5t59.5 131t103.5 90t147 32.5q179 0 255 -147q19 33 64 71.5t96 60.5l31 13
l40 -105q-49 -12 -109.5 -43t-85.5 -60q15 -36 26.5 -100t11.5 -107q0 -191 -78.5 -302.5t-248.5 -111.5q-27 0 -66 6.5t-54 12.5q-3 -5 -22.5 -34t-29 -44.5t-19.5 -38t-10 -37.5q0 -29 99 -45q21 -6 100 -17.5t90 -14.5q146 -26 221 -91t75 -182q0 -141 -99 -208t-269 -67
zM437 -269q116 0 183.5 37.5t67.5 113.5q0 65 -46 101t-177 60l-152 20q-150 -93 -150 -203q0 -68 64 -98.5t210 -30.5zM423 479q50 0 87 19t57 48t32 72.5t15.5 82t3.5 88.5q0 306 -194 306q-47 0 -83.5 -19.5t-58 -49.5t-35 -72t-18 -81.5t-4.5 -83.5q0 -310 198 -310z
" />
    <glyph glyph-name="Gcommaaccent" unicode="&#x122;" horiz-adv-x="1064" 
d="M474 -548l-37 68q95 39 95 155h-87v181h167l-1 -160q-1 -108 -29.5 -165.5t-107.5 -78.5zM520 -22q-115 0 -196 37t-127 108.5t-66 164.5t-20 217v648q0 126 19.5 217.5t65.5 162.5t129.5 107t204.5 36q215 0 308 -119.5t93 -357.5v-59h-147v59q0 186 -53 269.5
t-199 83.5q-67 0 -115 -19.5t-76.5 -51t-45 -83t-22 -104.5t-5.5 -126v-681q0 -96 11.5 -162.5t40.5 -118t82.5 -76.5t132.5 -25q146 0 202.5 95t56.5 291v196h-244v115h388v-802h-100l-19 188q-69 -210 -299 -210z" />
    <glyph glyph-name="gcommaaccent" unicode="&#x123;" horiz-adv-x="901" 
d="M425 -399q-185 0 -293.5 56t-108.5 168q0 75 63.5 145.5t150.5 120.5q-153 44 -156 89v8q0 90 152 257q-153 106 -153 348q0 61 13 119t41.5 111.5t69.5 93.5t101 64t132 24q175 0 271 -151q28 47 71 85.5t89 57.5l32 14l38 -85q-95 -25 -189 -128q18 -39 31.5 -99
t13.5 -106q0 -187 -87 -300.5t-259 -113.5q-86 0 -154 28q-6 -9 -25.5 -36t-30.5 -44t-25 -41t-21 -42.5t-6 -31.5t101 -38q35 -9 220 -48q168 -39 246 -97.5t78 -163.5q0 -84 -54 -144.5t-145 -90t-207 -29.5zM451 1497v142q0 108 34 169.5t112 96.5l15 -40
q-47 -36 -70 -89t-23 -100h91v-179h-159zM425 -305q127 0 207 39.5t81 120.5v9q0 40 -17 68q-19 30 -75 57t-161 51l-123 25q-36 -23 -60 -40.5t-56.5 -47.5t-49.5 -64.5t-17 -71.5q0 -74 73 -110t198 -36zM442 469q215 0 215 329q0 40 -5 79t-20 83t-38 77t-63 55t-92 22
q-44 0 -79.5 -16.5t-58 -44.5t-39 -60.5t-25 -70t-12 -67.5t-3.5 -57q0 -43 4 -82t18 -86.5t37 -81t64.5 -56.5t96.5 -23z" />
    <glyph glyph-name="Hcircumflex" unicode="&#x124;" horiz-adv-x="1124" 
d="M303 1798l177 363h168l174 -363h-109l-150 289l-149 -289h-111zM144 0v1658h157v-735h522v735h157v-1658h-157v808h-522v-808h-157z" />
    <glyph glyph-name="hcircumflex" unicode="&#x125;" horiz-adv-x="844" 
d="M167 1780l177 363h168l174 -363h-109l-150 289l-149 -289h-111zM117 0v1658h150v-599q133 143 287 143q89 0 136 -65.5t47 -186.5v-950h-151v918q0 90 -27 128t-85 38q-97 0 -207 -110v-974h-150z" />
    <glyph glyph-name="Hbar" unicode="&#x126;" horiz-adv-x="1124" 
d="M144 0v1295h-84v86h84v277h157v-277h522v277h157v-277h85v-86h-85v-1295h-157v808h-522v-808h-157zM301 923h522v372h-522v-372z" />
    <glyph glyph-name="hbar" unicode="&#x127;" horiz-adv-x="843" 
d="M116 0v1428h-132v90h132v140h150v-140h245v-90h-245v-369q133 143 287 143q89 0 136 -65.5t47 -186.5v-950h-151v918q0 90 -27 128t-85 38q-97 0 -207 -110v-974h-150z" />
    <glyph glyph-name="Itilde" unicode="&#x128;" horiz-adv-x="454" 
d="M334 1799q-44 2 -117 48t-95 48q-31 5 -49 -15.5t-18 -65.5h-94q0 30 7 60t23 60q18 32 52 48q26 13 60 12q10 0 22 -1q33 -3 76 -25.5t80 -45t56 -24.5q34 -4 50 17t17 71h91q0 -34 -6 -63.5t-22 -61t-50 -49.5q-28 -14 -65 -14q-9 0 -18 1zM151 0v1658h154v-1658h-154z
" />
    <glyph glyph-name="itilde" unicode="&#x129;" horiz-adv-x="405" 
d="M311 1325q-44 2 -117 48t-95 48q-31 5 -49 -15.5t-18 -65.5h-94q0 30 7 60t23 60q18 32 52 48q26 13 60 12q10 0 22 -1q33 -3 76 -25.5t80 -45t56 -24.5q34 -4 50 17t17 71h91q0 -34 -6 -63.5t-22 -61t-50 -49.5q-28 -14 -65 -14q-9 0 -18 1zM130 0v1184h150v-1184h-150z
" />
    <glyph glyph-name="Imacron" unicode="&#x12a;" horiz-adv-x="454" 
d="M44 1798v96h367v-96h-367zM151 0v1658h154v-1658h-154z" />
    <glyph glyph-name="imacron" unicode="&#x12b;" horiz-adv-x="405" 
d="M22 1324v96h367v-96h-367zM130 0v1184h150v-1184h-150z" />
    <glyph glyph-name="Ibreve" unicode="&#x12c;" horiz-adv-x="454" 
d="M226 1798q-123 0 -187.5 66.5t-67.5 189.5h95q4 -166 160 -166t163 166h96q-3 -123 -68.5 -189.5t-190.5 -66.5zM151 0v1658h154v-1658h-154z" />
    <glyph glyph-name="ibreve" unicode="&#x12d;" horiz-adv-x="405" 
d="M203 1324q-123 0 -187.5 66.5t-67.5 189.5h95q4 -166 160 -166t163 166h96q-3 -123 -68.5 -189.5t-190.5 -66.5zM130 0v1184h150v-1184h-150z" />
    <glyph glyph-name="Iogonek" unicode="&#x12e;" horiz-adv-x="454" 
d="M279 -429q-146 0 -218.5 37.5t-72.5 130.5q0 80 56 156.5t130 109.5h81q-152 -163 -152 -259q0 -30 17.5 -50.5t50 -29.5t63 -12t71.5 -3zM151 0v1658h154v-1658h-154z" />
    <glyph glyph-name="iogonek" unicode="&#x12f;" horiz-adv-x="418" 
d="M255 -429q-146 0 -218.5 37.5t-72.5 130.5q0 80 56 156.5t130 109.5h81q-152 -163 -152 -259q0 -30 17.5 -50.5t50 -29.5t63 -12t71.5 -3zM131 0v1184h150v-1184h-150zM131 1347v204h151v-204h-151z" />
    <glyph glyph-name="Idotaccent" unicode="&#x130;" horiz-adv-x="454" 
d="M149 1798v224h159v-224h-159zM151 0v1658h154v-1658h-154z" />
    <glyph glyph-name="dotlessi" unicode="&#x131;" horiz-adv-x="405" 
d="M130 0v1184h150v-1184h-150z" />
    <glyph glyph-name="ij" unicode="&#x133;" horiz-adv-x="854" 
d="M384 -303v114q10 -3 51 -3q36 0 62.5 9t41 23.5t23 37t11 44t2.5 50.5v1212h150v-1225q0 -137 -68 -203t-193 -66q-63 0 -80 7zM575 1347v204h151v-204h-151zM131 0v1184h150v-1184h-150zM131 1347v204h151v-204h-151z" />
    <glyph glyph-name="Jcircumflex" unicode="&#x134;" horiz-adv-x="571" 
d="M85 1728l177 363h168l174 -363h-109l-150 289l-149 -289h-111zM16 -73v118q59 0 97.5 4t68.5 17.5t46 31.5t26 53.5t12.5 76t2.5 106.5v1324h157v-1334q0 -87 -8 -146t-28.5 -110t-57.5 -80t-96 -45t-143 -16h-77z" />
    <glyph glyph-name="jcircumflex" unicode="&#x135;" horiz-adv-x="436" 
d="M-38 1258l177 363h168l174 -363h-109l-150 289l-149 -289h-111zM-34 -318v114q10 -3 51 -3q36 0 62.5 9t41 23.5t23 37t11 44t2.5 50.5v1227h150v-1240q0 -137 -68 -203t-193 -66q-63 0 -80 7z" />
    <glyph glyph-name="Kcommaaccent" unicode="&#x136;" horiz-adv-x="969" 
d="M505 -526l-37 68q95 39 95 155h-87v181h167l-1 -160q-1 -108 -29.5 -165.5t-107.5 -78.5zM144 0v1658h157v-874l443 874h150l-343 -712l416 -946h-155l-377 864l-134 -248v-616h-157z" />
    <glyph glyph-name="kcommaaccent" unicode="&#x137;" horiz-adv-x="820" 
d="M418 -526l-37 68q95 39 95 155h-87v181h167l-1 -160q-1 -108 -29.5 -165.5t-107.5 -78.5zM116 2v1658h150v-1054l395 578h160l-299 -457l284 -727h-150l-249 644l-141 -196v-446h-150z" />
    <glyph glyph-name="kgreenlandic" unicode="&#x138;" horiz-adv-x="856" 
d="M127 0v1184h150v-582l375 582h156l-292 -458l296 -726h-152l-248 624l-135 -196v-428h-150z" />
    <glyph glyph-name="Lacute" unicode="&#x139;" horiz-adv-x="783" 
d="M420 1798l128 400h150l-201 -400h-77zM144 0v1658h157v-1541h472v-117h-629z" />
    <glyph glyph-name="lacute" unicode="&#x13a;" horiz-adv-x="414" 
d="M172 1780l128 400h150l-201 -400h-77zM135 0v1658h151v-1658h-151z" />
    <glyph glyph-name="Lcommaaccent" unicode="&#x13b;" horiz-adv-x="783" 
d="M408 -526l-37 68q95 39 95 155h-87v181h167l-1 -160q-1 -108 -29.5 -165.5t-107.5 -78.5zM144 0v1658h157v-1541h472v-117h-629z" />
    <glyph glyph-name="lcommaaccent" unicode="&#x13c;" horiz-adv-x="414" 
d="M160 -526l-37 68q95 39 95 155h-87v181h167l-1 -160q-1 -108 -29.5 -165.5t-107.5 -78.5zM135 0v1658h151v-1658h-151z" />
    <glyph glyph-name="Lcaron" unicode="&#x13d;" horiz-adv-x="783" 
d="M591 1192v484h144l-62 -484h-82zM144 0v1658h157v-1541h472v-117h-629z" />
    <glyph glyph-name="lcaron" unicode="&#x13e;" horiz-adv-x="566" 
d="M469 1174v484h144l-62 -484h-82zM135 0v1658h151v-1658h-151z" />
    <glyph glyph-name="Ldot" unicode="&#x13f;" horiz-adv-x="783" 
d="M482 748v180h152v-180h-152zM144 0v1658h157v-1541h472v-117h-629z" />
    <glyph glyph-name="ldot" unicode="&#x140;" horiz-adv-x="799" 
d="M546 683v180h152v-180h-152zM135 0v1658h151v-1658h-151z" />
    <glyph glyph-name="Lslash" unicode="&#x141;" horiz-adv-x="783" 
d="M144 0v811l-145 -76v123l145 77v723h157v-637l237 125v-123l-237 -126v-780h472v-117h-629z" />
    <glyph glyph-name="lslash" unicode="&#x142;" horiz-adv-x="521" 
d="M189 0v908l-131 -68v124l131 67v627h150v-553l125 65v-122l-125 -66v-982h-150z" />
    <glyph glyph-name="Nacute" unicode="&#x143;" horiz-adv-x="1065" 
d="M494 1798l128 400h150l-201 -400h-77zM144 0v1658h115l528 -1287v1287h134v-1658h-110l-532 1302v-1302h-135z" />
    <glyph glyph-name="nacute" unicode="&#x144;" horiz-adv-x="838" 
d="M384 1324l128 400h150l-201 -400h-77zM114 0v1184h150v-123q131 141 285 141q88 0 135 -65.5t47 -186.5v-950h-150v918q0 90 -27.5 128t-85.5 38q-97 0 -204 -109v-975h-150z" />
    <glyph glyph-name="Ncommaaccent" unicode="&#x145;" horiz-adv-x="1065" 
d="M482 -526l-37 68q95 39 95 155h-87v181h167l-1 -160q-1 -108 -29.5 -165.5t-107.5 -78.5zM144 0v1658h115l528 -1287v1287h134v-1658h-110l-532 1302v-1302h-135z" />
    <glyph glyph-name="ncommaaccent" unicode="&#x146;" horiz-adv-x="838" 
d="M372 -526l-37 68q95 39 95 155h-87v181h167l-1 -160q-1 -108 -29.5 -165.5t-107.5 -78.5zM114 0v1184h150v-123q131 141 285 141q88 0 135 -65.5t47 -186.5v-950h-150v918q0 90 -27.5 128t-85.5 38q-97 0 -204 -109v-975h-150z" />
    <glyph glyph-name="Ncaron" unicode="&#x147;" horiz-adv-x="1065" 
d="M465 1798l-174 339h120l122 -245l121 245h120l-176 -339h-133zM144 0v1658h115l528 -1287v1287h134v-1658h-110l-532 1302v-1302h-135z" />
    <glyph glyph-name="ncaron" unicode="&#x148;" horiz-adv-x="838" 
d="M355 1324l-174 339h120l122 -245l121 245h120l-176 -339h-133zM114 0v1184h150v-123q131 141 285 141q88 0 135 -65.5t47 -186.5v-950h-150v918q0 90 -27.5 128t-85.5 38q-97 0 -204 -109v-975h-150z" />
    <glyph glyph-name="napostrophe" unicode="&#x149;" horiz-adv-x="838" 
d="M114 0v1184h150v-123q131 141 285 141q88 0 135 -65.5t47 -186.5v-950h-150v918q0 90 -27.5 128t-85.5 38q-97 0 -204 -109v-975h-150zM116 1414v484h144l-62 -484h-82z" />
    <glyph glyph-name="Eng" unicode="&#x14a;" horiz-adv-x="1065" 
d="M571 -321v108h13q63 1 102 9q43 10 66.5 35.5t31 61t7.5 96.5v60l-518 1253v-1302h-129v1658h115l535 -1287v1287h127v-1658q0 -83 -12 -139.5t-43 -99t-87 -62.5t-140 -20h-68z" />
    <glyph glyph-name="eng" unicode="&#x14b;" horiz-adv-x="794" 
d="M328 -341v117q75 0 123.5 13.5t74 43t35 66t9.5 91.5v928q0 90 -27.5 128t-85.5 38q-97 0 -204 -109v-975h-150v1184h150v-123q131 141 285 141q88 0 135 -65.5t47 -186.5v-962q0 -88 -27 -153.5t-76 -103t-110.5 -55t-137.5 -17.5h-41z" />
    <glyph glyph-name="Omacron" unicode="&#x14c;" horiz-adv-x="1074" 
d="M354 1798v96h367v-96h-367zM537 105q80 0 134 24.5t82.5 73.5t40 109t11.5 144v750q0 84 -11.5 143.5t-40 107.5t-82.5 71.5t-134 23.5t-134 -23.5t-82.5 -71.5t-40 -107.5t-11.5 -143.5v-750q0 -84 11.5 -144t40 -109t82.5 -73.5t134 -24.5zM537 -21q-120 0 -204.5 36.5
t-132 107t-68.5 160t-21 207.5v688q0 117 21.5 205t70 155.5t132.5 102.5t202 35t202 -35t132.5 -103t70 -156t21.5 -204v-690q0 -93 -12.5 -168t-43 -140t-78.5 -108.5t-122 -68t-170 -24.5z" />
    <glyph glyph-name="omacron" unicode="&#x14d;" 
d="M224 1324v96h367v-96h-367zM408 94q45 0 76 16.5t48.5 41.5t26.5 71t11.5 88t2.5 109v344q0 67 -2.5 109t-11.5 88t-26.5 71t-48.5 41.5t-76 16.5q-38 0 -66 -10t-46 -32.5t-29 -48t-16.5 -66.5t-7 -77.5t-1.5 -91.5v-344q0 -55 1.5 -91.5t7 -77.5t16.5 -66.5t29 -48
t46 -32.5t66 -10zM408 -19q-91 0 -153 29t-97.5 88t-50.5 138.5t-15 191.5v328q0 226 70 336t246 110q177 0 246.5 -109.5t69.5 -336.5v-328q0 -112 -15 -191.5t-50.5 -138.5t-97.5 -88t-153 -29z" />
    <glyph glyph-name="Obreve" unicode="&#x14e;" horiz-adv-x="1074" 
d="M535 1798q-123 0 -187.5 66.5t-67.5 189.5h95q4 -166 160 -166t163 166h96q-3 -123 -68.5 -189.5t-190.5 -66.5zM537 105q80 0 134 24.5t82.5 73.5t40 109t11.5 144v750q0 84 -11.5 143.5t-40 107.5t-82.5 71.5t-134 23.5t-134 -23.5t-82.5 -71.5t-40 -107.5
t-11.5 -143.5v-750q0 -84 11.5 -144t40 -109t82.5 -73.5t134 -24.5zM537 -21q-120 0 -204.5 36.5t-132 107t-68.5 160t-21 207.5v688q0 117 21.5 205t70 155.5t132.5 102.5t202 35t202 -35t132.5 -103t70 -156t21.5 -204v-690q0 -93 -12.5 -168t-43 -140t-78.5 -108.5
t-122 -68t-170 -24.5z" />
    <glyph glyph-name="obreve" unicode="&#x14f;" 
d="M406 1324q-123 0 -187.5 66.5t-67.5 189.5h95q4 -166 160 -166t163 166h96q-3 -123 -68.5 -189.5t-190.5 -66.5zM408 94q45 0 76 16.5t48.5 41.5t26.5 71t11.5 88t2.5 109v344q0 67 -2.5 109t-11.5 88t-26.5 71t-48.5 41.5t-76 16.5q-38 0 -66 -10t-46 -32.5t-29 -48
t-16.5 -66.5t-7 -77.5t-1.5 -91.5v-344q0 -55 1.5 -91.5t7 -77.5t16.5 -66.5t29 -48t46 -32.5t66 -10zM408 -19q-91 0 -153 29t-97.5 88t-50.5 138.5t-15 191.5v328q0 226 70 336t246 110q177 0 246.5 -109.5t69.5 -336.5v-328q0 -112 -15 -191.5t-50.5 -138.5t-97.5 -88
t-153 -29z" />
    <glyph glyph-name="Ohungarumlaut" unicode="&#x150;" horiz-adv-x="1074" 
d="M392 1798l79 328h135l-135 -328h-79zM602 1798l114 328h162l-195 -328h-81zM537 105q80 0 134 24.5t82.5 73.5t40 109t11.5 144v750q0 84 -11.5 143.5t-40 107.5t-82.5 71.5t-134 23.5t-134 -23.5t-82.5 -71.5t-40 -107.5t-11.5 -143.5v-750q0 -84 11.5 -144t40 -109
t82.5 -73.5t134 -24.5zM537 -21q-120 0 -204.5 36.5t-132 107t-68.5 160t-21 207.5v688q0 117 21.5 205t70 155.5t132.5 102.5t202 35t202 -35t132.5 -103t70 -156t21.5 -204v-690q0 -93 -12.5 -168t-43 -140t-78.5 -108.5t-122 -68t-170 -24.5z" />
    <glyph glyph-name="ohungarumlaut" unicode="&#x151;" 
d="M262 1324l79 328h135l-135 -328h-79zM472 1324l114 328h162l-195 -328h-81zM408 94q45 0 76 16.5t48.5 41.5t26.5 71t11.5 88t2.5 109v344q0 67 -2.5 109t-11.5 88t-26.5 71t-48.5 41.5t-76 16.5q-38 0 -66 -10t-46 -32.5t-29 -48t-16.5 -66.5t-7 -77.5t-1.5 -91.5v-344
q0 -55 1.5 -91.5t7 -77.5t16.5 -66.5t29 -48t46 -32.5t66 -10zM408 -19q-91 0 -153 29t-97.5 88t-50.5 138.5t-15 191.5v328q0 226 70 336t246 110q177 0 246.5 -109.5t69.5 -336.5v-328q0 -112 -15 -191.5t-50.5 -138.5t-97.5 -88t-153 -29z" />
    <glyph glyph-name="OE" unicode="&#x152;" horiz-adv-x="1319" 
d="M562 0q-127 0 -216 33t-139.5 98.5t-73 150.5t-22.5 200v676q0 119 23 208.5t74 156.5t137.5 101t207.5 34h704v-122h-404v-614h334v-116h-334v-686h406v-120h-697zM565 123h132v1416h-135q-75 0 -128 -18.5t-85 -49.5t-50 -84t-24 -109.5t-6 -138.5v-647
q0 -95 12 -158.5t43.5 -114t90.5 -73.5t150 -23z" />
    <glyph glyph-name="oe" unicode="&#x153;" horiz-adv-x="1328" 
d="M424 -19q-177 0 -247 109t-70 336v332q0 225 70 334.5t247 109.5q190 0 243 -167q57 167 250 167q175 0 241.5 -111.5t66.5 -369.5l-1 -109h-482v-130q0 -94 7.5 -159t25.5 -116t51.5 -76t83.5 -27q37 -1 63 5.5t51 27t38 66t13 115.5v87h150v-85q-1 -170 -75 -256
q-72 -83 -229 -83h-11q-188 5 -242 176q-51 -176 -244 -176zM424 104q45 0 76.5 16t49 41t27 70t12 87t2.5 108v332q0 66 -2.5 108t-12 87.5t-27 70.5t-49 41t-76.5 16q-32 0 -57.5 -8.5t-43 -21.5t-29.5 -37t-19 -48t-11 -60.5t-5 -68.5t-1 -79v-332q0 -55 1.5 -91.5t7 -77
t17 -65.5t29 -46.5t45.5 -31.5t66 -10zM742 693h333v58q0 52 -1.5 87.5t-7 77t-16.5 68.5t-28.5 50.5t-45 35t-64.5 11.5q-93 0 -131.5 -78t-38.5 -245v-65z" />
    <glyph glyph-name="Racute" unicode="&#x154;" horiz-adv-x="1049" 
d="M513 1798l128 400h150l-201 -400h-77zM144 0v1658h377q221 0 316 -106.5t95 -312.5q0 -343 -231 -391l257 -848h-154l-243 815h-260v-815h-157zM301 930h211q150 0 209 73.5t59 235.5q0 160 -56 231t-207 71h-216v-611z" />
    <glyph glyph-name="racute" unicode="&#x155;" horiz-adv-x="610" 
d="M312 1324l128 400h150l-201 -400h-77zM126 0v1184h150v-163q54 90 126.5 133t146.5 43q18 0 26 -1v-162q-32 13 -72 13q-144 0 -227 -138v-909h-150z" />
    <glyph glyph-name="Rcommaaccent" unicode="&#x156;" horiz-adv-x="1049" 
d="M501 -526l-37 68q95 39 95 155h-87v181h167l-1 -160q-1 -108 -29.5 -165.5t-107.5 -78.5zM144 0v1658h377q221 0 316 -106.5t95 -312.5q0 -343 -231 -391l257 -848h-154l-243 815h-260v-815h-157zM301 930h211q150 0 209 73.5t59 235.5q0 160 -56 231t-207 71h-216v-611z
" />
    <glyph glyph-name="rcommaaccent" unicode="&#x157;" horiz-adv-x="610" 
d="M300 -526l-37 68q95 39 95 155h-87v181h167l-1 -160q-1 -108 -29.5 -165.5t-107.5 -78.5zM126 0v1184h150v-163q54 90 126.5 133t146.5 43q18 0 26 -1v-162q-32 13 -72 13q-144 0 -227 -138v-909h-150z" />
    <glyph glyph-name="Rcaron" unicode="&#x158;" horiz-adv-x="1049" 
d="M484 1798l-174 339h120l122 -245l121 245h120l-176 -339h-133zM144 0v1658h377q221 0 316 -106.5t95 -312.5q0 -343 -231 -391l257 -848h-154l-243 815h-260v-815h-157zM301 930h211q150 0 209 73.5t59 235.5q0 160 -56 231t-207 71h-216v-611z" />
    <glyph glyph-name="rcaron" unicode="&#x159;" horiz-adv-x="610" 
d="M283 1324l-174 339h120l122 -245l121 245h120l-176 -339h-133zM126 0v1184h150v-163q54 90 126.5 133t146.5 43q18 0 26 -1v-162q-32 13 -72 13q-144 0 -227 -138v-909h-150z" />
    <glyph glyph-name="Sacute" unicode="&#x15a;" horiz-adv-x="942" 
d="M443 1798l128 400h150l-201 -400h-77zM499 -20q-197 0 -298.5 118.5t-117.5 331.5l139 40q7 -66 17.5 -116.5t31 -99t50 -79.5t75 -50t104.5 -19q234 0 234 240q0 53 -13.5 99.5t-43 91t-62 80.5t-84.5 87l-294 282q-150 144 -150 334q0 169 100.5 262t272.5 94h7
q181 0 277 -98q98 -100 114 -323l-132 -34q-14 168 -72 252q-56 80 -180 80h-12q-109 -3 -171.5 -57t-62.5 -163q0 -68 26.5 -123.5t90.5 -117.5l292 -277q113 -108 178 -218.5t65 -239.5q0 -181 -104.5 -279t-276.5 -98z" />
    <glyph glyph-name="sacute" unicode="&#x15b;" horiz-adv-x="743" 
d="M337 1324l128 400h150l-201 -400h-77zM385 -19q-141 0 -225.5 91t-96.5 246l126 38q12 -135 62 -198.5t140 -63.5q78 0 123 46q43 44 43 118v7q-3 118 -144 236l-161 137q-85 71 -124 139q-38 66 -38 154q0 130 78 201q76 70 205 70q131 0 201.5 -84t78.5 -227l-106 -35
q-7 119 -48.5 176.5t-119.5 57.5q-70 0 -112 -39q-41 -38 -41 -102q0 -58 21 -99.5t77 -89.5l167 -150q45 -39 73.5 -68.5t60.5 -73t47.5 -94t16.5 -108.5q0 -136 -82 -210.5t-222 -74.5z" />
    <glyph glyph-name="Scircumflex" unicode="&#x15c;" horiz-adv-x="942" 
d="M222 1798l177 363h168l174 -363h-109l-150 289l-149 -289h-111zM499 -20q-197 0 -298.5 118.5t-117.5 331.5l139 40q7 -66 17.5 -116.5t31 -99t50 -79.5t75 -50t104.5 -19q234 0 234 240q0 53 -13.5 99.5t-43 91t-62 80.5t-84.5 87l-294 282q-150 144 -150 334
q0 169 100.5 262t272.5 94h7q181 0 277 -98q98 -100 114 -323l-132 -34q-14 168 -72 252q-56 80 -180 80h-12q-109 -3 -171.5 -57t-62.5 -163q0 -68 26.5 -123.5t90.5 -117.5l292 -277q113 -108 178 -218.5t65 -239.5q0 -181 -104.5 -279t-276.5 -98z" />
    <glyph glyph-name="scircumflex" unicode="&#x15d;" horiz-adv-x="743" 
d="M117 1324l177 363h168l174 -363h-109l-150 289l-149 -289h-111zM385 -19q-141 0 -225.5 91t-96.5 246l126 38q12 -135 62 -198.5t140 -63.5q78 0 123 46q43 44 43 118v7q-3 118 -144 236l-161 137q-85 71 -124 139q-38 66 -38 154q0 130 78 201q76 70 205 70
q131 0 201.5 -84t78.5 -227l-106 -35q-7 119 -48.5 176.5t-119.5 57.5q-70 0 -112 -39q-41 -38 -41 -102q0 -58 21 -99.5t77 -89.5l167 -150q45 -39 73.5 -68.5t60.5 -73t47.5 -94t16.5 -108.5q0 -136 -82 -210.5t-222 -74.5z" />
    <glyph glyph-name="Scedilla" unicode="&#x15e;" horiz-adv-x="942" 
d="M406 -409v77q41 -5 73 -5q123 0 128 72v9q-1 44 -37 70q-40 28 -115 42v144h79v-104q83 -12 135.5 -57.5t51.5 -107.5q0 -91 -86 -127q-52 -22 -125 -23q-47 0 -104 10zM499 -20q-197 0 -298.5 118.5t-117.5 331.5l139 40q7 -66 17.5 -116.5t31 -99t50 -79.5t75 -50
t104.5 -19q234 0 234 240q0 53 -13.5 99.5t-43 91t-62 80.5t-84.5 87l-294 282q-150 144 -150 334q0 169 100.5 262t272.5 94h7q181 0 277 -98q98 -100 114 -323l-132 -34q-14 168 -72 252q-56 80 -180 80h-12q-109 -3 -171.5 -57t-62.5 -163q0 -68 26.5 -123.5t90.5 -117.5
l292 -277q113 -108 178 -218.5t65 -239.5q0 -181 -104.5 -279t-276.5 -98z" />
    <glyph glyph-name="scedilla" unicode="&#x15f;" horiz-adv-x="743" 
d="M306 -409v77q41 -5 73 -5q123 0 128 72v9q-1 44 -37 70q-40 28 -115 42v144h79v-104q83 -12 135.5 -57.5t51.5 -107.5q0 -91 -86 -127q-52 -22 -125 -23q-47 0 -104 10zM385 -19q-141 0 -225.5 91t-96.5 246l126 38q12 -135 62 -198.5t140 -63.5q78 0 123 46
q43 44 43 118v7q-3 118 -144 236l-161 137q-85 71 -124 139q-38 66 -38 154q0 130 78 201q76 70 205 70q131 0 201.5 -84t78.5 -227l-106 -35q-7 119 -48.5 176.5t-119.5 57.5q-70 0 -112 -39q-41 -38 -41 -102q0 -58 21 -99.5t77 -89.5l167 -150q45 -39 73.5 -68.5
t60.5 -73t47.5 -94t16.5 -108.5q0 -136 -82 -210.5t-222 -74.5z" />
    <glyph glyph-name="Scaron" unicode="&#x160;" horiz-adv-x="942" 
d="M414 1798l-174 339h120l122 -245l121 245h120l-176 -339h-133zM499 -20q-197 0 -298.5 118.5t-117.5 331.5l139 40q7 -66 17.5 -116.5t31 -99t50 -79.5t75 -50t104.5 -19q234 0 234 240q0 53 -13.5 99.5t-43 91t-62 80.5t-84.5 87l-294 282q-150 144 -150 334
q0 169 100.5 262t272.5 94h7q181 0 277 -98q98 -100 114 -323l-132 -34q-14 168 -72 252q-56 80 -180 80h-12q-109 -3 -171.5 -57t-62.5 -163q0 -68 26.5 -123.5t90.5 -117.5l292 -277q113 -108 178 -218.5t65 -239.5q0 -181 -104.5 -279t-276.5 -98z" />
    <glyph glyph-name="scaron" unicode="&#x161;" horiz-adv-x="743" 
d="M308 1324l-174 339h120l122 -245l121 245h120l-176 -339h-133zM385 -19q-141 0 -225.5 91t-96.5 246l126 38q12 -135 62 -198.5t140 -63.5q78 0 123 46q43 44 43 118v7q-3 118 -144 236l-161 137q-85 71 -124 139q-38 66 -38 154q0 130 78 201q76 70 205 70
q131 0 201.5 -84t78.5 -227l-106 -35q-7 119 -48.5 176.5t-119.5 57.5q-70 0 -112 -39q-41 -38 -41 -102q0 -58 21 -99.5t77 -89.5l167 -150q45 -39 73.5 -68.5t60.5 -73t47.5 -94t16.5 -108.5q0 -136 -82 -210.5t-222 -74.5z" />
    <glyph glyph-name="Tcommaaccent" unicode="&#x162;" horiz-adv-x="795" 
d="M316 -409v77q41 -5 73 -5q123 0 128 72v9q-1 44 -37 70q-40 28 -115 42v144h79v-104q83 -12 135.5 -57.5t51.5 -107.5q0 -91 -86 -127q-52 -22 -125 -23q-47 0 -104 10zM323 0v1538h-333v120h815v-120h-325v-1538h-157z" />
    <glyph glyph-name="tcommaaccent" unicode="&#x163;" horiz-adv-x="573" 
d="M276 -409v77q41 -5 73 -5q123 0 128 72v9q-1 44 -37 70q-40 28 -115 42v144h79v-104q83 -12 135.5 -57.5t51.5 -107.5q0 -91 -86 -127q-52 -22 -125 -23q-47 0 -104 10zM395 -15q-121 0 -167 66.5t-47 194.5v838h-143v100h143v366h150v-366h197v-100h-197v-824
q0 -90 21 -123.5t85 -33.5q41 0 84 8v-113q-67 -13 -126 -13z" />
    <glyph glyph-name="Tcaron" unicode="&#x164;" horiz-adv-x="795" 
d="M330 1798l-174 339h120l122 -245l121 245h120l-176 -339h-133zM323 0v1538h-333v120h815v-120h-325v-1538h-157z" />
    <glyph glyph-name="tcaron" unicode="&#x165;" horiz-adv-x="582" 
d="M500 1314v484h144l-62 -484h-82zM395 -15q-121 0 -167 66.5t-47 194.5v838h-143v100h143v366h150v-366h197v-100h-197v-824q0 -90 21 -123.5t85 -33.5q41 0 84 8v-113q-67 -13 -126 -13z" />
    <glyph glyph-name="Tbar" unicode="&#x166;" horiz-adv-x="795" 
d="M86 835v95h237v608h-333v120h815v-120h-325v-608h225v-95h-225v-835h-157v835h-237z" />
    <glyph glyph-name="tbar" unicode="&#x167;" horiz-adv-x="573" 
d="M395 -15q-121 0 -167 66.5t-47 194.5v479h-123v84h123v275h-143v100h143v366h150v-366h197v-100h-197v-275h191v-84h-191v-465q0 -90 21 -123.5t85 -33.5q41 0 84 8v-113q-67 -13 -126 -13z" />
    <glyph glyph-name="Utilde" unicode="&#x168;" horiz-adv-x="1100" 
d="M656 1799q-44 2 -117 48t-95 48q-31 5 -49 -15.5t-18 -65.5h-94q0 30 7 60t23 60q18 32 52 48q26 13 60 12q10 0 22 -1q33 -3 76 -25.5t80 -45t56 -24.5q34 -4 50 17t17 71h91q0 -34 -6 -63.5t-22 -61t-50 -49.5q-28 -14 -65 -14q-9 0 -18 1zM551 -21q-99 0 -174 23
t-122 63.5t-76 101.5t-40.5 129.5t-11.5 156.5v1205h151v-1210q0 -62 7 -111t25 -93.5t48 -74t79 -47t114 -17.5q78 0 132.5 25.5t84 74t42.5 107.5t13 136v1210h150v-1205q0 -87 -12 -156t-42 -130t-77.5 -101.5t-121 -63.5t-169.5 -23z" />
    <glyph glyph-name="utilde" unicode="&#x169;" horiz-adv-x="843" 
d="M523 1325q-44 2 -117 48t-95 48q-31 5 -49 -15.5t-18 -65.5h-94q0 30 7 60t23 60q18 32 52 48q26 13 60 12q10 0 22 -1q33 -3 76 -25.5t80 -45t56 -24.5q34 -4 50 17t17 71h91q0 -34 -6 -63.5t-22 -61t-50 -49.5q-28 -14 -65 -14q-9 0 -18 1zM288 -18q-89 0 -136 66
t-47 187v949h151v-918q0 -90 27 -128t85 -38q101 0 210 116v968h150v-1184h-150v131q-132 -149 -290 -149z" />
    <glyph glyph-name="Umacron" unicode="&#x16a;" horiz-adv-x="1100" 
d="M366 1798v96h367v-96h-367zM551 -21q-99 0 -174 23t-122 63.5t-76 101.5t-40.5 129.5t-11.5 156.5v1205h151v-1210q0 -62 7 -111t25 -93.5t48 -74t79 -47t114 -17.5q78 0 132.5 25.5t84 74t42.5 107.5t13 136v1210h150v-1205q0 -87 -12 -156t-42 -130t-77.5 -101.5
t-121 -63.5t-169.5 -23z" />
    <glyph glyph-name="umacron" unicode="&#x16b;" horiz-adv-x="843" 
d="M233 1324v96h367v-96h-367zM288 -18q-89 0 -136 66t-47 187v949h151v-918q0 -90 27 -128t85 -38q101 0 210 116v968h150v-1184h-150v131q-132 -149 -290 -149z" />
    <glyph glyph-name="Ubreve" unicode="&#x16c;" horiz-adv-x="1100" 
d="M548 1798q-123 0 -187.5 66.5t-67.5 189.5h95q4 -166 160 -166t163 166h96q-3 -123 -68.5 -189.5t-190.5 -66.5zM551 -21q-99 0 -174 23t-122 63.5t-76 101.5t-40.5 129.5t-11.5 156.5v1205h151v-1210q0 -62 7 -111t25 -93.5t48 -74t79 -47t114 -17.5q78 0 132.5 25.5
t84 74t42.5 107.5t13 136v1210h150v-1205q0 -87 -12 -156t-42 -130t-77.5 -101.5t-121 -63.5t-169.5 -23z" />
    <glyph glyph-name="ubreve" unicode="&#x16d;" horiz-adv-x="843" 
d="M414 1324q-123 0 -187.5 66.5t-67.5 189.5h95q4 -166 160 -166t163 166h96q-3 -123 -68.5 -189.5t-190.5 -66.5zM288 -18q-89 0 -136 66t-47 187v949h151v-918q0 -90 27 -128t85 -38q101 0 210 116v968h150v-1184h-150v131q-132 -149 -290 -149z" />
    <glyph glyph-name="Uring" unicode="&#x16e;" horiz-adv-x="1100" 
d="M549 1798q-83 0 -139 51t-56 144t56 143.5t139 50.5t139.5 -51t56.5 -143q0 -93 -56.5 -144t-139.5 -51zM550 1879q49 0 80 29t31 85q0 57 -31.5 85.5t-80.5 28.5t-80 -29t-31 -85t31.5 -85t80.5 -29zM551 -21q-99 0 -174 23t-122 63.5t-76 101.5t-40.5 129.5
t-11.5 156.5v1205h151v-1210q0 -62 7 -111t25 -93.5t48 -74t79 -47t114 -17.5q78 0 132.5 25.5t84 74t42.5 107.5t13 136v1210h150v-1205q0 -87 -12 -156t-42 -130t-77.5 -101.5t-121 -63.5t-169.5 -23z" />
    <glyph glyph-name="uring" unicode="&#x16f;" horiz-adv-x="843" 
d="M416 1324q-83 0 -139 51t-56 144t56 143.5t139 50.5t139.5 -51t56.5 -143q0 -93 -56.5 -144t-139.5 -51zM417 1405q49 0 80 29t31 85q0 57 -31.5 85.5t-80.5 28.5t-80 -29t-31 -85t31.5 -85t80.5 -29zM288 -18q-89 0 -136 66t-47 187v949h151v-918q0 -90 27 -128t85 -38
q101 0 210 116v968h150v-1184h-150v131q-132 -149 -290 -149z" />
    <glyph glyph-name="Uhungarumlaut" unicode="&#x170;" horiz-adv-x="1100" 
d="M404 1798l79 328h135l-135 -328h-79zM614 1798l114 328h162l-195 -328h-81zM551 -21q-99 0 -174 23t-122 63.5t-76 101.5t-40.5 129.5t-11.5 156.5v1205h151v-1210q0 -62 7 -111t25 -93.5t48 -74t79 -47t114 -17.5q78 0 132.5 25.5t84 74t42.5 107.5t13 136v1210h150
v-1205q0 -87 -12 -156t-42 -130t-77.5 -101.5t-121 -63.5t-169.5 -23z" />
    <glyph glyph-name="uhungarumlaut" unicode="&#x171;" horiz-adv-x="843" 
d="M271 1324l79 328h135l-135 -328h-79zM481 1324l114 328h162l-195 -328h-81zM288 -18q-89 0 -136 66t-47 187v949h151v-918q0 -90 27 -128t85 -38q101 0 210 116v968h150v-1184h-150v131q-132 -149 -290 -149z" />
    <glyph glyph-name="Uogonek" unicode="&#x172;" horiz-adv-x="1100" 
d="M640 -429q-146 0 -218.5 37.5t-72.5 130.5q0 80 56 156.5t130 109.5h81q-152 -163 -152 -259q0 -30 17.5 -50.5t50 -29.5t63 -12t71.5 -3zM551 -21q-99 0 -174 23t-122 63.5t-76 101.5t-40.5 129.5t-11.5 156.5v1205h151v-1210q0 -62 7 -111t25 -93.5t48 -74t79 -47
t114 -17.5q78 0 132.5 25.5t84 74t42.5 107.5t13 136v1210h150v-1205q0 -87 -12 -156t-42 -130t-77.5 -101.5t-121 -63.5t-169.5 -23z" />
    <glyph glyph-name="uogonek" unicode="&#x173;" horiz-adv-x="843" 
d="M699 -429q-146 0 -218.5 37.5t-72.5 130.5q0 80 56 156.5t130 109.5h81q-152 -163 -152 -259q0 -30 17.5 -50.5t50 -29.5t63 -12t71.5 -3zM288 -18q-89 0 -136 66t-47 187v949h151v-918q0 -90 27 -128t85 -38q101 0 210 116v968h150v-1184h-150v131q-132 -149 -290 -149z
" />
    <glyph glyph-name="Wcircumflex" unicode="&#x174;" horiz-adv-x="1464" 
d="M473 1798l177 363h168l174 -363h-109l-150 289l-149 -289h-111zM353 0l-282 1657l134 1l218 -1346l251 1321h129l255 -1323l203 1348h132l-268 -1658h-122l-263 1369l-261 -1369h-126z" />
    <glyph glyph-name="wcircumflex" unicode="&#x175;" horiz-adv-x="1177" 
d="M329 1324l177 363h168l174 -363h-109l-150 289l-149 -289h-111zM257 0l-193 1184h128l148 -989l186 989h129l188 -985l143 985h127l-191 -1184h-141l-188 963l-185 -963h-151z" />
    <glyph glyph-name="Ycircumflex" unicode="&#x176;" horiz-adv-x="961" 
d="M221 1798l177 363h168l174 -363h-109l-150 289l-149 -289h-111zM409 0v551l-374 1107h153l298 -921l287 921h153l-365 -1107v-551h-152z" />
    <glyph glyph-name="ycircumflex" unicode="&#x177;" horiz-adv-x="780" 
d="M133 1324l177 363h168l174 -363h-109l-150 289l-149 -289h-111zM82 -295v117q108 0 162 17t68 48q9 20 10 52q0 17 -3 38q-5 37 -35 164q-24 99 -131 559t-113 484h150l206 -1007l198 1007h151l-287 -1269q-26 -113 -105.5 -161.5t-231.5 -48.5h-39z" />
    <glyph glyph-name="Ydieresis" unicode="&#x178;" horiz-adv-x="961" 
d="M236 1798v181h154v-181h-154zM572 1798v181h154v-181h-154zM409 0v551l-374 1107h153l298 -921l287 921h153l-365 -1107v-551h-152z" />
    <glyph glyph-name="Zacute" unicode="&#x179;" horiz-adv-x="834" 
d="M393 1798l128 400h150l-201 -400h-77zM69 0v118l556 1423h-511v117h678v-81l-569 -1460h571v-117h-725z" />
    <glyph glyph-name="zacute" unicode="&#x17a;" horiz-adv-x="683" 
d="M308 1324l128 400h150l-201 -400h-77zM66 0v105l403 965h-361v114h519v-89l-401 -981h393v-114h-553z" />
    <glyph glyph-name="Zdotaccent" unicode="&#x17b;" horiz-adv-x="834" 
d="M352 1798v224h159v-224h-159zM69 0v118l556 1423h-511v117h678v-81l-569 -1460h571v-117h-725z" />
    <glyph glyph-name="zdotaccent" unicode="&#x17c;" horiz-adv-x="683" 
d="M267 1324v224h159v-224h-159zM66 0v105l403 965h-361v114h519v-89l-401 -981h393v-114h-553z" />
    <glyph glyph-name="Zcaron" unicode="&#x17d;" horiz-adv-x="834" 
d="M364 1798l-174 339h120l122 -245l121 245h120l-176 -339h-133zM69 0v118l556 1423h-511v117h678v-81l-569 -1460h571v-117h-725z" />
    <glyph glyph-name="zcaron" unicode="&#x17e;" horiz-adv-x="683" 
d="M279 1324l-174 339h120l122 -245l121 245h120l-176 -339h-133zM66 0v105l403 965h-361v114h519v-89l-401 -981h393v-114h-553z" />
    <glyph glyph-name="florin" unicode="&#x192;" horiz-adv-x="766" 
d="M106 -270q-53 0 -120 13l13 113q55 -11 83 -11q64 0 89 38.5t38 132.5l141 1059h-149v109h162l19 130q8 73 21 120.5t39.5 90t74.5 63t118 20.5q54 0 119 -13l-13 -113q-69 11 -82 11q-64 0 -89 -38.5t-38 -131.5l-19 -139h175v-109h-188l-141 -1050q-7 -59 -15.5 -99
t-26.5 -80t-44 -63.5t-68 -38t-99 -14.5z" />
    <glyph glyph-name="uni01C4" unicode="&#x1c4;" horiz-adv-x="1901" 
d="M1431 1798l-174 339h120l122 -245l121 245h120l-176 -339h-133zM1136 0v118l556 1423h-511v117h678v-81l-569 -1460h571v-117h-725zM301 117h209q77 0 130.5 21.5t84 55t47.5 91.5t21.5 113.5t4.5 137.5v619q0 80 -6.5 136t-25 105.5t-51 79t-85 46t-125.5 16.5h-204
v-1421zM144 0v1658h363q101 0 178.5 -23t128.5 -64t83 -103t45.5 -134t13.5 -163v-659q0 -121 -22 -212t-72 -160t-135.5 -104.5t-207.5 -35.5h-375z" />
    <glyph glyph-name="uni01C5" unicode="&#x1c5;" horiz-adv-x="1750" 
d="M1346 1324l-174 339h120l122 -245l121 245h120l-176 -339h-133zM1133 0v105l403 965h-361v114h519v-89l-401 -981h393v-114h-553zM301 117h209q77 0 130.5 21.5t84 55t47.5 91.5t21.5 113.5t4.5 137.5v619q0 80 -6.5 136t-25 105.5t-51 79t-85 46t-125.5 16.5h-204v-1421
zM144 0v1658h363q101 0 178.5 -23t128.5 -64t83 -103t45.5 -134t13.5 -163v-659q0 -121 -22 -212t-72 -160t-135.5 -104.5t-207.5 -35.5h-375z" />
    <glyph glyph-name="uni01C6" unicode="&#x1c6;" horiz-adv-x="1528" 
d="M1124 1324l-174 339h120l122 -245l121 245h120l-176 -339h-133zM911 0v105l403 965h-361v114h519v-89l-401 -981h393v-114h-553zM378 -19q-153 0 -219.5 115t-66.5 382v219q0 98 7 172t26 139t50 106t80 64.5t116 23.5q117 -1 209 -103v559h150v-1658h-150v84
q-90 -102 -202 -103zM408 100q87 0 172 78v822q-90 84 -176 84q-95 0 -128.5 -79.5t-33.5 -259.5v-279q0 -194 34 -280t132 -86z" />
    <glyph glyph-name="uni01C7" unicode="&#x1c7;" horiz-adv-x="1354" 
d="M799 -73v118q59 0 97.5 4t68.5 17.5t46 31.5t26 53.5t12.5 76t2.5 106.5v1324h157v-1334q0 -87 -8 -146t-28.5 -110t-57.5 -80t-96 -45t-143 -16h-77zM144 0v1658h157v-1541h472v-117h-629z" />
    <glyph glyph-name="uni01C8" unicode="&#x1c8;" horiz-adv-x="1219" 
d="M749 -303v114q10 -3 51 -3q36 0 62.5 9t41 23.5t23 37t11 44t2.5 50.5v1212h150v-1225q0 -137 -68 -203t-193 -66q-63 0 -80 7zM940 1347v204h151v-204h-151zM144 0v1658h157v-1541h472v-117h-629z" />
    <glyph glyph-name="uni01C9" unicode="&#x1c9;" horiz-adv-x="850" 
d="M380 -303v114q10 -3 51 -3q36 0 62.5 9t41 23.5t23 37t11 44t2.5 50.5v1212h150v-1225q0 -137 -68 -203t-193 -66q-63 0 -80 7zM571 1347v204h151v-204h-151zM135 0v1658h151v-1658h-151z" />
    <glyph glyph-name="uni01CA" unicode="&#x1ca;" horiz-adv-x="1636" 
d="M1081 -73v118q59 0 97.5 4t68.5 17.5t46 31.5t26 53.5t12.5 76t2.5 106.5v1324h157v-1334q0 -87 -8 -146t-28.5 -110t-57.5 -80t-96 -45t-143 -16h-77zM144 0v1658h115l528 -1287v1287h134v-1658h-110l-532 1302v-1302h-135z" />
    <glyph glyph-name="uni01CB" unicode="&#x1cb;" horiz-adv-x="1501" 
d="M1031 -303v114q10 -3 51 -3q36 0 62.5 9t41 23.5t23 37t11 44t2.5 50.5v1212h150v-1225q0 -137 -68 -203t-193 -66q-63 0 -80 7zM1222 1347v204h151v-204h-151zM144 0v1658h115l528 -1287v1287h134v-1658h-110l-532 1302v-1302h-135z" />
    <glyph glyph-name="uni01CC" unicode="&#x1cc;" horiz-adv-x="1274" 
d="M804 -303v114q10 -3 51 -3q36 0 62.5 9t41 23.5t23 37t11 44t2.5 50.5v1212h150v-1225q0 -137 -68 -203t-193 -66q-63 0 -80 7zM995 1347v204h151v-204h-151zM114 0v1184h150v-123q131 141 285 141q88 0 135 -65.5t47 -186.5v-950h-150v918q0 90 -27.5 128t-85.5 38
q-97 0 -204 -109v-975h-150z" />
    <glyph glyph-name="uni01F1" unicode="&#x1f1;" horiz-adv-x="1901" 
d="M1136 0v118l556 1423h-511v117h678v-81l-569 -1460h571v-117h-725zM301 117h209q77 0 130.5 21.5t84 55t47.5 91.5t21.5 113.5t4.5 137.5v619q0 80 -6.5 136t-25 105.5t-51 79t-85 46t-125.5 16.5h-204v-1421zM144 0v1658h363q101 0 178.5 -23t128.5 -64t83 -103
t45.5 -134t13.5 -163v-659q0 -121 -22 -212t-72 -160t-135.5 -104.5t-207.5 -35.5h-375z" />
    <glyph glyph-name="uni01F2" unicode="&#x1f2;" horiz-adv-x="1750" 
d="M1133 0v105l403 965h-361v114h519v-89l-401 -981h393v-114h-553zM301 117h209q77 0 130.5 21.5t84 55t47.5 91.5t21.5 113.5t4.5 137.5v619q0 80 -6.5 136t-25 105.5t-51 79t-85 46t-125.5 16.5h-204v-1421zM144 0v1658h363q101 0 178.5 -23t128.5 -64t83 -103t45.5 -134
t13.5 -163v-659q0 -121 -22 -212t-72 -160t-135.5 -104.5t-207.5 -35.5h-375z" />
    <glyph glyph-name="uni01F3" unicode="&#x1f3;" horiz-adv-x="1528" 
d="M911 0v105l403 965h-361v114h519v-89l-401 -981h393v-114h-553zM378 -19q-153 0 -219.5 115t-66.5 382v219q0 98 7 172t26 139t50 106t80 64.5t116 23.5q117 -1 209 -103v559h150v-1658h-150v84q-90 -102 -202 -103zM408 100q87 0 172 78v822q-90 84 -176 84
q-95 0 -128.5 -79.5t-33.5 -259.5v-279q0 -194 34 -280t132 -86z" />
    <glyph glyph-name="uni01F4" unicode="&#x1f4;" horiz-adv-x="1064" 
d="M486 1798l128 400h150l-201 -400h-77zM520 -22q-115 0 -196 37t-127 108.5t-66 164.5t-20 217v648q0 126 19.5 217.5t65.5 162.5t129.5 107t204.5 36q215 0 308 -119.5t93 -357.5v-59h-147v59q0 186 -53 269.5t-199 83.5q-67 0 -115 -19.5t-76.5 -51t-45 -83t-22 -104.5
t-5.5 -126v-681q0 -96 11.5 -162.5t40.5 -118t82.5 -76.5t132.5 -25q146 0 202.5 95t56.5 291v196h-244v115h388v-802h-100l-19 188q-69 -210 -299 -210z" />
    <glyph glyph-name="uni01F5" unicode="&#x1f5;" horiz-adv-x="883" 
d="M432 1324l128 400h150l-201 -400h-77zM439 -389q-94 0 -165.5 10t-126.5 33t-84 62.5t-29 94.5q0 86 57 157.5t139 114.5q-54 15 -93 43.5t-39 61.5q0 94 141 239q-148 108 -148 362q0 86 20 159.5t59.5 131t103.5 90t147 32.5q179 0 255 -147q19 33 64 71.5t96 60.5
l31 13l40 -105q-49 -12 -109.5 -43t-85.5 -60q15 -36 26.5 -100t11.5 -107q0 -191 -78.5 -302.5t-248.5 -111.5q-27 0 -66 6.5t-54 12.5q-3 -5 -22.5 -34t-29 -44.5t-19.5 -38t-10 -37.5q0 -29 99 -45q21 -6 100 -17.5t90 -14.5q146 -26 221 -91t75 -182q0 -141 -99 -208
t-269 -67zM437 -269q116 0 183.5 37.5t67.5 113.5q0 65 -46 101t-177 60l-152 20q-150 -93 -150 -203q0 -68 64 -98.5t210 -30.5zM423 479q50 0 87 19t57 48t32 72.5t15.5 82t3.5 88.5q0 306 -194 306q-47 0 -83.5 -19.5t-58 -49.5t-35 -72t-18 -81.5t-4.5 -83.5
q0 -310 198 -310z" />
    <glyph glyph-name="uni0200" unicode="&#x200;" horiz-adv-x="977" 
d="M340 1798l-197 318h159l115 -318h-77zM563 1798l-143 318h134l85 -318h-76zM56 0l350 1658h164l352 -1658h-153l-82 443h-396l-84 -443h-151zM313 557h353l-177 894z" />
    <glyph glyph-name="uni0201" unicode="&#x201;" horiz-adv-x="813" 
d="M250 1324l-197 318h159l115 -318h-77zM473 1324l-143 318h134l85 -318h-76zM319 -19q-104 0 -171 76.5t-67 189.5q0 59 10 105.5t37.5 87.5t60 72.5t92.5 67t120 65.5t157 73v85q0 163 -31 224.5t-116 61.5q-164 0 -164 -203v-43l-148 5q0 29 1 36q7 167 87 242.5
t232 75.5q157 0 223 -93t66 -298v-576q0 -143 11 -235h-133l-22 164q-27 -78 -91.5 -130.5t-153.5 -52.5zM368 110q60 0 110.5 41.5t79.5 98.5v369q-6 -3 -19 -10q-49 -26 -75 -40t-62.5 -35t-54.5 -35t-41.5 -34t-34 -37.5t-21.5 -40.5t-15 -48.5t-4 -56.5q0 -87 39 -129.5
t98 -42.5z" />
    <glyph glyph-name="uni0202" unicode="&#x202;" horiz-adv-x="977" 
d="M242 1798q8 256 249 256q238 0 246 -256h-96q-1 88 -39 127t-110 39t-111 -39t-43 -127h-96zM56 0l350 1658h164l352 -1658h-153l-82 443h-396l-84 -443h-151zM313 557h353l-177 894z" />
    <glyph glyph-name="uni0203" unicode="&#x203;" horiz-adv-x="813" 
d="M152 1324q8 256 249 256q238 0 246 -256h-96q-1 88 -39 127t-110 39t-111 -39t-43 -127h-96zM319 -19q-104 0 -171 76.5t-67 189.5q0 59 10 105.5t37.5 87.5t60 72.5t92.5 67t120 65.5t157 73v85q0 163 -31 224.5t-116 61.5q-164 0 -164 -203v-43l-148 5q0 29 1 36
q7 167 87 242.5t232 75.5q157 0 223 -93t66 -298v-576q0 -143 11 -235h-133l-22 164q-27 -78 -91.5 -130.5t-153.5 -52.5zM368 110q60 0 110.5 41.5t79.5 98.5v369q-6 -3 -19 -10q-49 -26 -75 -40t-62.5 -35t-54.5 -35t-41.5 -34t-34 -37.5t-21.5 -40.5t-15 -48.5t-4 -56.5
q0 -87 39 -129.5t98 -42.5z" />
    <glyph glyph-name="uni0204" unicode="&#x204;" 
d="M296 1798l-197 318h159l115 -318h-77zM519 1798l-143 318h134l85 -318h-76zM144 0v1658h599v-120h-442v-621h362v-116h-362v-684h447v-117h-604z" />
    <glyph glyph-name="uni0205" unicode="&#x205;" horiz-adv-x="809" 
d="M257 1324l-197 318h159l115 -318h-77zM480 1324l-143 318h134l85 -318h-76zM412 -19q-170 0 -245 105t-75 359v299q0 173 35.5 274.5t104 142.5t181.5 41q75 0 128 -19.5t88 -55.5t55.5 -97.5t28.5 -136t8 -179.5l-1 -107h-478v-177q0 -184 35.5 -260t133.5 -76
q78 0 120 49.5t42 179.5v82h147v-66q0 -172 -72 -265t-236 -93zM242 693h331v98q0 62 -3 103t-12.5 81.5t-26.5 63.5t-47 37t-72 14q-95 0 -132.5 -66t-37.5 -251v-80z" />
    <glyph glyph-name="uni0206" unicode="&#x206;" 
d="M198 1798q8 256 249 256q238 0 246 -256h-96q-1 88 -39 127t-110 39t-111 -39t-43 -127h-96zM144 0v1658h599v-120h-442v-621h362v-116h-362v-684h447v-117h-604z" />
    <glyph glyph-name="uni0207" unicode="&#x207;" horiz-adv-x="809" 
d="M159 1324q8 256 249 256q238 0 246 -256h-96q-1 88 -39 127t-110 39t-111 -39t-43 -127h-96zM412 -19q-170 0 -245 105t-75 359v299q0 173 35.5 274.5t104 142.5t181.5 41q75 0 128 -19.5t88 -55.5t55.5 -97.5t28.5 -136t8 -179.5l-1 -107h-478v-177q0 -184 35.5 -260
t133.5 -76q78 0 120 49.5t42 179.5v82h147v-66q0 -172 -72 -265t-236 -93zM242 693h331v98q0 62 -3 103t-12.5 81.5t-26.5 63.5t-47 37t-72 14q-95 0 -132.5 -66t-37.5 -251v-80z" />
    <glyph glyph-name="uni0208" unicode="&#x208;" horiz-adv-x="454" 
d="M78 1798l-197 318h159l115 -318h-77zM301 1798l-143 318h134l85 -318h-76zM151 0v1658h154v-1658h-154z" />
    <glyph glyph-name="uni0209" unicode="&#x209;" horiz-adv-x="405" 
d="M56 1324l-197 318h159l115 -318h-77zM279 1324l-143 318h134l85 -318h-76zM130 0v1184h150v-1184h-150z" />
    <glyph glyph-name="uni020A" unicode="&#x20a;" horiz-adv-x="454" 
d="M-20 1798q8 256 249 256q238 0 246 -256h-96q-1 88 -39 127t-110 39t-111 -39t-43 -127h-96zM151 0v1658h154v-1658h-154z" />
    <glyph glyph-name="uni020B" unicode="&#x20b;" horiz-adv-x="405" 
d="M-42 1324q8 256 249 256q238 0 246 -256h-96q-1 88 -39 127t-110 39t-111 -39t-43 -127h-96zM130 0v1184h150v-1184h-150z" />
    <glyph glyph-name="uni020C" unicode="&#x20c;" horiz-adv-x="1074" 
d="M388 1798l-197 318h159l115 -318h-77zM611 1798l-143 318h134l85 -318h-76zM537 105q80 0 134 24.5t82.5 73.5t40 109t11.5 144v750q0 84 -11.5 143.5t-40 107.5t-82.5 71.5t-134 23.5t-134 -23.5t-82.5 -71.5t-40 -107.5t-11.5 -143.5v-750q0 -84 11.5 -144t40 -109
t82.5 -73.5t134 -24.5zM537 -21q-120 0 -204.5 36.5t-132 107t-68.5 160t-21 207.5v688q0 117 21.5 205t70 155.5t132.5 102.5t202 35t202 -35t132.5 -103t70 -156t21.5 -204v-690q0 -93 -12.5 -168t-43 -140t-78.5 -108.5t-122 -68t-170 -24.5z" />
    <glyph glyph-name="uni020D" unicode="&#x20d;" 
d="M258 1324l-197 318h159l115 -318h-77zM481 1324l-143 318h134l85 -318h-76zM408 94q45 0 76 16.5t48.5 41.5t26.5 71t11.5 88t2.5 109v344q0 67 -2.5 109t-11.5 88t-26.5 71t-48.5 41.5t-76 16.5q-38 0 -66 -10t-46 -32.5t-29 -48t-16.5 -66.5t-7 -77.5t-1.5 -91.5v-344
q0 -55 1.5 -91.5t7 -77.5t16.5 -66.5t29 -48t46 -32.5t66 -10zM408 -19q-91 0 -153 29t-97.5 88t-50.5 138.5t-15 191.5v328q0 226 70 336t246 110q177 0 246.5 -109.5t69.5 -336.5v-328q0 -112 -15 -191.5t-50.5 -138.5t-97.5 -88t-153 -29z" />
    <glyph glyph-name="uni020E" unicode="&#x20e;" horiz-adv-x="1074" 
d="M290 1798q8 256 249 256q238 0 246 -256h-96q-1 88 -39 127t-110 39t-111 -39t-43 -127h-96zM537 105q80 0 134 24.5t82.5 73.5t40 109t11.5 144v750q0 84 -11.5 143.5t-40 107.5t-82.5 71.5t-134 23.5t-134 -23.5t-82.5 -71.5t-40 -107.5t-11.5 -143.5v-750
q0 -84 11.5 -144t40 -109t82.5 -73.5t134 -24.5zM537 -21q-120 0 -204.5 36.5t-132 107t-68.5 160t-21 207.5v688q0 117 21.5 205t70 155.5t132.5 102.5t202 35t202 -35t132.5 -103t70 -156t21.5 -204v-690q0 -93 -12.5 -168t-43 -140t-78.5 -108.5t-122 -68t-170 -24.5z
" />
    <glyph glyph-name="uni020F" unicode="&#x20f;" 
d="M160 1324q8 256 249 256q238 0 246 -256h-96q-1 88 -39 127t-110 39t-111 -39t-43 -127h-96zM408 94q45 0 76 16.5t48.5 41.5t26.5 71t11.5 88t2.5 109v344q0 67 -2.5 109t-11.5 88t-26.5 71t-48.5 41.5t-76 16.5q-38 0 -66 -10t-46 -32.5t-29 -48t-16.5 -66.5t-7 -77.5
t-1.5 -91.5v-344q0 -55 1.5 -91.5t7 -77.5t16.5 -66.5t29 -48t46 -32.5t66 -10zM408 -19q-91 0 -153 29t-97.5 88t-50.5 138.5t-15 191.5v328q0 226 70 336t246 110q177 0 246.5 -109.5t69.5 -336.5v-328q0 -112 -15 -191.5t-50.5 -138.5t-97.5 -88t-153 -29z" />
    <glyph glyph-name="uni0210" unicode="&#x210;" horiz-adv-x="1049" 
d="M402 1798l-197 318h159l115 -318h-77zM625 1798l-143 318h134l85 -318h-76zM144 0v1658h377q221 0 316 -106.5t95 -312.5q0 -343 -231 -391l257 -848h-154l-243 815h-260v-815h-157zM301 930h211q150 0 209 73.5t59 235.5q0 160 -56 231t-207 71h-216v-611z" />
    <glyph glyph-name="uni0211" unicode="&#x211;" horiz-adv-x="610" 
d="M201 1324l-197 318h159l115 -318h-77zM424 1324l-143 318h134l85 -318h-76zM126 0v1184h150v-163q54 90 126.5 133t146.5 43q18 0 26 -1v-162q-32 13 -72 13q-144 0 -227 -138v-909h-150z" />
    <glyph glyph-name="uni0212" unicode="&#x212;" horiz-adv-x="1049" 
d="M304 1798q8 256 249 256q238 0 246 -256h-96q-1 88 -39 127t-110 39t-111 -39t-43 -127h-96zM144 0v1658h377q221 0 316 -106.5t95 -312.5q0 -343 -231 -391l257 -848h-154l-243 815h-260v-815h-157zM301 930h211q150 0 209 73.5t59 235.5q0 160 -56 231t-207 71h-216
v-611z" />
    <glyph glyph-name="uni0213" unicode="&#x213;" horiz-adv-x="610" 
d="M103 1324q8 256 249 256q238 0 246 -256h-96q-1 88 -39 127t-110 39t-111 -39t-43 -127h-96zM126 0v1184h150v-163q54 90 126.5 133t146.5 43q18 0 26 -1v-162q-32 13 -72 13q-144 0 -227 -138v-909h-150z" />
    <glyph glyph-name="uni0214" unicode="&#x214;" horiz-adv-x="1100" 
d="M400 1798l-197 318h159l115 -318h-77zM623 1798l-143 318h134l85 -318h-76zM551 -21q-99 0 -174 23t-122 63.5t-76 101.5t-40.5 129.5t-11.5 156.5v1205h151v-1210q0 -62 7 -111t25 -93.5t48 -74t79 -47t114 -17.5q78 0 132.5 25.5t84 74t42.5 107.5t13 136v1210h150
v-1205q0 -87 -12 -156t-42 -130t-77.5 -101.5t-121 -63.5t-169.5 -23z" />
    <glyph glyph-name="uni0215" unicode="&#x215;" horiz-adv-x="843" 
d="M267 1324l-197 318h159l115 -318h-77zM490 1324l-143 318h134l85 -318h-76zM288 -18q-89 0 -136 66t-47 187v949h151v-918q0 -90 27 -128t85 -38q101 0 210 116v968h150v-1184h-150v131q-132 -149 -290 -149z" />
    <glyph glyph-name="uni0216" unicode="&#x216;" horiz-adv-x="1100" 
d="M302 1798q8 256 249 256q238 0 246 -256h-96q-1 88 -39 127t-110 39t-111 -39t-43 -127h-96zM551 -21q-99 0 -174 23t-122 63.5t-76 101.5t-40.5 129.5t-11.5 156.5v1205h151v-1210q0 -62 7 -111t25 -93.5t48 -74t79 -47t114 -17.5q78 0 132.5 25.5t84 74t42.5 107.5
t13 136v1210h150v-1205q0 -87 -12 -156t-42 -130t-77.5 -101.5t-121 -63.5t-169.5 -23z" />
    <glyph glyph-name="uni0217" unicode="&#x217;" horiz-adv-x="843" 
d="M169 1324q8 256 249 256q238 0 246 -256h-96q-1 88 -39 127t-110 39t-111 -39t-43 -127h-96zM288 -18q-89 0 -136 66t-47 187v949h151v-918q0 -90 27 -128t85 -38q101 0 210 116v968h150v-1184h-150v131q-132 -149 -290 -149z" />
    <glyph glyph-name="Scommaaccent" unicode="&#x218;" horiz-adv-x="942" 
d="M431 -546l-37 68q95 39 95 155h-87v181h167l-1 -160q-1 -108 -29.5 -165.5t-107.5 -78.5zM499 -20q-197 0 -298.5 118.5t-117.5 331.5l139 40q7 -66 17.5 -116.5t31 -99t50 -79.5t75 -50t104.5 -19q234 0 234 240q0 53 -13.5 99.5t-43 91t-62 80.5t-84.5 87l-294 282
q-150 144 -150 334q0 169 100.5 262t272.5 94h7q181 0 277 -98q98 -100 114 -323l-132 -34q-14 168 -72 252q-56 80 -180 80h-12q-109 -3 -171.5 -57t-62.5 -163q0 -68 26.5 -123.5t90.5 -117.5l292 -277q113 -108 178 -218.5t65 -239.5q0 -181 -104.5 -279t-276.5 -98z" />
    <glyph glyph-name="scommaaccent" unicode="&#x219;" horiz-adv-x="743" 
d="M325 -545l-37 68q95 39 95 155h-87v181h167l-1 -160q-1 -108 -29.5 -165.5t-107.5 -78.5zM385 -19q-141 0 -225.5 91t-96.5 246l126 38q12 -135 62 -198.5t140 -63.5q78 0 123 46q43 44 43 118v7q-3 118 -144 236l-161 137q-85 71 -124 139q-38 66 -38 154q0 130 78 201
q76 70 205 70q131 0 201.5 -84t78.5 -227l-106 -35q-7 119 -48.5 176.5t-119.5 57.5q-70 0 -112 -39q-41 -38 -41 -102q0 -58 21 -99.5t77 -89.5l167 -150q45 -39 73.5 -68.5t60.5 -73t47.5 -94t16.5 -108.5q0 -136 -82 -210.5t-222 -74.5z" />
    <glyph glyph-name="uni021A" unicode="&#x21a;" horiz-adv-x="795" 
d="M347 -526l-37 68q95 39 95 155h-87v181h167l-1 -160q-1 -108 -29.5 -165.5t-107.5 -78.5zM323 0v1538h-333v120h815v-120h-325v-1538h-157z" />
    <glyph glyph-name="uni021B" unicode="&#x21b;" horiz-adv-x="573" 
d="M233 -541l-37 68q95 39 95 155h-87v181h167l-1 -160q-1 -108 -29.5 -165.5t-107.5 -78.5zM395 -15q-121 0 -167 66.5t-47 194.5v838h-143v100h143v366h150v-366h197v-100h-197v-824q0 -90 21 -123.5t85 -33.5q41 0 84 8v-113q-67 -13 -126 -13z" />
    <glyph glyph-name="uni0237" unicode="&#x237;" horiz-adv-x="436" 
d="M-34 -318v114q10 -3 51 -3q36 0 62.5 9t41 23.5t23 37t11 44t2.5 50.5v1227h150v-1240q0 -137 -68 -203t-193 -66q-63 0 -80 7z" />
    <glyph glyph-name="afii57929" unicode="&#x2bc;" horiz-adv-x="586" 
d="M167 1174v484h144l-62 -484h-82z" />
    <glyph glyph-name="circumflex" unicode="&#x2c6;" horiz-adv-x="673" 
d="M75 1280l177 378h168l174 -378h-109l-150 304l-149 -304h-111z" />
    <glyph glyph-name="caron" unicode="&#x2c7;" horiz-adv-x="613" 
d="M242 1319l-174 339h120l121 -245l121 245h120l-176 -339h-132z" />
    <glyph glyph-name="breve" unicode="&#x2d8;" horiz-adv-x="727" 
d="M364 1402q-239 0 -245 256h95q2 -88 40 -127t110 -39t110.5 39t42.5 127h96q-6 -256 -249 -256z" />
    <glyph glyph-name="dotaccent" unicode="&#x2d9;" horiz-adv-x="418" 
d="M-79 122v224h159v-224h-159z" />
    <glyph glyph-name="ring" unicode="&#x2da;" horiz-adv-x="590" 
d="M295 1289q-83 0 -139 51t-56 144t56 143.5t139 50.5t139.5 -51t56.5 -143q0 -93 -56.5 -144t-139.5 -51zM296 1370q49 0 80 29t31 85q0 57 -31.5 85.5t-80.5 28.5t-80 -29t-31 -85t31.5 -85t80.5 -29z" />
    <glyph glyph-name="ogonek" unicode="&#x2db;" horiz-adv-x="465" 
d="M330 -429q-146 0 -218.5 37.5t-72.5 130.5q0 80 56 156.5t130 109.5h81q-152 -163 -152 -259q0 -30 17.5 -50.5t50 -29.5t63 -12t71.5 -3z" />
    <glyph glyph-name="tilde" unicode="&#x2dc;" horiz-adv-x="790" 
d="M499 1471q-44 2 -117 48t-95 48q-31 5 -49 -15.5t-18 -65.5h-94q0 30 7 60t23 60q18 32 52 48q26 13 60 12q10 0 22 -1q33 -3 76 -25.5t80 -45t56 -24.5q34 -4 50 17t17 71h91q0 -34 -6 -63.5t-22 -61t-50 -49.5q-28 -14 -65 -14q-9 0 -18 1z" />
    <glyph glyph-name="hungarumlaut" unicode="&#x2dd;" horiz-adv-x="554" 
d="M164 1345l79 328h135l-135 -328h-79zM374 1345l114 328h162l-195 -328h-81z" />
    <glyph glyph-name="gravecomb" unicode="&#x300;" horiz-adv-x="0" 
d="M94 1258l-189 400h152l114 -400h-77z" />
    <glyph glyph-name="acutecomb" unicode="&#x301;" horiz-adv-x="181" 
d="M9 1258l128 400h150l-201 -400h-77z" />
    <glyph glyph-name="uni0302" unicode="&#x302;" horiz-adv-x="673" 
d="M75 1295l177 363h168l174 -363h-109l-150 289l-149 -289h-111z" />
    <glyph glyph-name="tildecomb" unicode="&#x303;" horiz-adv-x="790" 
d="M499 1471q-44 2 -117 48t-95 48q-31 5 -49 -15.5t-18 -65.5h-94q0 30 7 60t23 60q18 32 52 48q26 13 60 12q10 0 22 -1q33 -3 76 -25.5t80 -45t56 -24.5q34 -4 50 17t17 71h91q0 -34 -6 -63.5t-22 -61t-50 -49.5q-28 -14 -65 -14q-9 0 -18 1z" />
    <glyph glyph-name="uni0304" unicode="&#x304;" horiz-adv-x="704" 
d="M178 1562v96h367v-96h-367z" />
    <glyph glyph-name="uni0306" unicode="&#x306;" horiz-adv-x="727" 
d="M364 1402q-123 0 -187.5 66.5t-67.5 189.5h95q4 -166 160 -166t163 166h96q-3 -123 -68.5 -189.5t-190.5 -66.5z" />
    <glyph glyph-name="uni0307" unicode="&#x307;" horiz-adv-x="0" 
d="M-57 1434v224h159v-224h-159z" />
    <glyph glyph-name="uni0308" unicode="&#x308;" horiz-adv-x="414" 
d="M-38 1477v181h154v-181h-154zM298 1477v181h154v-181h-154z" />
    <glyph glyph-name="uni030A" unicode="&#x30a;" horiz-adv-x="590" 
d="M295 1289q-83 0 -139 51t-56 144t56 143.5t139 50.5t139.5 -51t56.5 -143q0 -93 -56.5 -144t-139.5 -51zM296 1370q49 0 80 29t31 85q0 57 -31.5 85.5t-80.5 28.5t-80 -29t-31 -85t31.5 -85t80.5 -29z" />
    <glyph glyph-name="uni030C" unicode="&#x30c;" horiz-adv-x="0" 
d="M-22 1319l-174 339h120l122 -245l121 245h120l-176 -339h-133z" />
    <glyph glyph-name="uni030F" unicode="&#x30f;" horiz-adv-x="562" 
d="M234 1340l-197 318h159l115 -318h-77zM457 1340l-143 318h134l85 -318h-76z" />
    <glyph glyph-name="uni0311" unicode="&#x311;" horiz-adv-x="727" 
d="M118 1402q8 256 249 256q238 0 246 -256h-96q-1 88 -39 127t-110 39t-111 -39t-43 -127h-96z" />
    <glyph glyph-name="uni0326" unicode="&#x326;" horiz-adv-x="402" 
d="M147 -485l-37 68q95 39 95 155h-87v181h167l-1 -160q-1 -108 -29.5 -165.5t-107.5 -78.5z" />
    <glyph glyph-name="Pi" unicode="&#x3a0;" horiz-adv-x="1146" 
d="M144 0v1658h859v-1658h-151v1543h-558v-1543h-150z" />
    <glyph glyph-name="pi" unicode="&#x3c0;" horiz-adv-x="957" 
d="M309 1069v-1069h-150v1069h-127v115h858v-115h-149v-743q0 -134 24.5 -174.5t113.5 -40.5l-14 -121q-159 0 -216.5 68t-57.5 230v781h-282z" />
    <glyph glyph-name="uni0400" unicode="&#x400;" 
d="M408 1798l-189 400h152l114 -400h-77zM144 0v1658h599v-120h-442v-621h362v-116h-362v-684h447v-117h-604z" />
    <glyph glyph-name="afii10023" unicode="&#x401;" 
d="M201 1798v181h154v-181h-154zM537 1798v181h154v-181h-154zM144 0v1658h599v-120h-442v-621h362v-116h-362v-684h447v-117h-604z" />
    <glyph glyph-name="afii10051" unicode="&#x402;" horiz-adv-x="1040" 
d="M546 0v116q141 0 196.5 72t55.5 213v253q0 97 -54 154t-144 57q-98 0 -193 -63v-802h-154v1538h-279v120h733v-120h-300v-641q37 36 97 57t126 21q60 0 115 -18.5t101.5 -55.5t74 -100.5t27.5 -146.5v-254q0 -206 -94 -303t-282 -97h-26z" />
    <glyph glyph-name="afii10052" unicode="&#x403;" horiz-adv-x="769" 
d="M400 1798l128 400h150l-201 -400h-77zM144 0v1658h589v-120h-432v-1538h-157z" />
    <glyph glyph-name="afii10053" unicode="&#x404;" horiz-adv-x="1005" 
d="M531 -21q-98 0 -172.5 27t-121 72t-75.5 113t-40 142t-11 166v659q0 96 11.5 171.5t41 142t76.5 110.5t120.5 69t170.5 25q109 0 186 -32.5t122 -95.5t65 -147t20 -196v-62h-148v57q0 88 -9 147t-34.5 108.5t-75 73t-125.5 23.5q-82 0 -135.5 -26t-80.5 -79t-37 -115.5
t-10 -153.5v-251h421v-113h-421v-340q0 -193 57.5 -281t205.5 -88q61 0 105 17.5t70.5 46.5t42 76.5t21 98t5.5 120.5v78h148v-67q0 -91 -11 -163.5t-38.5 -136.5t-71.5 -106t-112.5 -66t-159.5 -24z" />
    <glyph glyph-name="afii10054" unicode="&#x405;" horiz-adv-x="942" 
d="M499 -20q-197 0 -298.5 118.5t-117.5 331.5l139 40q7 -66 17.5 -116.5t31 -99t50 -79.5t75 -50t104.5 -19q234 0 234 240q0 53 -13.5 99.5t-43 91t-62 80.5t-84.5 87l-294 282q-150 144 -150 334q0 169 100.5 262t272.5 94h7q181 0 277 -98q98 -100 114 -323l-132 -34
q-14 168 -72 252q-56 80 -180 80h-12q-109 -3 -171.5 -57t-62.5 -163q0 -68 26.5 -123.5t90.5 -117.5l292 -277q113 -108 178 -218.5t65 -239.5q0 -181 -104.5 -279t-276.5 -98z" />
    <glyph glyph-name="afii10055" unicode="&#x406;" horiz-adv-x="454" 
d="M151 0v1658h154v-1658h-154z" />
    <glyph glyph-name="afii10056" unicode="&#x407;" horiz-adv-x="454" 
d="M-17 1798v181h154v-181h-154zM319 1798v181h154v-181h-154zM151 0v1658h154v-1658h-154z" />
    <glyph glyph-name="afii10057" unicode="&#x408;" horiz-adv-x="571" 
d="M16 -73v118q59 0 97.5 4t68.5 17.5t46 31.5t26 53.5t12.5 76t2.5 106.5v1324h157v-1334q0 -87 -8 -146t-28.5 -110t-57.5 -80t-96 -45t-143 -16h-77z" />
    <glyph glyph-name="afii10058" unicode="&#x409;" horiz-adv-x="1679" 
d="M38 -4v121h18q40 0 70 7q36 9 64 38t45.5 68.5t31.5 114.5t23 158.5t19 216.5l65 938h645v-695h122q247 0 362 -115t115 -372q0 -233 -113 -354.5t-357 -121.5h-286v1540h-347l-60 -820q-9 -120 -18 -205t-23.5 -167t-34 -135t-47 -98.5t-64.5 -70.5q-38 -24 -86 -37
q-45 -12 -102 -12h-9zM1019 120h131q171 0 243.5 82.5t72.5 275.5q0 186 -72 275.5t-246 89.5h-129v-723z" />
    <glyph glyph-name="afii10059" unicode="&#x40a;" horiz-adv-x="1559" 
d="M1036 0l-286 1v842h-449v-842h-157v1659h157v-701h449v701h157v-697h122q247 0 362 -115t115 -372q0 -233 -113 -354.5t-357 -121.5zM907 120h131q171 0 243.5 82.5t72.5 275.5q0 186 -72 275.5t-246 89.5h-129v-723z" />
    <glyph glyph-name="afii10060" unicode="&#x40b;" horiz-adv-x="945" 
d="M223 0v1538h-299v120h764v-120h-311v-642q31 28 92 53t139 25q98 0 164.5 -51t66.5 -154v-769h-151v744q0 135 -122 135q-103 0 -189 -79v-800h-154z" />
    <glyph glyph-name="afii10061" unicode="&#x40c;" horiz-adv-x="990" 
d="M519 1798l128 400h150l-201 -400h-77zM144 0v1658h157v-761h118l338 761h159l-360 -798l415 -860h-158l-393 813h-119v-813h-157z" />
    <glyph glyph-name="uni040D" unicode="&#x40d;" horiz-adv-x="1084" 
d="M504 1798l-189 400h152l114 -400h-77zM144 0v1658h139v-1314l537 1314h120v-1658h-139v1321l-534 -1321h-123z" />
    <glyph glyph-name="afii10062" unicode="&#x40e;" horiz-adv-x="926" 
d="M472 1798q-123 0 -187.5 66.5t-67.5 189.5h95q4 -166 160 -166t163 166h96q-3 -123 -68.5 -189.5t-190.5 -66.5zM119 -213l1 122q40 -2 72 -2q24 0 44 1q46 3 79.5 19t51 33.5t27.5 59t13 79.5t4 110l-354 1449h151l171 -744l110 -533l97 535l151 742h153l-317 -1456
q-4 -19 -11 -56q-16 -78 -28 -127.5t-31.5 -95t-46.5 -70t-72.5 -42.5t-108.5 -23q-35 -3 -79 -3q-36 0 -77 2z" />
    <glyph glyph-name="afii10145" unicode="&#x40f;" horiz-adv-x="1074" 
d="M490 -285l-13 285h-333v1658h157v-1543h472v1543h157v-1658h-309l-12 -285h-119z" />
    <glyph glyph-name="afii10017" unicode="&#x410;" horiz-adv-x="977" 
d="M56 0l350 1658h164l352 -1658h-153l-82 443h-396l-84 -443h-151zM313 557h353l-177 894z" />
    <glyph glyph-name="afii10018" unicode="&#x411;" horiz-adv-x="981" 
d="M144 0v1658h665v-116h-508v-579h133q246 0 361.5 -115t115.5 -372q0 -233 -113 -354.5t-357 -121.5h-297zM301 120h142q170 0 242.5 82.5t72.5 275.5q0 187 -72 276t-246 89h-139v-723z" />
    <glyph glyph-name="afii10019" unicode="&#x412;" horiz-adv-x="1027" 
d="M144 0v1658h356q217 0 312 -107t95 -306q0 -86 -18 -155.5t-67 -124.5t-126 -71q70 -19 120.5 -61t78 -99.5t39.5 -119.5t12 -134q0 -84 -10.5 -152t-37.5 -130.5t-70.5 -105t-112.5 -67.5t-160 -25h-411zM301 117h225q155 0 212 84t57 278q0 344 -267 344h-227v-706z
M301 944h226q133 0 186 77t53 224q0 157 -67.5 225t-248.5 68h-149v-594z" />
    <glyph glyph-name="afii10020" unicode="&#x413;" horiz-adv-x="769" 
d="M144 0v1658h589v-120h-432v-1538h-157z" />
    <glyph glyph-name="afii10021" unicode="&#x414;" horiz-adv-x="1204" 
d="M20 -285v402h65q34 24 53.5 40.5t46.5 51t43 77.5t36.5 115.5t34 169.5t28 235t26.5 316l36 536h625v-1541h136v-402h-123l-15 285h-855l-14 -285h-123zM244 117h613v1423h-330l-31 -452q-22 -342 -54 -542q-40 -255 -112 -349q-25 -33 -86 -80z" />
    <glyph glyph-name="afii10022" unicode="&#x415;" 
d="M144 0v1658h599v-120h-442v-621h362v-116h-362v-684h447v-117h-604z" />
    <glyph glyph-name="afii10024" unicode="&#x416;" horiz-adv-x="1306" 
d="M30 0l412 859l-373 799h151l350 -790h14v790h138v-790h14l350 790h151l-373 -799l412 -859h-154l-381 839h-19v-839h-138v839h-19l-381 -839h-154z" />
    <glyph glyph-name="afii10025" unicode="&#x417;" horiz-adv-x="958" 
d="M489 -21q-187 0 -278.5 106.5t-91.5 297.5v40h146q0 -36 1 -46q2 -134 54.5 -204t168.5 -70q120 0 180.5 81.5t60.5 265.5q0 343 -283 355q-9 1 -88 1v118h86q155 5 220 86.5t65 250.5q0 293 -234 293q-125 0 -186 -67.5t-65 -210.5q-1 -9 -1 -38h-146v38
q0 189 96.5 294.5t296.5 105.5q190 0 291 -113.5t101 -302.5q0 -168 -66 -267.5t-174 -124.5q48 -13 89 -43t76 -78.5t55 -124t20 -170.5q0 -108 -22 -193t-68.5 -148.5t-123 -97.5t-180.5 -34z" />
    <glyph glyph-name="afii10026" unicode="&#x418;" horiz-adv-x="1084" 
d="M144 0v1658h139v-1314l537 1314h120v-1658h-139v1321l-534 -1321h-123z" />
    <glyph glyph-name="afii10027" unicode="&#x419;" horiz-adv-x="1084" 
d="M540 1798q-123 0 -187.5 66.5t-67.5 189.5h95q4 -166 160 -166t163 166h96q-3 -123 -68.5 -189.5t-190.5 -66.5zM144 0v1658h139v-1314l537 1314h120v-1658h-139v1321l-534 -1321h-123z" />
    <glyph glyph-name="afii10028" unicode="&#x41a;" horiz-adv-x="990" 
d="M144 0v1658h157v-761h118l338 761h159l-360 -798l415 -860h-158l-393 813h-119v-813h-157z" />
    <glyph glyph-name="afii10029" unicode="&#x41b;" horiz-adv-x="1159" 
d="M34 -4v121q35 1 54 3t44 9t38 17.5t31 33.5t27 51.5t21.5 76.5t20 104t17.5 138t17.5 174.5t17.5 217.5l49 716h645v-1658h-157v1540h-348l-40 -599q-13 -170 -22 -267.5t-23.5 -209.5t-28.5 -169t-37.5 -120.5t-50.5 -90t-68.5 -51.5t-90.5 -31q-42 -6 -98 -6h-18z" />
    <glyph glyph-name="afii10030" unicode="&#x41c;" horiz-adv-x="1316" 
d="M130 0l43 1658h143l340 -1402l342 1402h147l41 -1658h-128l-29 1273l-322 -1273h-100l-319 1270l-29 -1270h-129z" />
    <glyph glyph-name="afii10031" unicode="&#x41d;" horiz-adv-x="1124" 
d="M144 0v1658h157v-735h522v735h157v-1658h-157v808h-522v-808h-157z" />
    <glyph glyph-name="afii10032" unicode="&#x41e;" horiz-adv-x="1074" 
d="M537 105q80 0 134 24.5t82.5 73.5t40 109t11.5 144v750q0 84 -11.5 143.5t-40 107.5t-82.5 71.5t-134 23.5t-134 -23.5t-82.5 -71.5t-40 -107.5t-11.5 -143.5v-750q0 -84 11.5 -144t40 -109t82.5 -73.5t134 -24.5zM537 -21q-120 0 -204.5 36.5t-132 107t-68.5 160
t-21 207.5v688q0 117 21.5 205t70 155.5t132.5 102.5t202 35t202 -35t132.5 -103t70 -156t21.5 -204v-690q0 -93 -12.5 -168t-43 -140t-78.5 -108.5t-122 -68t-170 -24.5z" />
    <glyph glyph-name="afii10033" unicode="&#x41f;" horiz-adv-x="1137" 
d="M144 0v1658h849v-1658h-157v1543h-535v-1543h-157z" />
    <glyph glyph-name="afii10034" unicode="&#x420;" horiz-adv-x="979" 
d="M144 0v1658h398q109 0 187 -31t123 -90.5t65 -137.5t20 -180q0 -92 -21.5 -168.5t-67 -137t-123 -94.5t-181.5 -34h-243v-785h-157zM301 901h199q153 0 218.5 70.5t65.5 246.5q0 191 -58 257.5t-224 66.5h-201v-641z" />
    <glyph glyph-name="afii10035" unicode="&#x421;" horiz-adv-x="1021" 
d="M531 -21q-98 0 -172.5 27t-121 72t-75.5 113t-40 142t-11 166v659q0 96 11.5 171.5t41 142t76.5 110.5t120.5 69t170.5 25q109 0 186 -32.5t122 -95.5t65 -147t20 -196v-102h-148v97q0 88 -9 147t-34.5 108.5t-75 73t-125.5 23.5q-82 0 -135.5 -26t-80.5 -79t-37 -115.5
t-10 -153.5v-704q0 -193 57.5 -281t205.5 -88q61 0 105 17.5t70.5 46.5t42 76.5t21 98t5.5 120.5v108h148v-97q0 -91 -11 -163.5t-38.5 -136.5t-71.5 -106t-112.5 -66t-159.5 -24z" />
    <glyph glyph-name="afii10036" unicode="&#x422;" horiz-adv-x="795" 
d="M323 0v1538h-333v120h815v-120h-325v-1538h-157z" />
    <glyph glyph-name="afii10037" unicode="&#x423;" horiz-adv-x="926" 
d="M119 -213l1 122q40 -2 72 -2q24 0 44 1q46 3 79.5 19t51 33.5t27.5 59t13 79.5t4 110l-354 1449h151l171 -744l110 -533l97 535l151 742h153l-317 -1456q-4 -19 -11 -56q-16 -78 -28 -127.5t-31.5 -95t-46.5 -70t-72.5 -42.5t-108.5 -23q-35 -3 -79 -3q-36 0 -77 2z" />
    <glyph glyph-name="afii10038" unicode="&#x424;" horiz-adv-x="1268" 
d="M553 -99v291q-38 -4 -89 -4q-14 -1 -28 -1q-154 -1 -236 95q-88 104 -89 329v458q0 227 92 335q87 102 255 102h19q46 0 76 -2v304h157v-304q26 3 88 3h19q165 0 250 -102q90 -108 90 -336v-458q-1 -224 -89 -328q-81 -96 -237 -96q-14 0 -28 1q-55 0 -93 4v-291h-157z
M489 288q37 0 64 3v1113q-24 3 -59 3h-13q-125 0 -173 -75q-50 -79 -51 -263v-458q1 -181 49 -254q46 -69 169 -69h14zM780 288h14q123 0 169 69q49 73 49 254v458q0 184 -50 263q-48 75 -175 75h-13q-16 0 -64 -3v-1113q27 -3 70 -3z" />
    <glyph glyph-name="afii10039" unicode="&#x425;" horiz-adv-x="949" 
d="M29 0l358 864l-354 795h144l298 -662l285 662h150l-368 -814l378 -845h-148l-314 700l-279 -700h-150z" />
    <glyph glyph-name="afii10040" unicode="&#x426;" horiz-adv-x="1188" 
d="M1010 -285l-15 285h-851v1658h157v-1543h545v1543h157v-1543h131v-400h-124z" />
    <glyph glyph-name="afii10041" unicode="&#x427;" horiz-adv-x="1059" 
d="M758 0v768q-134 -33 -244 -33q-406 0 -406 367v556h145v-555q0 -143 73.5 -201.5t214.5 -58.5q111 0 217 32v783h157v-1658h-157z" />
    <glyph glyph-name="afii10042" unicode="&#x428;" horiz-adv-x="1474" 
d="M144 0v1658h157v-1542h365v1542h157v-1542h350v1542h157v-1658h-1186z" />
    <glyph glyph-name="afii10043" unicode="&#x429;" horiz-adv-x="1518" 
d="M1340 -285l-15 285h-1181v1658h157v-1543h365v1543h157v-1543h351v1543h157v-1543h133v-400h-124z" />
    <glyph glyph-name="afii10044" unicode="&#x42a;" horiz-adv-x="1129" 
d="M303 0v1537h-291v121h448v-695h140q247 0 362 -115t115 -372q0 -233 -113 -354.5t-357 -121.5h-304zM460 120h149q171 0 243.5 82.5t72.5 275.5q0 186 -72 275.5t-246 89.5h-147v-723z" />
    <glyph glyph-name="afii10045" unicode="&#x42b;" horiz-adv-x="1416" 
d="M144 0v1658h157v-695h140q246 0 361.5 -115t115.5 -372q0 -233 -113 -354.5t-357 -121.5h-304zM301 120h149q170 0 242.5 82.5t72.5 275.5q0 187 -72 276t-246 89h-146v-723zM1115 0v1658h157v-1658h-157z" />
    <glyph glyph-name="afii10046" unicode="&#x42c;" horiz-adv-x="970" 
d="M144 0v1658h157v-695h140q247 0 362 -115t115 -372q0 -233 -113 -354.5t-357 -121.5h-304zM301 120h149q171 0 243.5 82.5t72.5 275.5q0 186 -72 275.5t-246 89.5h-147v-723z" />
    <glyph glyph-name="afii10047" unicode="&#x42d;" horiz-adv-x="1036" 
d="M506 -8q-109 0 -186.5 32.5t-122.5 95.5t-65 147t-20 196v75h149v-70q0 -70 5 -120t20.5 -96t42 -74t70.5 -44.5t106 -16.5q66 0 113.5 18t76 48.5t45 79.5t22 101.5t5.5 125.5v316h-354v108h354v281q0 192 -57.5 280t-204.5 88q-76 0 -125.5 -24.5t-75 -75.5
t-34.5 -110.5t-9 -148.5v-79h-149v68q0 91 11 163.5t38.5 136.5t71.5 106t113 66t160 24q98 0 172.5 -26.5t121 -72t75 -113t39.5 -141.5t11 -166v-659q0 -96 -11.5 -171.5t-40.5 -142.5t-76 -111t-120.5 -69t-170.5 -25z" />
    <glyph glyph-name="afii10048" unicode="&#x42e;" horiz-adv-x="1408" 
d="M885 -21q-94 0 -165.5 25t-118 69t-75.5 109.5t-41 141t-12 169.5v287h-180v-780h-149v1658h149v-756h180v272q0 118 21 206.5t67.5 157t127.5 103.5t196 35q114 0 195.5 -36t128 -104.5t67.5 -157.5t21 -205v-682q0 -118 -20 -207t-66 -160t-128 -108t-198 -37zM887 105
q78 0 131 24.5t82 73t41 109t12 144.5v750q0 83 -12 143t-41.5 107.5t-83 71.5t-131.5 24t-131.5 -24t-83 -71.5t-41.5 -107.5t-12 -143v-750q0 -84 12 -144.5t41.5 -109t83.5 -73t133 -24.5z" />
    <glyph glyph-name="afii10049" unicode="&#x42f;" horiz-adv-x="1093" 
d="M40 0l336 752q-117 46 -177.5 165.5t-60.5 292.5q0 97 23 175t74.5 141t143.5 97.5t219 34.5h352v-1658h-157v710h-209q-39 0 -71 4l-299 -714h-174zM609 826h184v716h-188q-158 0 -237 -79t-79 -253q0 -197 74 -290.5t246 -93.5z" />
    <glyph glyph-name="afii10065" unicode="&#x430;" horiz-adv-x="813" 
d="M319 -19q-104 0 -171 76.5t-67 189.5q0 59 10 105.5t37.5 87.5t60 72.5t92.5 67t120 65.5t157 73v85q0 163 -31 224.5t-116 61.5q-164 0 -164 -203v-43l-148 5q0 29 1 36q7 167 87 242.5t232 75.5q157 0 223 -93t66 -298v-576q0 -143 11 -235h-133l-22 164
q-27 -78 -91.5 -130.5t-153.5 -52.5zM368 110q60 0 110.5 41.5t79.5 98.5v369q-6 -3 -19 -10q-49 -26 -75 -40t-62.5 -35t-54.5 -35t-41.5 -34t-34 -37.5t-21.5 -40.5t-15 -48.5t-4 -56.5q0 -87 39 -129.5t98 -42.5z" />
    <glyph glyph-name="afii10066" unicode="&#x431;" horiz-adv-x="899" 
d="M454 -19h-6q-142 1 -234 99q-94 100 -95 295v698q0 121 9.5 208t26 143.5t46.5 93.5t62.5 56t83 33.5t98 23.5t118.5 28t135 45l30 -128q-61 -25 -126 -41.5t-106.5 -22.5t-83 -17t-65 -29t-43 -55t-27.5 -99t-8 -157v-147q41 36 115.5 64.5t140.5 29.5q137 0 208 -104.5
t71 -347.5v-208q0 -134 -24 -225.5t-72 -141.5t-108.5 -71t-145.5 -23zM465 94q99 2 143.5 69t44.5 240v284q0 173 -35.5 241t-123.5 68q-51 0 -117.5 -28.5t-107.5 -63.5v-533q1 -143 53 -211q51 -66 138 -66h5z" />
    <glyph glyph-name="afii10067" unicode="&#x432;" horiz-adv-x="799" 
d="M114 0v1184h288q83 0 143.5 -23.5t94 -64.5t48.5 -89.5t16 -107.5v-5q0 -197 -150 -252q177 -47 177 -298q0 -82 -14 -141t-47.5 -107t-96.5 -72t-155 -24h-304zM261 115h131q100 0 145.5 57.5t45.5 175.5q0 130 -46 178t-135 48h-141v-459zM261 685h150q72 0 115 51.5
t43 147.5q0 91 -46.5 138t-136.5 47h-125v-384z" />
    <glyph glyph-name="afii10068" unicode="&#x433;" horiz-adv-x="580" 
d="M114 0v1184h437v-112h-287v-1072h-150z" />
    <glyph glyph-name="afii10069" unicode="&#x434;" horiz-adv-x="964" 
d="M20 -285v388q76 48 123 128t80.5 246t44.5 430l19 277h494v-1076h119v-393h-114l-13 285h-627l-13 -285h-113zM176 108h459v965h-228l-18 -196q-10 -257 -37 -413t-67.5 -233.5t-108.5 -122.5z" />
    <glyph glyph-name="afii10070" unicode="&#x435;" horiz-adv-x="809" 
d="M412 -19q-170 0 -245 105t-75 359v299q0 173 35.5 274.5t104 142.5t181.5 41q75 0 128 -19.5t88 -55.5t55.5 -97.5t28.5 -136t8 -179.5l-1 -107h-478v-177q0 -184 35.5 -260t133.5 -76q78 0 120 49.5t42 179.5v82h147v-66q0 -172 -72 -265t-236 -93zM242 693h331v98
q0 62 -3 103t-12.5 81.5t-26.5 63.5t-47 37t-72 14q-95 0 -132.5 -66t-37.5 -251v-80z" />
    <glyph glyph-name="afii10072" unicode="&#x436;" horiz-adv-x="1093" 
d="M8 0l335 606l-317 578h143l298 -568h18v568h125v-568h18l296 568h143l-316 -578l334 -606h-141l-315 587h-19v-587h-125v587h-20l-316 -587h-141z" />
    <glyph glyph-name="afii10073" unicode="&#x437;" horiz-adv-x="746" 
d="M376 -20q-296 1 -296 353h133q0 -243 165 -244h3q86 0 123 63q36 61 36 173v12q-2 116 -58 169t-190 53v111q136 0 189.5 49t56.5 153v16q0 86 -40 142q-44 60 -122 60q-172 0 -172 -216h-132q0 328 308 328q75 0 133 -26.5t92.5 -72t51.5 -101.5q16 -53 16 -115v-7
q-2 -121 -59 -185.5t-142 -77.5q44 -12 76 -29.5t63 -50t47.5 -87t17.5 -130.5v-8q0 -157 -76 -244q-77 -88 -221 -88h-3z" />
    <glyph glyph-name="afii10074" unicode="&#x438;" horiz-adv-x="872" 
d="M114 0v1184h128v-912l395 912h121v-1184h-126v909l-394 -909h-124z" />
    <glyph glyph-name="afii10075" unicode="&#x439;" horiz-adv-x="872" 
d="M434 1324q-123 0 -187.5 66.5t-67.5 189.5h95q4 -166 160 -166t163 166h96q-3 -123 -68.5 -189.5t-190.5 -66.5zM114 0v1184h128v-912l395 912h121v-1184h-126v909l-394 -909h-124z" />
    <glyph glyph-name="afii10076" unicode="&#x43a;" horiz-adv-x="795" 
d="M114 0v1184h150v-521h86l268 521h156l-288 -571l297 -613h-157l-277 569h-85v-569h-150z" />
    <glyph glyph-name="afii10077" unicode="&#x43b;" horiz-adv-x="939" 
d="M23 -10v114q49 1 81 16t56.5 47.5t40 99.5t26.5 155.5t21 231.5l37 530h540v-1184h-150v1068h-259l-30 -414q-9 -138 -20.5 -233.5t-29.5 -173.5t-42 -124.5t-60.5 -77.5t-81.5 -43t-108 -12h-21z" />
    <glyph glyph-name="afii10078" unicode="&#x43c;" horiz-adv-x="1015" 
d="M106 0l11 1184h113l277 -814l276 814h116l10 -1184h-128l-3 832l-248 -710h-47l-246 707l-3 -829h-128z" />
    <glyph glyph-name="afii10079" unicode="&#x43d;" horiz-adv-x="898" 
d="M114 0v1184h150v-515h370v515h150v-1184h-150v556h-370v-556h-150z" />
    <glyph glyph-name="afii10080" unicode="&#x43e;" 
d="M408 94q45 0 76 16.5t48.5 41.5t26.5 71t11.5 88t2.5 109v344q0 67 -2.5 109t-11.5 88t-26.5 71t-48.5 41.5t-76 16.5q-38 0 -66 -10t-46 -32.5t-29 -48t-16.5 -66.5t-7 -77.5t-1.5 -91.5v-344q0 -55 1.5 -91.5t7 -77.5t16.5 -66.5t29 -48t46 -32.5t66 -10zM408 -19
q-91 0 -153 29t-97.5 88t-50.5 138.5t-15 191.5v328q0 226 70 336t246 110q177 0 246.5 -109.5t69.5 -336.5v-328q0 -112 -15 -191.5t-50.5 -138.5t-97.5 -88t-153 -29z" />
    <glyph glyph-name="afii10081" unicode="&#x43f;" horiz-adv-x="861" 
d="M114 0v1184h633v-1184h-150v1067h-333v-1067h-150z" />
    <glyph glyph-name="afii10082" unicode="&#x440;" horiz-adv-x="855" 
d="M115 -390v1574h150v-99q95 117 227 117q66 0 115.5 -27t78 -70t46 -107t23 -126.5t5.5 -141.5v-250q0 -94 -8 -168t-28 -137.5t-52.5 -105t-81.5 -65t-114 -23.5q-115 0 -211 113v-484h-150zM452 100q40 0 68 16.5t45.5 45t27.5 77.5t13.5 104.5t3.5 134.5v252
q0 190 -32 272t-129 82q-91 0 -184 -91v-807q82 -86 187 -86z" />
    <glyph glyph-name="afii10083" unicode="&#x441;" horiz-adv-x="796" 
d="M409 -19q-81 0 -139 24t-92 62.5t-53.5 101.5t-26 127.5t-6.5 152.5v276q0 129 14 214.5t49.5 146.5t97 88.5t155.5 27.5q74 0 128 -18t87.5 -49.5t53 -80.5t27 -103.5t7.5 -127.5v-56h-139v56q0 152 -36 209.5t-126 57.5q-102 0 -135 -72.5t-33 -267.5v-332
q0 -182 35.5 -253t133.5 -71q42 0 71 12t46.5 33t27.5 58t13 78.5t3 104.5v65h139v-58q0 -78 -6.5 -135t-26 -110.5t-52 -87t-87.5 -53.5t-130 -20z" />
    <glyph glyph-name="afii10084" unicode="&#x442;" horiz-adv-x="686" 
d="M270 0v1070h-256v114h658v-114h-252v-1070h-150z" />
    <glyph glyph-name="afii10085" unicode="&#x443;" horiz-adv-x="782" 
d="M87 -300v125q109 1 165 33t64 91q2 17 2 37q0 47 -13 106l-255 1092h143l129 -622l81 -409l72 404l118 627h146l-272 -1221q-18 -80 -49 -131.5t-82 -79t-106.5 -38t-142.5 -14.5z" />
    <glyph glyph-name="afii10086" unicode="&#x444;" horiz-adv-x="1148" 
d="M504 -390v471h-44q-42 0 -77 4t-73.5 16t-69 31.5t-59.5 52.5t-47.5 77.5t-30 108.5t-11.5 142v213q0 120 26 204.5t75.5 131.5t111 67.5t141.5 20.5h58v508h138v-508h64q79 0 140 -20.5t109.5 -67.5t74.5 -131.5t26 -204.5v-213q0 -109 -21.5 -189t-55 -126t-83.5 -73
t-97.5 -35.5t-107.5 -8.5h-49v-471h-138zM464 188h40v861h-54q-45 0 -76.5 -6.5t-61 -25t-47 -52t-28 -88.5t-10.5 -133v-232q0 -83 11.5 -142t30.5 -94t50.5 -55t64.5 -26.5t80 -6.5zM683 188q47 0 80 6.5t65 26.5t51.5 55t31 94t11.5 142v232q0 96 -15 158.5t-47 93.5
t-69 42t-94 11h-55v-861h41z" />
    <glyph glyph-name="afii10087" unicode="&#x445;" horiz-adv-x="778" 
d="M33 0l280 619l-267 565h149l203 -434l194 434h151l-277 -582l282 -602h-143l-221 466l-206 -466h-145z" />
    <glyph glyph-name="afii10088" unicode="&#x446;" horiz-adv-x="898" 
d="M762 -285l-13 285h-635v1184h150v-1078h341v1078h150v-1078h118v-391h-111z" />
    <glyph glyph-name="afii10089" unicode="&#x447;" horiz-adv-x="814" 
d="M548 0v494q-113 -21 -174 -21q-135 0 -214 64.5t-79 208.5v438h150v-441q0 -81 42.5 -121t132.5 -40q65 0 142 18v584h150v-1184h-150z" />
    <glyph glyph-name="afii10090" unicode="&#x448;" horiz-adv-x="1185" 
d="M114 0v1184h146v-1078h260v1078h146v-1078h259v1078h146v-1184h-957z" />
    <glyph glyph-name="afii10091" unicode="&#x449;" horiz-adv-x="1250" 
d="M1086 -285l-15 285h-957v1184h145v-1078h265v1078h145v-1078h263v1078h145v-1078h119v-391h-110z" />
    <glyph glyph-name="afii10092" unicode="&#x44a;" horiz-adv-x="934" 
d="M248 0v1072h-253v112h403v-481h73q94 0 164.5 -17t115.5 -46.5t72.5 -75t38.5 -97.5t11 -119q0 -81 -18.5 -141t-63.5 -108.5t-128 -73.5t-204 -25h-211zM398 95h61q83 0 138 17t85 51.5t41.5 78.5t11.5 107q0 48 -6 84t-23.5 70t-47 56t-78.5 35.5t-116 13.5h-66v-513z
" />
    <glyph glyph-name="afii10093" unicode="&#x44b;" horiz-adv-x="1153" 
d="M114 0v1184h150v-481h73q117 -1 197.5 -25.5t124 -73.5t62 -110t18.5 -146q0 -81 -18.5 -141t-63.5 -108.5t-128 -73.5t-204 -25h-211zM264 95h61q83 0 138 17t85 51.5t41.5 78.5t11.5 107q0 48 -6 84t-23.5 70t-47 56t-78.5 35.5t-116 13.5h-66v-513zM889 0v1184h150
v-1184h-150z" />
    <glyph glyph-name="afii10094" unicode="&#x44c;" horiz-adv-x="796" 
d="M114 0v1184h150v-481h73q117 -1 197.5 -25.5t124 -73.5t62 -110t18.5 -146q0 -81 -18.5 -141t-63.5 -108.5t-128 -73.5t-204 -25h-211zM264 95h61q83 0 138 17t85 51.5t41.5 78.5t11.5 107q0 48 -6 84t-23.5 70t-47 56t-78.5 35.5t-116 13.5h-66v-513z" />
    <glyph glyph-name="afii10095" unicode="&#x44d;" horiz-adv-x="811" 
d="M404 -19q-74 0 -128 17t-87.5 46.5t-53 76.5t-27 99t-7.5 121v26h138v-26q0 -139 38.5 -193t128.5 -54q102 0 132.5 72t30.5 268v116h-312v91h312v115q0 190 -32.5 257t-131.5 67t-132.5 -61t-33.5 -195v-40h-138v33q0 69 7 121t27 102t53 82t88.5 51t130.5 19
q58 0 104 -12t78.5 -32t56 -53t37.5 -69.5t22.5 -87.5t11 -99.5t2.5 -113.5v-266q0 -130 -14 -215.5t-49 -147t-96.5 -88.5t-155.5 -27z" />
    <glyph glyph-name="afii10096" unicode="&#x44e;" horiz-adv-x="1097" 
d="M709 -19q-167 0 -231 109.5t-64 337.5v109h-164v-537h-136v1184h136v-546h164v118q0 112 13.5 190.5t46.5 138t91 88.5t144 29q166 0 230 -109t64 -337v-328q0 -228 -64 -337.5t-230 -109.5zM709 94q43 0 73 16.5t47 42t25.5 71t11 87.5t2.5 109v344q0 67 -2.5 109
t-11 87.5t-25.5 71t-47 42t-73 16.5q-44 0 -74 -16.5t-47 -42t-25.5 -71t-11 -87.5t-2.5 -109v-344q0 -67 2.5 -109t11 -87.5t25.5 -71t47 -42t74 -16.5z" />
    <glyph glyph-name="afii10097" unicode="&#x44f;" horiz-adv-x="825" 
d="M32 0l234 513q-89 35 -129 122.5t-40 201.5q0 80 17.5 139t60.5 108t124.5 74.5t201.5 25.5h210v-1184h-150v479q-105 0 -155 6l-212 -485h-162zM508 572h53v519h-66q-80 0 -133 -17.5t-80 -53.5t-37 -78.5t-10 -105.5q0 -137 62 -200t211 -64z" />
    <glyph glyph-name="uni0450" unicode="&#x450;" horiz-adv-x="809" 
d="M368 1324l-189 400h152l114 -400h-77zM412 -19q-170 0 -245 105t-75 359v299q0 173 35.5 274.5t104 142.5t181.5 41q75 0 128 -19.5t88 -55.5t55.5 -97.5t28.5 -136t8 -179.5l-1 -107h-478v-177q0 -184 35.5 -260t133.5 -76q78 0 120 49.5t42 179.5v82h147v-66
q0 -172 -72 -265t-236 -93zM242 693h331v98q0 62 -3 103t-12.5 81.5t-26.5 63.5t-47 37t-72 14q-95 0 -132.5 -66t-37.5 -251v-80z" />
    <glyph glyph-name="afii10071" unicode="&#x451;" horiz-adv-x="809" 
d="M162 1324v181h154v-181h-154zM498 1324v181h154v-181h-154zM412 -19q-170 0 -245 105t-75 359v299q0 173 35.5 274.5t104 142.5t181.5 41q75 0 128 -19.5t88 -55.5t55.5 -97.5t28.5 -136t8 -179.5l-1 -107h-478v-177q0 -184 35.5 -260t133.5 -76q78 0 120 49.5t42 179.5
v82h147v-66q0 -172 -72 -265t-236 -93zM242 693h331v98q0 62 -3 103t-12.5 81.5t-26.5 63.5t-47 37t-72 14q-95 0 -132.5 -66t-37.5 -251v-80z" />
    <glyph glyph-name="afii10099" unicode="&#x452;" horiz-adv-x="871" 
d="M385 -268v105h32q45 0 75.5 5.5t53.5 22.5t35.5 39.5t20.5 65t10 90t2 122.5v581q0 73 -30 105.5t-89 32.5t-119 -23.5t-91 -53.5v-824h-150v1275h-148v93h148v290h150v-290h268v-93h-268v-363q36 31 106 59.5t154 28.5q102 0 160.5 -55t58.5 -155v-583
q0 -80 -2.5 -133.5t-10 -108.5t-21.5 -88t-37.5 -64t-58 -47t-82 -25t-111.5 -9h-56z" />
    <glyph glyph-name="afii10100" unicode="&#x453;" horiz-adv-x="580" 
d="M294 1324l128 400h150l-201 -400h-77zM114 0v1184h437v-112h-287v-1072h-150z" />
    <glyph glyph-name="afii10101" unicode="&#x454;" horiz-adv-x="787" 
d="M410 -19q-81 0 -139 24t-92 62.5t-53.5 101.5t-26 127.5t-6.5 152.5v276q0 129 14 214.5t49.5 146.5t97 88.5t155.5 27.5q92 0 153 -25.5t93 -77t44.5 -115t12.5 -155.5v-31h-139v31q0 152 -36 206.5t-126 54.5q-102 0 -135 -72.5t-33 -267.5v-97h304v-103h-304v-132
q0 -182 35.5 -253t133.5 -71q100 0 130.5 62.5t30.5 218.5v38h139v-31q0 -78 -6.5 -134.5t-26 -109.5t-52 -85.5t-87.5 -52t-130 -19.5z" />
    <glyph glyph-name="afii10102" unicode="&#x455;" horiz-adv-x="743" 
d="M385 -19q-141 0 -225.5 91t-96.5 246l126 38q12 -135 62 -198.5t140 -63.5q78 0 123 46q43 44 43 118v7q-3 118 -144 236l-161 137q-85 71 -124 139q-38 66 -38 154q0 130 78 201q76 70 205 70q131 0 201.5 -84t78.5 -227l-106 -35q-7 119 -48.5 176.5t-119.5 57.5
q-70 0 -112 -39q-41 -38 -41 -102q0 -58 21 -99.5t77 -89.5l167 -150q45 -39 73.5 -68.5t60.5 -73t47.5 -94t16.5 -108.5q0 -136 -82 -210.5t-222 -74.5z" />
    <glyph glyph-name="afii10103" unicode="&#x456;" horiz-adv-x="474" 
d="M164 0v1184h150v-1184h-150zM158 1334v199h166v-199h-166z" />
    <glyph glyph-name="afii10104" unicode="&#x457;" horiz-adv-x="405" 
d="M-40 1324v181h154v-181h-154zM296 1324v181h154v-181h-154zM130 0v1184h150v-1184h-150z" />
    <glyph glyph-name="afii10105" unicode="&#x458;" horiz-adv-x="430" 
d="M-34 -303v114q10 -3 51 -3q36 0 62.5 9t41 23.5t23 37t11 44t2.5 50.5v1212h150v-1225q0 -137 -68 -203t-193 -66q-63 0 -80 7zM157 1347v204h151v-204h-151z" />
    <glyph glyph-name="afii10106" unicode="&#x459;" horiz-adv-x="1282" 
d="M9 -10v114q48 0 80.5 15t56.5 47t40 93.5t26 141.5t19 205l41 578h540v-524h56q90 0 155 -15t106 -41.5t64.5 -69.5t32.5 -91.5t9 -114.5q0 -63 -9 -110t-34 -89.5t-67 -69t-109.5 -42.5t-160.5 -17h-193v1068h-259l-36 -482q-8 -115 -20.5 -203t-27.5 -151.5t-38 -107
t-46.5 -70t-58.5 -41t-69 -19t-82 -4.5h-16zM812 95h45q77 0 125.5 14.5t73 47t33 71.5t8.5 101q0 48 -4 80t-18 64t-40 50.5t-70.5 30t-107.5 11.5h-45v-470z" />
    <glyph glyph-name="afii10107" unicode="&#x45a;" horiz-adv-x="1226" 
d="M114 0v1184h150v-518h324v518h150v-524h67q114 -1 189 -23t115 -67t55 -101.5t15 -140.5q0 -64 -9 -111t-34 -89.5t-67.5 -69t-111 -42t-162.5 -16.5h-207v560h-324v-560h-150zM738 95h62q77 1 126 15.5t73.5 46.5t33 71t8.5 101q0 60 -7.5 97.5t-31.5 71.5t-73.5 50
t-127.5 17h-63v-470z" />
    <glyph glyph-name="afii10108" unicode="&#x45b;" horiz-adv-x="871" 
d="M135 0v1275h-148v93h148v290h150v-290h268v-93h-268v-363q36 31 106 59.5t154 28.5q102 0 160.5 -55t58.5 -155v-790h-150v763q0 73 -30 105.5t-89 32.5q-53 0 -116.5 -24t-93.5 -53v-824h-150z" />
    <glyph glyph-name="afii10109" unicode="&#x45c;" horiz-adv-x="795" 
d="M410 1324l128 400h150l-201 -400h-77zM114 0v1184h150v-521h86l268 521h156l-288 -571l297 -613h-157l-277 569h-85v-569h-150z" />
    <glyph glyph-name="uni045D" unicode="&#x45d;" horiz-adv-x="872" 
d="M398 1324l-189 400h152l114 -400h-77zM114 0v1184h128v-912l395 912h121v-1184h-126v909l-394 -909h-124z" />
    <glyph glyph-name="afii10110" unicode="&#x45e;" horiz-adv-x="782" 
d="M392 1324q-123 0 -187.5 66.5t-67.5 189.5h95q4 -166 160 -166t163 166h96q-3 -123 -68.5 -189.5t-190.5 -66.5zM87 -300v125q109 1 165 33t64 91q2 17 2 37q0 47 -13 106l-255 1092h143l129 -622l81 -409l72 404l118 627h146l-272 -1221q-18 -80 -49 -131.5t-82 -79
t-106.5 -38t-142.5 -14.5z" />
    <glyph glyph-name="afii10193" unicode="&#x45f;" horiz-adv-x="859" 
d="M384 -285l-15 285h-255v1184h150v-1074h331v1074h150v-1184h-249l-10 -285h-102z" />
    <glyph glyph-name="afii10050" unicode="&#x490;" horiz-adv-x="767" 
d="M144 0v1658h495v196h101v-314h-439v-1540h-157z" />
    <glyph glyph-name="afii10098" unicode="&#x491;" horiz-adv-x="597" 
d="M123 0v1184h349v166h88v-278h-287v-1072h-150z" />
    <glyph glyph-name="uni04AF" unicode="&#x4af;" horiz-adv-x="776" 
d="M319 -325v373l-279 1136h150l203 -901l201 901h151l-287 -1133v-376h-139z" />
    <glyph glyph-name="uni04B0" unicode="&#x4b0;" horiz-adv-x="911" 
d="M70 640v111h303l-363 907h153l190 -492l108 -281l103 280l184 493h153l-351 -907h307v-111h-319v-640h-152v640h-316z" />
    <glyph glyph-name="uni04B1" unicode="&#x4b1;" horiz-adv-x="777" 
d="M96 -16v102h210l-270 1098h150l203 -901l201 901h151l-278 -1098h211v-102h-220v-309h-139v309h-219z" />
    <glyph glyph-name="uni04C0" unicode="&#x4c0;" horiz-adv-x="454" 
d="M151 0v1658h154v-1658h-154z" />
    <glyph glyph-name="uni04E8" unicode="&#x4e8;" horiz-adv-x="1074" 
d="M537 105q80 0 134 24.5t82.5 73.5t40 109t11.5 144v330h95v111h-95v309q0 84 -11.5 143.5t-40 107.5t-82.5 71.5t-134 23.5t-134 -23.5t-82.5 -71.5t-40 -107.5t-11.5 -143.5v-309h-81v-111h81v-330q0 -84 11.5 -144t40 -109t82.5 -73.5t134 -24.5zM537 -21
q-120 0 -204.5 36.5t-132 107t-68.5 160t-21 207.5v688q0 117 21.5 205t70 155.5t132.5 102.5t202 35t202 -35t132.5 -103t70 -156t21.5 -204v-690q0 -93 -12.5 -168t-43 -140t-78.5 -108.5t-122 -68t-170 -24.5zM805 897h-536v-111h536v111z" />
    <glyph glyph-name="uni04E9" unicode="&#x4e9;" 
d="M408 94q45 0 76 16.5t48.5 41.5t26.5 71t11.5 88t2.5 109v147h79v99h-79v98q0 67 -2.5 109t-11.5 88t-26.5 71t-48.5 41.5t-76 16.5q-38 0 -66 -10t-46 -32.5t-29 -48t-16.5 -66.5t-7 -77.5t-1.5 -91.5v-98h-79v-99h79v-147q0 -55 1.5 -91.5t7 -77.5t16.5 -66.5t29 -48
t46 -32.5t66 -10zM408 -19q-91 0 -153 29t-97.5 88t-50.5 138.5t-15 191.5v328q0 226 70 336t246 110q177 0 246.5 -109.5t69.5 -336.5v-328q0 -112 -15 -191.5t-50.5 -138.5t-97.5 -88t-153 -29zM573 666h-331v-99h331v99z" />
    <glyph glyph-name="uni1E02" unicode="&#x1e02;" horiz-adv-x="1027" 
d="M465 1798v224h159v-224h-159zM144 0v1658h356q217 0 312 -107t95 -306q0 -86 -18 -155.5t-67 -124.5t-126 -71q70 -19 120.5 -61t78 -99.5t39.5 -119.5t12 -134q0 -84 -10.5 -152t-37.5 -130.5t-70.5 -105t-112.5 -67.5t-160 -25h-411zM301 117h225q155 0 212 84t57 278
q0 344 -267 344h-227v-706zM301 944h226q133 0 186 77t53 224q0 157 -67.5 225t-248.5 68h-149v-594z" />
    <glyph glyph-name="uni1E03" unicode="&#x1e03;" horiz-adv-x="852" 
d="M359 1780v224h159v-224h-159zM477 -19q-117 0 -211 113v-94h-150v1658h150v-572q94 116 226 116q66 0 115.5 -27t78 -70t46 -107t23 -126.5t5.5 -141.5v-250q0 -94 -8 -168t-28 -137.5t-52 -105t-81 -65t-114 -23.5zM452 100q95 0 126.5 88.5t31.5 289.5v252
q0 190 -31.5 272t-128.5 82q-91 0 -184 -91v-807q82 -86 186 -86z" />
    <glyph glyph-name="uni1E0A" unicode="&#x1e0a;" horiz-adv-x="1067" 
d="M471 1798v224h159v-224h-159zM301 117h209q77 0 130.5 21.5t84 55t47.5 91.5t21.5 113.5t4.5 137.5v619q0 80 -6.5 136t-25 105.5t-51 79t-85 46t-125.5 16.5h-204v-1421zM144 0v1658h363q101 0 178.5 -23t128.5 -64t83 -103t45.5 -134t13.5 -163v-659q0 -121 -22 -212
t-72 -160t-135.5 -104.5t-207.5 -35.5h-375z" />
    <glyph glyph-name="uni1E0B" unicode="&#x1e0b;" horiz-adv-x="845" 
d="M331 1780v224h159v-224h-159zM378 -19q-153 0 -219.5 115t-66.5 382v219q0 98 7 172t26 139t50 106t80 64.5t116 23.5q117 -1 209 -103v559h150v-1658h-150v84q-90 -102 -202 -103zM408 100q87 0 172 78v822q-90 84 -176 84q-95 0 -128.5 -79.5t-33.5 -259.5v-279
q0 -194 34 -280t132 -86z" />
    <glyph glyph-name="uni1E1E" unicode="&#x1e1e;" horiz-adv-x="790" 
d="M363 1798v224h159v-224h-159zM144 0v1658h598v-117h-441v-623h367v-116h-367v-802h-157z" />
    <glyph glyph-name="uni1E1F" unicode="&#x1e1f;" horiz-adv-x="549" 
d="M204 1730v224h159v-224h-159zM190 0v1075h-154v109h154v123q0 49 2.5 84t10 72t22 61t38 44.5t59.5 30t84 9.5q54 0 121 -13v-113q-71 11 -84 11q-64 0 -84 -38.5t-20 -131.5v-139h192v-109h-192v-1075h-149z" />
    <glyph glyph-name="uni1E40" unicode="&#x1e40;" horiz-adv-x="1316" 
d="M579 1798v224h159v-224h-159zM130 0l43 1658h153l330 -1439l332 1439h157l41 -1658h-130l-32 1322l-317 -1322h-100l-313 1319l-32 -1319h-132z" />
    <glyph glyph-name="uni1E41" unicode="&#x1e41;" horiz-adv-x="1319" 
d="M584 1327v224h159v-224h-159zM114 0v1184h141v-120q119 141 279 141q148 0 186 -156q124 156 292 156q88 0 144.5 -63.5t56.5 -207.5v-934h-142v930q0 97 -30 135t-86 38q-113 -2 -223 -123q2 -30 2 -46v-934h-140v930q0 97 -31 135t-87 38q-113 -2 -221 -123v-980h-141z
" />
    <glyph glyph-name="uni1E56" unicode="&#x1e56;" horiz-adv-x="990" 
d="M461 1798v224h159v-224h-159zM144 0v1658h398q109 0 187 -31t123 -90.5t65 -137.5t20 -180q0 -92 -21.5 -168.5t-67 -137t-123 -94.5t-181.5 -34h-243v-785h-157zM301 901h199q153 0 218.5 70.5t65.5 246.5q0 191 -58 257.5t-224 66.5h-201v-641z" />
    <glyph glyph-name="uni1E57" unicode="&#x1e57;" horiz-adv-x="855" 
d="M358 1324v224h159v-224h-159zM115 -390v1574h150v-99q95 117 227 117q66 0 115.5 -27t78 -70t46 -107t23 -126.5t5.5 -141.5v-250q0 -94 -8 -168t-28 -137.5t-52.5 -105t-81.5 -65t-114 -23.5q-115 0 -211 113v-484h-150zM452 100q40 0 68 16.5t45.5 45t27.5 77.5
t13.5 104.5t3.5 134.5v252q0 190 -32 272t-129 82q-91 0 -184 -91v-807q82 -86 187 -86z" />
    <glyph glyph-name="uni1E60" unicode="&#x1e60;" horiz-adv-x="942" 
d="M402 1798v224h159v-224h-159zM499 -20q-197 0 -298.5 118.5t-117.5 331.5l139 40q7 -66 17.5 -116.5t31 -99t50 -79.5t75 -50t104.5 -19q234 0 234 240q0 53 -13.5 99.5t-43 91t-62 80.5t-84.5 87l-294 282q-150 144 -150 334q0 169 100.5 262t272.5 94h7q181 0 277 -98
q98 -100 114 -323l-132 -34q-14 168 -72 252q-56 80 -180 80h-12q-109 -3 -171.5 -57t-62.5 -163q0 -68 26.5 -123.5t90.5 -117.5l292 -277q113 -108 178 -218.5t65 -239.5q0 -181 -104.5 -279t-276.5 -98z" />
    <glyph glyph-name="uni1E61" unicode="&#x1e61;" horiz-adv-x="743" 
d="M297 1324v224h159v-224h-159zM385 -19q-141 0 -225.5 91t-96.5 246l126 38q12 -135 62 -198.5t140 -63.5q78 0 123 46q43 44 43 118v7q-3 118 -144 236l-161 137q-85 71 -124 139q-38 66 -38 154q0 130 78 201q76 70 205 70q131 0 201.5 -84t78.5 -227l-106 -35
q-7 119 -48.5 176.5t-119.5 57.5q-70 0 -112 -39q-41 -38 -41 -102q0 -58 21 -99.5t77 -89.5l167 -150q45 -39 73.5 -68.5t60.5 -73t47.5 -94t16.5 -108.5q0 -136 -82 -210.5t-222 -74.5z" />
    <glyph glyph-name="uni1E6A" unicode="&#x1e6a;" horiz-adv-x="795" 
d="M318 1798v224h159v-224h-159zM323 0v1538h-333v120h815v-120h-325v-1538h-157z" />
    <glyph glyph-name="uni1E6B" unicode="&#x1e6b;" horiz-adv-x="573" 
d="M203 1672v224h159v-224h-159zM395 -15q-121 0 -167 66.5t-47 194.5v838h-143v100h143v366h150v-366h197v-100h-197v-824q0 -90 21 -123.5t85 -33.5q41 0 84 8v-113q-67 -13 -126 -13z" />
    <glyph glyph-name="Wgrave" unicode="&#x1e80;" horiz-adv-x="1464" 
d="M694 1798l-189 400h152l114 -400h-77zM353 0l-282 1657l134 1l218 -1346l251 1321h129l255 -1323l203 1348h132l-268 -1658h-122l-263 1369l-261 -1369h-126z" />
    <glyph glyph-name="wgrave" unicode="&#x1e81;" horiz-adv-x="1177" 
d="M550 1324l-189 400h152l114 -400h-77zM257 0l-193 1184h128l148 -989l186 989h129l188 -985l143 985h127l-191 -1184h-141l-188 963l-185 -963h-151z" />
    <glyph glyph-name="Wacute" unicode="&#x1e82;" horiz-adv-x="1464" 
d="M693 1798l128 400h150l-201 -400h-77zM353 0l-282 1657l134 1l218 -1346l251 1321h129l255 -1323l203 1348h132l-268 -1658h-122l-263 1369l-261 -1369h-126z" />
    <glyph glyph-name="wacute" unicode="&#x1e83;" horiz-adv-x="1177" 
d="M550 1324l128 400h150l-201 -400h-77zM257 0l-193 1184h128l148 -989l186 989h129l188 -985l143 985h127l-191 -1184h-141l-188 963l-185 -963h-151z" />
    <glyph glyph-name="Wdieresis" unicode="&#x1e84;" horiz-adv-x="1464" 
d="M487 1798v181h154v-181h-154zM823 1798v181h154v-181h-154zM353 0l-282 1657l134 1l218 -1346l251 1321h129l255 -1323l203 1348h132l-268 -1658h-122l-263 1369l-261 -1369h-126z" />
    <glyph glyph-name="wdieresis" unicode="&#x1e85;" horiz-adv-x="1177" 
d="M344 1324v181h154v-181h-154zM680 1324v181h154v-181h-154zM257 0l-193 1184h128l148 -989l186 989h129l188 -985l143 985h127l-191 -1184h-141l-188 963l-185 -963h-151z" />
    <glyph glyph-name="Ygrave" unicode="&#x1ef2;" horiz-adv-x="961" 
d="M442 1798l-189 400h152l114 -400h-77zM409 0v551l-374 1107h153l298 -921l287 921h153l-365 -1107v-551h-152z" />
    <glyph glyph-name="ygrave" unicode="&#x1ef3;" horiz-adv-x="780" 
d="M354 1324l-189 400h152l114 -400h-77zM82 -295v117q108 0 162 17t68 48q9 20 10 52q0 17 -3 38q-5 37 -35 164q-24 99 -131 559t-113 484h150l206 -1007l198 1007h151l-287 -1269q-26 -113 -105.5 -161.5t-231.5 -48.5h-39z" />
    <glyph glyph-name="endash" unicode="&#x2013;" horiz-adv-x="964" 
d="M83 430v124h810v-124h-810z" />
    <glyph glyph-name="emdash" unicode="&#x2014;" horiz-adv-x="1697" 
d="M83 504v120h1543v-120h-1543z" />
    <glyph glyph-name="afii00208" unicode="&#x2015;" horiz-adv-x="4096" 
d="M87 609v118h3922v-118h-3922z" />
    <glyph glyph-name="quoteleft" unicode="&#x2018;" horiz-adv-x="582" 
d="M105 1250v170q0 134 33 204.5t117 92.5l34 -53q-55 -23 -74 -69t-19 -144h82v-201h-173z" />
    <glyph glyph-name="quoteright" unicode="&#x2019;" horiz-adv-x="356" 
d="M140 1191l-35 53q56 22 74.5 68t18.5 145h-82v201h173v-170q0 -134 -32.5 -204.5t-116.5 -92.5z" />
    <glyph glyph-name="quotesinglbase" unicode="&#x201a;" horiz-adv-x="572" 
d="M250 -242l-34 52q55 23 74 69t19 145h-82v201h173v-170q0 -134 -33 -204.5t-117 -92.5z" />
    <glyph glyph-name="quotedblleft" unicode="&#x201c;" horiz-adv-x="775" 
d="M123 1250v170q0 134 33 204.5t117 92.5l34 -53q-55 -23 -74 -69t-19 -144h82v-201h-173zM449 1250v170q0 134 33 204.5t117 92.5l34 -53q-55 -23 -74 -69t-19 -144h82v-201h-173z" />
    <glyph glyph-name="quotedblright" unicode="&#x201d;" horiz-adv-x="970" 
d="M300 1191l-35 52q56 23 74.5 69t18.5 144h-82v202h173v-171q0 -134 -32.5 -204t-116.5 -92zM587 1191l-35 52q56 23 74.5 69t18.5 144h-82v202h173v-171q0 -134 -32.5 -204t-116.5 -92z" />
    <glyph glyph-name="quotedblbase" unicode="&#x201e;" horiz-adv-x="809" 
d="M212 -242l-34 52q55 23 74 69t19 145h-82v201h173v-170q0 -134 -33 -204.5t-117 -92.5zM540 -242l-35 52q56 23 74.5 69t18.5 145h-82v201h173v-170q0 -134 -32.5 -204.5t-116.5 -92.5z" />
    <glyph glyph-name="dagger" unicode="&#x2020;" horiz-adv-x="716" 
d="M287 0v1126h-233v118h233v379h145v-379h232v-118h-232v-1126h-145z" />
    <glyph glyph-name="daggerdbl" unicode="&#x2021;" horiz-adv-x="758" 
d="M309 0v528h-244v105h244v446h-244v105h244v440h143v-440h243v-105h-243v-446h243v-105h-243v-528h-143z" />
    <glyph glyph-name="bullet" unicode="&#x2022;" horiz-adv-x="619" 
d="M309 608q-87 0 -135.5 53t-48.5 137t48.5 136.5t135.5 52.5t136 -52.5t49 -136.5t-49 -137t-136 -53z" />
    <glyph glyph-name="ellipsis" unicode="&#x2026;" horiz-adv-x="1088" 
d="M110 0v225h159v-225h-159zM474 0v225h159v-225h-159zM838 0v225h159v-225h-159z" />
    <glyph glyph-name="perthousand" unicode="&#x2030;" horiz-adv-x="2129" 
d="M343 942q64 0 89.5 51.5t25.5 145.5v244q0 91 -25 140.5t-90 49.5t-89.5 -50t-24.5 -142v-243q0 -93 25.5 -144.5t88.5 -51.5zM343 827q-251 0 -251 318v230q0 152 59 233t192 81t192 -79t59 -229v-239q0 -315 -251 -315zM1176 103q64 0 89 52t25 146v243q0 92 -25 141.5
t-89 49.5q-65 0 -89.5 -50t-24.5 -142v-243q0 -94 25 -145.5t89 -51.5zM1176 -12q-251 0 -251 319v230q0 152 59 233t192 81q132 0 191.5 -79t59.5 -229v-240q0 -315 -251 -315zM1786 103q64 0 89.5 51.5t25.5 145.5v244q0 91 -25 140.5t-90 49.5t-89.5 -50t-24.5 -142v-243
q0 -93 25.5 -144.5t88.5 -51.5zM1786 -13q-251 0 -251 319v230q0 152 59 233t192 81t192 -79t59 -229v-239q0 -316 -251 -316zM432 0l525 1673h133l-524 -1673h-134z" />
    <glyph glyph-name="guilsinglleft" unicode="&#x2039;" horiz-adv-x="668" 
d="M584 176l-381 442v67l381 441v-191l-256 -283l256 -285v-191z" />
    <glyph glyph-name="guilsinglright" unicode="&#x203a;" horiz-adv-x="648" 
d="M152 236v190l256 284l-256 285v191l381 -442v-67z" />
    <glyph glyph-name="fraction" unicode="&#x2044;" horiz-adv-x="447" 
d="M0 0l319 1658h128l-317 -1658h-130z" />
    <glyph glyph-name="uni2074" unicode="&#x2074;" horiz-adv-x="730" 
d="M417 544v309h-327v85l332 720h114v-718h126v-87h-126v-309h-119zM196 940h221v515z" />
    <glyph glyph-name="Euro" unicode="&#x20ac;" horiz-adv-x="997" 
d="M531 -21q-98 0 -172.5 27t-121 72t-75.5 113t-40 142t-11 166v129h-131v86h131v267h-131v87h131v90q0 96 11.5 171.5t41 142t76.5 110.5t120.5 69t170.5 25q109 0 186 -32.5t122 -95.5t65 -147t20 -196v-77h-148v72q0 88 -9 147t-34.5 108.5t-75 73t-125.5 23.5
q-82 0 -135.5 -26t-80.5 -79t-37 -115.5t-10 -153.5v-110h260v-87h-260v-267h260v-86h-260v-154q0 -193 57.5 -281t205.5 -88q61 0 105 17.5t70.5 46.5t42 76.5t21 98t5.5 120.5v83h148v-72q0 -91 -11 -163.5t-38.5 -136.5t-71.5 -106t-112.5 -66t-159.5 -24z" />
    <glyph glyph-name="afii61289" unicode="&#x2113;" horiz-adv-x="1024" 
d="M550 940l28 42q247 365 280 599q5 34 5 63q0 88 -44 125q-22 19 -47 19q-21 0 -43 -13q-57 -34 -70 -121zM396 568l-184 -266l-59 53l271 399l133 899q7 50 28 93q45 95 134 129q35 13 68 13q47 0 89 -28q83 -59 83 -201v-16q-9 -276 -313 -714l-126 -182l-64 -417
q-8 -57 -8 -101q0 -35 5 -61q11 -62 43 -85q23 -17 52 -17q10 0 21 2q42 8 89.5 45t91.5 96l56 -61q-48 -62 -105 -104.5t-111 -57.5q-32 -9 -63 -9q-21 0 -41 4q-50 10 -82 53q-32 44 -46 118q-6 33 -5 73q0 51 9 114z" />
    <glyph glyph-name="afii61352" unicode="&#x2116;" horiz-adv-x="1881" 
d="M1473 94q45 0 76 16.5t48.5 41.5t26.5 71t11.5 88t2.5 109v344q0 67 -2.5 109t-11.5 88t-26.5 71t-48.5 41.5t-76 16.5q-38 0 -66 -10t-46 -32.5t-29 -48t-16.5 -66.5t-7 -77.5t-1.5 -91.5v-344q0 -55 1.5 -91.5t7 -77.5t16.5 -66.5t29 -48t46 -32.5t66 -10zM1473 -19
q-91 0 -153 29t-97.5 88t-50.5 138.5t-15 191.5v328q0 226 70 336t246 110q177 0 246.5 -109.5t69.5 -336.5v-328q0 -112 -15 -191.5t-50.5 -138.5t-97.5 -88t-153 -29zM144 0v1658h115l528 -1287v1287h134v-1658h-110l-532 1302v-1302h-135z" />
    <glyph glyph-name="trademark" unicode="&#x2122;" horiz-adv-x="1445" 
d="M649 761v897h118l225 -694l233 694h112v-897h-98v657l-219 -657h-51l-221 648v-648h-99zM257 761v797h-182v100h471v-100h-170v-797h-119z" />
    <glyph glyph-name="estimated" unicode="&#x212e;" horiz-adv-x="824" 
d="M437 -19q-87 0 -147 21t-104 71.5t-64.5 137t-20.5 214.5v323q0 130 19.5 216t62 134.5t100.5 68t144 19.5q94 0 153 -25t92.5 -85t45.5 -143t12 -215l-1 -117h-466v-241q0 -102 6.5 -159t28 -94.5t56.5 -50t97 -12.5q49 0 82 10.5t59.5 38t39 80t12.5 133.5v99h85v-93
q0 -86 -12.5 -144t-44.5 -102t-90 -64.5t-145 -20.5zM263 661h319v159q0 42 -0.5 66.5t-2.5 57.5t-6.5 52t-11.5 42t-18.5 35.5t-28 24.5t-38.5 16.5t-50 4.5q-98 0 -130.5 -63.5t-32.5 -253.5v-141z" />
    <glyph glyph-name="partialdiff" unicode="&#x2202;" horiz-adv-x="907" 
d="M420 -23q-152 2 -237.5 97.5t-85.5 290.5q0 54 2 84l22 264q14 211 90.5 310.5t229.5 99.5q149 0 254 -118q2 14 6 78.5t4 84.5q0 111 -29.5 189.5t-87.5 125t-131.5 69.5t-172.5 31l32 100q73 0 138.5 -12.5t135.5 -49t120 -95t82.5 -159t32.5 -232.5q0 -26 -46 -724
q-8 -104 -32 -181.5t-56.5 -125t-78 -77t-91 -40t-101.5 -10.5zM426 90q94 0 146.5 61t66.5 214l42 542q-128 102 -225 102q-103 0 -145.5 -70t-53.5 -244l-21 -264q-3 -45 -3 -82q0 -132 46.5 -195.5t146.5 -63.5z" />
    <glyph glyph-name="product" unicode="&#x220f;" horiz-adv-x="1146" 
d="M144 -390v2048h859v-2048h-151v1933h-558v-1933h-150z" />
    <glyph glyph-name="summation" unicode="&#x2211;" horiz-adv-x="801" 
d="M66 -390l348 1045l-348 1003h620v-120h-435l307 -883l-312 -928h450v-117h-630z" />
    <glyph glyph-name="minus" unicode="&#x2212;" horiz-adv-x="740" 
d="M78 744v97h584v-97h-584z" />
    <glyph glyph-name="uni2215" unicode="&#x2215;" horiz-adv-x="705" 
d="M50 0l472 1658h132l-472 -1658h-132z" />
    <glyph glyph-name="uni2219" unicode="&#x2219;" horiz-adv-x="385" 
d="M132 683v180h152v-180h-152z" />
    <glyph glyph-name="radical" unicode="&#x221a;" horiz-adv-x="985" 
d="M435 0l-250 1088l-193 -1v97h319q12 -49 56 -259.5t53 -249.5q11 -46 47.5 -227.5t47.5 -226.5q12 55 56.5 278.5t60.5 294.5q13 58 87 426.5t90 437.5h151l-367 -1658h-158z" />
    <glyph glyph-name="infinity" unicode="&#x221e;" horiz-adv-x="1257" 
d="M312 383q-131 0 -199.5 78.5t-68.5 210.5t69 210.5t199 78.5q91 0 164 -45.5t162 -142.5q90 97 157 139q65 42 150 41h4q127 -2 195.5 -77t68.5 -204q-1 -129 -69.5 -204t-194.5 -77h-4q-85 -1 -150 41q-67 42 -157 139q-89 -97 -162 -142.5t-164 -45.5zM307 510
q56 1 109 37.5t134 124.5q-81 88 -134 124.5t-109 37.5h-3q-70 0 -108 -42q-40 -44 -39 -120q-1 -77 39 -120q39 -42 108 -42h3zM956 520h3q65 0 103 40q39 42 39 112t-39 112q-38 41 -103 40h-3q-52 0 -100 -33t-127 -119q79 -86 127 -119t100 -33z" />
    <glyph glyph-name="integral" unicode="&#x222b;" horiz-adv-x="591" 
d="M137 -389q-53 0 -121 13v113q55 -11 85 -11q64 0 83.5 38.5t19.5 131.5v1490q0 48 2.5 82.5t10 70.5t23 59.5t38.5 43t59 29t84 9.5q53 0 120 -13v-113q-71 11 -84 11q-64 0 -84 -38.5t-20 -131.5v-1490q0 -59 -3.5 -98.5t-16.5 -79.5t-36 -63.5t-63 -38t-97 -14.5z" />
    <glyph glyph-name="approxequal" unicode="&#x2248;" horiz-adv-x="846" 
d="M563 551q-37 0 -92 28.5t-108 57t-83 28.5q-51 0 -140 -83l-55 71q50 54 106 91.5t99 37.5q45 0 145.5 -56t134.5 -56q19 0 41 10.5t40 23.5t55 42l55 -69q-120 -126 -198 -126zM563 860q-37 0 -92 28.5t-108 57t-83 28.5q-50 0 -140 -82l-55 70q50 55 106 92t99 37
q45 0 145.5 -56t134.5 -56q19 0 41 10.5t40 23.5t55 42l55 -69q-122 -126 -198 -126z" />
    <glyph glyph-name="notequal" unicode="&#x2260;" horiz-adv-x="840" 
d="M130 0l167 584h-193v119h226l64 224h-290v120h323l176 611h132l-176 -611h157v-120h-190l-64 -224h254v-119h-287l-166 -584h-133z" />
    <glyph glyph-name="lessequal" unicode="&#x2264;" horiz-adv-x="762" 
d="M639 206l-567 418v149l567 429v-155l-452 -348l452 -339v-154zM64 0v97h584v-97h-584z" />
    <glyph glyph-name="greaterequal" unicode="&#x2265;" horiz-adv-x="739" 
d="M90 214v155l453 349l-453 337v155l569 -419v-148zM90 0v97h584v-97h-584z" />
    <glyph glyph-name="lozenge" unicode="&#x25ca;" horiz-adv-x="886" 
d="M410 0l-330 592l316 593h81l329 -593l-315 -592h-81zM448 104l246 488l-256 481l-244 -481z" />
    <glyph glyph-name="uniFB00" unicode="&#xfb00;" horiz-adv-x="1004" 
d="M648 0v1075h-154v109h154v123q0 49 2.5 84t10 72t22 61t38 44.5t59.5 30t84 9.5q54 0 121 -13v-113q-71 11 -84 11q-64 0 -84 -38.5t-20 -131.5v-139h192v-109h-192v-1075h-149zM190 0v1075h-154v109h154v123q0 49 2.5 84t10 72t22 61t38 44.5t59.5 30t84 9.5
q54 0 121 -13v-113q-71 11 -84 11q-64 0 -84 -38.5t-20 -131.5v-139h192v-109h-192v-1075h-149z" />
    <glyph glyph-name="uniFB01" unicode="&#xfb01;" horiz-adv-x="927" 
d="M190 0v1075h-154v109h154v123q0 75 9 126t33 92.5t70.5 61.5t116.5 20q51 0 108 -12v-113q-50 9 -82 9q-65 0 -85.5 -35.5t-20.5 -132.5v-139h451v-1184h-150v1075h-301v-1075h-149zM651 1347v204h139v-204h-139z" />
    <glyph glyph-name="uniFB02" unicode="&#xfb02;" horiz-adv-x="964" 
d="M339 1075v-1075h-149v1075h-154v109h154v123q0 39 1.5 65.5t9 63.5t20.5 62.5t37.5 53t59 44t87 27.5t119.5 11q128 0 311 -39v-1595h-150v1510q-90 11 -143 11q-48 0 -83.5 -6.5t-57.5 -22.5t-35 -32t-18.5 -45.5t-7 -51t-1.5 -59.5v-120h192v-109h-192z" />
    <glyph glyph-name="uniFB03" unicode="&#xfb03;" horiz-adv-x="1438" 
d="M1151 1347v204h150v-204h-150zM190 0v1075h-154v109h154v123q0 49 2.5 84t10 72t22 61t38 44.5t59.5 30t84 9.5q54 0 121 -13v-113q-71 11 -84 11q-64 0 -84 -38.5t-20 -131.5v-139h333v123q0 60 3.5 100t16.5 81.5t36 65.5t63.5 39t97.5 15q53 0 121 -13v-113
q-72 11 -85 11q-64 0 -83.5 -38.5t-19.5 -131.5v-139h479v-1184h-150v1075h-329v-1075h-150v1075h-333v-1075h-149z" />
    <glyph glyph-name="uniFB04" unicode="&#xfb04;" horiz-adv-x="1589" 
d="M190 0v1075h-154v109h154v123q0 49 2.5 84t10 72t22 61t38 44.5t59.5 30t84 9.5q54 0 121 -13v-113q-71 11 -84 11q-64 0 -84 -38.5t-20 -131.5v-139h192v-109h-192v-1075h-149zM675 0v1075h-154v109h154v123q0 49 2.5 84t10 72t22 61t38 44.5t59.5 30t84 9.5
q54 0 121 -13v-113q-71 11 -84 11q-64 0 -84 -38.5t-20 -131.5v-139h192v-109h-192v-1075h-149zM1175 0v1184h150v-1184h-150zM1175 1347v204h151v-204h-151z" />
    <glyph glyph-name="foundryicon" horiz-adv-x="1454" 
d="M280 267l162 521l-442 336h551l171 522l181 -522h551l-444 -336l164 -521l-452 314z" />
    <glyph glyph-name="uni04AE" horiz-adv-x="911" 
d="M386 0v719l-376 939h153l190 -492l108 -281l103 280l184 493h153l-363 -939v-719h-152z" />
    </font>
</defs>
</svg>
